<?xml version="1.0" encoding="UTF-8" standalone="no"?>
<!-- Created with Inkscape (http://www.inkscape.org/) -->

<svg
   xmlns:dc="http://purl.org/dc/elements/1.1/"
   xmlns:cc="http://creativecommons.org/ns#"
   xmlns:rdf="http://www.w3.org/1999/02/22-rdf-syntax-ns#"
   xmlns:svg="http://www.w3.org/2000/svg"
   xmlns="http://www.w3.org/2000/svg"
   xmlns:xlink="http://www.w3.org/1999/xlink"
   xmlns:sodipodi="http://sodipodi.sourceforge.net/DTD/sodipodi-0.dtd"
   xmlns:inkscape="http://www.inkscape.org/namespaces/inkscape"
   width="211.86366mm"
   height="207.06429mm"
   viewBox="0 0 211.86366 207.06429"
   version="1.1"
   id="svg1893"
   inkscape:version="0.92.3 (2405546, 2018-03-11)"
   sodipodi:docname="car.svg">
  <defs
     id="defs1887">
    <clipPath
       clipPathUnits="userSpaceOnUse"
       id="clipPath1070">
      <g
         id="g1078">
        <g
           id="g1074">
          <path
             sodipodi:nodetypes="zssz"
             inkscape:connector-curvature="0"
             id="path1072"
             d="m 12.945685,165.84226 c 1.135225,-1.32742 19.954107,8.26557 20.268973,9.35491 1.655309,5.72686 -20.304467,5.95202 -22.725819,3.49628 -2.0797614,-2.1093 1.321621,-11.52377 2.456846,-12.85119 z"
             style="fill:#1c1c1c;fill-opacity:1;stroke:#000000;stroke-width:0.16500001;stroke-linecap:butt;stroke-linejoin:miter;stroke-miterlimit:4;stroke-dasharray:none;stroke-opacity:1" />
        </g>
        <path
           sodipodi:nodetypes="sccss"
           inkscape:connector-curvature="0"
           id="path1076"
           d="m 12.933555,165.97168 c 0.556798,-0.65106 1.808046,0.17696 1.808046,0.17696 l -1.675657,13.35379 c -0.01035,0.0392 -1.354816,0.28004 -2.542426,-0.92441 -2.0401374,-2.06911 1.296441,-11.30421 2.410037,-12.60634 z"
           style="fill:#590808;fill-opacity:1;stroke:none;stroke-width:0.16185634;stroke-linecap:butt;stroke-linejoin:miter;stroke-miterlimit:4;stroke-dasharray:none;stroke-opacity:1" />
      </g>
    </clipPath>
    <clipPath
       clipPathUnits="userSpaceOnUse"
       id="clipPath1775">
      <g
         id="g1773">
        <g
           id="g1769">
          <path
             sodipodi:nodetypes="zssz"
             inkscape:connector-curvature="0"
             id="path1767"
             d="m 12.945685,165.84226 c 1.135225,-1.32742 19.954107,8.26557 20.268973,9.35491 1.655309,5.72686 -20.304467,5.95202 -22.725819,3.49628 -2.0797614,-2.1093 1.321621,-11.52377 2.456846,-12.85119 z"
             style="fill:#1c1c1c;fill-opacity:1;stroke:#000000;stroke-width:0.16500001;stroke-linecap:butt;stroke-linejoin:miter;stroke-miterlimit:4;stroke-dasharray:none;stroke-opacity:1" />
        </g>
        <path
           sodipodi:nodetypes="sccss"
           inkscape:connector-curvature="0"
           id="path1771"
           d="m 12.933555,165.97168 c 0.556798,-0.65106 1.808046,0.17696 1.808046,0.17696 l -1.675657,13.35379 c -0.01035,0.0392 -1.354816,0.28004 -2.542426,-0.92441 -2.0401374,-2.06911 1.296441,-11.30421 2.410037,-12.60634 z"
           style="fill:#590808;fill-opacity:1;stroke:none;stroke-width:0.16185634;stroke-linecap:butt;stroke-linejoin:miter;stroke-miterlimit:4;stroke-dasharray:none;stroke-opacity:1" />
      </g>
    </clipPath>
    <linearGradient
       gradientTransform="translate(4.9136881,4.739555)"
       inkscape:collect="always"
       xlink:href="#linearGradient1124-5"
       id="linearGradient1126"
       x1="107.77501"
       y1="127.90839"
       x2="58.534512"
       y2="42.863747"
       gradientUnits="userSpaceOnUse" />
    <linearGradient
       inkscape:collect="always"
       id="linearGradient1124-5">
      <stop
         style="stop-color:#242b2b;stop-opacity:1;"
         offset="0"
         id="stop1120" />
      <stop
         style="stop-color:#707070;stop-opacity:1"
         offset="1"
         id="stop1122" />
    </linearGradient>
    <linearGradient
       gradientTransform="translate(4.9136881,4.739555)"
       inkscape:collect="always"
       xlink:href="#linearGradient1136-7"
       id="linearGradient1138"
       x1="105.99506"
       y1="72.914307"
       x2="105.99506"
       y2="129.98872"
       gradientUnits="userSpaceOnUse" />
    <linearGradient
       id="linearGradient1136-7"
       inkscape:collect="always">
      <stop
         id="stop1140"
         offset="0"
         style="stop-color:#000000;stop-opacity:1;" />
      <stop
         id="stop1142"
         offset="1"
         style="stop-color:#000000;stop-opacity:0;" />
    </linearGradient>
    <linearGradient
       gradientTransform="translate(4.9136881,4.739555)"
       inkscape:collect="always"
       xlink:href="#linearGradient1155"
       id="linearGradient1149"
       x1="105.52232"
       y1="187.29237"
       x2="105.38842"
       y2="176.52007"
       gradientUnits="userSpaceOnUse" />
    <linearGradient
       id="linearGradient1155"
       inkscape:collect="always">
      <stop
         id="stop1151"
         offset="0"
         style="stop-color:#000000;stop-opacity:1" />
      <stop
         id="stop1153"
         offset="1"
         style="stop-color:#3d3d3d;stop-opacity:1" />
    </linearGradient>
    <linearGradient
       gradientTransform="translate(4.9136881,4.739555)"
       inkscape:collect="always"
       xlink:href="#linearGradient990"
       id="linearGradient1070"
       x1="194.99869"
       y1="92.325569"
       x2="203.50826"
       y2="57.152325"
       gradientUnits="userSpaceOnUse" />
    <linearGradient
       inkscape:collect="always"
       id="linearGradient990">
      <stop
         style="stop-color:#000000;stop-opacity:1"
         offset="0"
         id="stop986" />
      <stop
         style="stop-color:#ffffff;stop-opacity:1"
         offset="1"
         id="stop988" />
    </linearGradient>
    <linearGradient
       gradientTransform="translate(4.9136881,4.739555)"
       inkscape:collect="always"
       xlink:href="#linearGradient990"
       id="linearGradient992"
       x1="22.311922"
       y1="92.594978"
       x2="11.693728"
       y2="61.483707"
       gradientUnits="userSpaceOnUse" />
  </defs>
  <sodipodi:namedview
     id="base"
     pagecolor="#ffffff"
     bordercolor="#666666"
     borderopacity="1.0"
     inkscape:pageopacity="0.0"
     inkscape:pageshadow="2"
     inkscape:zoom="0.49497475"
     inkscape:cx="54.94134"
     inkscape:cy="351.86576"
     inkscape:document-units="mm"
     inkscape:current-layer="layer1"
     showgrid="false"
     inkscape:window-width="1853"
     inkscape:window-height="1023"
     inkscape:window-x="1147"
     inkscape:window-y="435"
     inkscape:window-maximized="1" />
  <metadata
     id="metadata1890">
    <rdf:RDF>
      <cc:Work
         rdf:about="">
        <dc:format>image/svg+xml</dc:format>
        <dc:type
           rdf:resource="http://purl.org/dc/dcmitype/StillImage" />
        <dc:title></dc:title>
      </cc:Work>
    </rdf:RDF>
  </metadata>
  <g
     inkscape:label="Layer 1"
     inkscape:groupmode="layer"
     id="layer1"
     transform="translate(-4.4372199,-19.598812)">
    <path
       style="opacity:0.5979996;fill:#090909;fill-opacity:1;stroke:none;stroke-width:0.89817119;stroke-linecap:round;stroke-miterlimit:4;stroke-dasharray:none;stroke-opacity:1"
       d="M 31.625578,170.57448 H 189.58077 c 6.2655,0 9.62852,4.31463 11.30957,9.20693 l 12.9454,37.67475 c 1.68104,4.89232 -5.04408,9.20693 -11.30958,9.20693 H 20.912148 c -6.2655,0 -12.7186699,-4.25174 -11.3095799,-9.20693 L 20.315998,179.78141 c 1.40909,-4.95518 5.04408,-9.20693 11.30958,-9.20693 z"
       id="shadow"
       inkscape:connector-curvature="0"
       sodipodi:nodetypes="sssssssss" />
    <g
       id="g1088"
       transform="matrix(-1,0,0,1,216.76901,4.739555)">
      <path
         style="fill:#282828;fill-opacity:1;stroke:#181818;stroke-width:0.69999999;stroke-linecap:butt;stroke-linejoin:miter;stroke-miterlimit:4;stroke-dasharray:none;stroke-opacity:1"
         d="m 4.4099473,184.74678 c -1.0540631,6.16408 -1.9146188,26.82195 5.2117557,31.93872 h 13.898016 c 9.253296,-5.68575 7.288113,-22.28872 6.681739,-31.53781 z"
         id="path1084"
         inkscape:connector-curvature="0"
         sodipodi:nodetypes="ccccc" />
      <path
         style="fill:#171717;fill-opacity:1;stroke:none;stroke-width:2;stroke-linecap:butt;stroke-linejoin:miter;stroke-miterlimit:4;stroke-dasharray:none;stroke-opacity:1"
         d="m 24.455161,215.21554 c -2.592469,-6.50478 -3.627304,-28.23518 0.801808,-39.68953 0,0 6.280835,3.74177 5.87993,20.17885 -0.400906,16.43708 -5.834863,21.63558 -6.681738,19.51068 z"
         id="path1086"
         inkscape:connector-curvature="0"
         sodipodi:nodetypes="sczs" />
    </g>
    <g
       transform="translate(4.9136881,4.739555)"
       id="g1082">
      <path
         sodipodi:nodetypes="ccccc"
         inkscape:connector-curvature="0"
         id="path961"
         d="m 4.4099473,184.74678 c -1.0540631,6.16408 -1.9146188,26.82195 5.2117557,31.93872 h 13.898016 c 9.253296,-5.68575 7.288113,-22.28872 6.681739,-31.53781 z"
         style="fill:#282828;fill-opacity:1;stroke:#181818;stroke-width:0.69999999;stroke-linecap:butt;stroke-linejoin:miter;stroke-miterlimit:4;stroke-dasharray:none;stroke-opacity:1" />
      <path
         sodipodi:nodetypes="sczs"
         inkscape:connector-curvature="0"
         id="path965"
         d="m 24.455161,215.21554 c -2.592469,-6.50478 -3.627304,-28.23518 0.801808,-39.68953 0,0 6.280835,3.74177 5.87993,20.17885 -0.400906,16.43708 -5.834863,21.63558 -6.681738,19.51068 z"
         style="fill:#171717;fill-opacity:1;stroke:none;stroke-width:2;stroke-linecap:butt;stroke-linejoin:miter;stroke-miterlimit:4;stroke-dasharray:none;stroke-opacity:1" />
    </g>
    <g
       id="body">
      <ellipse
         ry="5.0554318"
         rx="11.599145"
         cy="193.3549"
         cx="52.326073"
         id="path1739"
         style="opacity:1;fill:#1c1c1c;fill-opacity:1;stroke:none;stroke-width:1.03592968;stroke-linecap:round;stroke-miterlimit:4;stroke-dasharray:none;stroke-opacity:1" />
      <ellipse
         ry="7.705091"
         rx="17.861334"
         cy="191.59111"
         cx="167.04607"
         id="path1737"
         style="opacity:1;fill:#1c1c1c;fill-opacity:1;stroke:none;stroke-width:1.02326906;stroke-linecap:round;stroke-miterlimit:4;stroke-dasharray:none;stroke-opacity:1" />
      <path
         sodipodi:nodetypes="ccccccc"
         inkscape:connector-curvature="0"
         id="path1747"
         d="m 180.44295,201.64712 5.84652,0.0668 -0.10022,-6.44788 -0.66007,-1.14372 -2.54717,-1.96328 -8.92151,-0.62302 z"
         style="fill:#000000;fill-opacity:1;stroke:none;stroke-width:0.26458332px;stroke-linecap:butt;stroke-linejoin:miter;stroke-opacity:1" />
      <path
         inkscape:connector-curvature="0"
         id="path1745"
         d="m 36.285718,194.11082 5.48065,-4.29947 7.46503,1.84263 -6.89807,9.49666 h -6.61458 v -6.52009 z"
         style="fill:#000000;fill-opacity:1;stroke:none;stroke-width:0.26458332px;stroke-linecap:butt;stroke-linejoin:miter;stroke-opacity:1" />
      <path
         sodipodi:nodetypes="csccc"
         inkscape:connector-curvature="0"
         id="path976"
         d="m 30.899558,73.441936 c 0,0 -12.8512,1.511906 -15.59152,3.874256 -2.74033,2.362349 -3.02381,6.047619 -3.02381,6.047619 4.29664,4.521872 8.21233,3.231882 12.28422,4.157736 z"
         style="fill:url(#linearGradient992);fill-opacity:1;stroke:#000000;stroke-width:0.86500001;stroke-linecap:butt;stroke-linejoin:miter;stroke-miterlimit:4;stroke-dasharray:none;stroke-opacity:1" />
      <path
         style="fill:url(#linearGradient1070);fill-opacity:1;stroke:#000000;stroke-width:0.86500001;stroke-linecap:butt;stroke-linejoin:miter;stroke-miterlimit:4;stroke-dasharray:none;stroke-opacity:1"
         d="m 190.09844,73.441936 c 0,0 12.85119,1.511906 15.59152,3.874256 2.74033,2.362349 3.02381,6.047619 3.02381,6.047619 -4.29664,4.521872 -8.21233,3.231882 -12.28422,4.157736 z"
         id="path978"
         inkscape:connector-curvature="0"
         sodipodi:nodetypes="csccc" />
      <path
         sodipodi:nodetypes="ccccc"
         inkscape:connector-curvature="0"
         id="path1168"
         d="m 142.30803,191.98473 1.41741,6.75631 5.5279,-1.13393 -1.74814,-6.14212 z"
         style="fill:#1c1c1c;fill-opacity:1;stroke:none;stroke-width:0.26458332px;stroke-linecap:butt;stroke-linejoin:miter;stroke-opacity:1" />
      <rect
         y="175.4955"
         x="38.364586"
         height="16.063974"
         width="148.16669"
         id="rect1133"
         style="opacity:1;fill:url(#linearGradient1149);fill-opacity:1;stroke:#010000;stroke-width:1;stroke-linecap:round;stroke-miterlimit:4;stroke-dasharray:none;stroke-opacity:1" />
      <path
         sodipodi:nodetypes="ssscsscsscccsscss"
         inkscape:connector-curvature="0"
         d="m 9.0714281,194.01633 c -4.87782,-3.38547 -4.58273,-46.07021 -3.40179,-55.18451 1.18095,-9.11432 7.9469399,-23.39858 9.0714299,-29.10417 1.1245,-5.70559 0.23624,-7.51228 0.75595,-9.827381 0.70871,-3.212798 2.32311,-2.418823 8.69346,-12.473215 6.37035,-10.054392 16.25297,-44.223213 27.97024,-48.758928 11.71726,-4.535715 58.208332,-5.291667 58.208332,-5.291667 0,0 46.49108,0.755952 58.20834,5.291667 11.71726,4.535715 21.59988,38.704536 27.97023,48.758928 6.37035,10.054392 7.98475,9.260417 8.69346,12.473215 0.51971,2.315101 -0.36855,4.121791 0.75595,9.827381 1.12449,5.70559 7.89048,19.98985 9.07142,29.10417 1.18095,9.1143 1.47604,51.79904 -3.40178,55.18451 -2.43891,1.69273 -24.6831,0.97743 -25.60097,0.51361 -24.35432,-12.30691 -18.18998,-12.98682 -75.69665,-12.23087 -56.939702,-0.75595 -51.907162,-0.18845 -75.885642,12.41985 -0.85086,0.4474 -22.97307,0.99014 -25.4119799,-0.70259 z"
         style="fill:#80abd8;fill-opacity:1;stroke:#000000;stroke-width:1;stroke-linecap:butt;stroke-linejoin:miter;stroke-miterlimit:4;stroke-dasharray:none;stroke-opacity:1"
         id="path958" />
      <g
         transform="translate(4.5960681,4.749727)"
         id="g1004">
        <path
           style="fill:#820000;fill-opacity:1;stroke:#000000;stroke-width:0.26458332px;stroke-linecap:butt;stroke-linejoin:miter;stroke-opacity:1"
           d="m 12.548237,93.842734 c 13.253811,3.562283 53.963703,3.504245 56.14003,5.912354 1.620772,1.793382 -6.797186,7.834782 -9.621703,9.888972 -8.196265,1.24726 -12.732761,0.0547 -24.588795,3.74177 0,0 -9.345617,10.61575 -11.603297,11.3981 -2.257681,0.78234 -9.329498,-2.26765 -10.312804,-5.78544 -0.983306,-3.51779 -2.8729887,-22.292765 -0.01343,-25.155756 z"
           id="path980"
           inkscape:connector-curvature="0"
           sodipodi:nodetypes="cscczzc" />
        <path
           style="fill:#e1e1e1;fill-opacity:1;stroke:#000000;stroke-width:0.26458332px;stroke-linecap:butt;stroke-linejoin:miter;stroke-opacity:1"
           d="m 59.267016,101.42552 -46.103992,-3.207232 0.133635,9.153982 c 13.370254,-0.84152 27.029906,-0.52544 40.558151,-0.73499 2.21526,-1.66187 4.749708,-3.37736 5.412206,-5.21176 z"
           id="path982"
           inkscape:connector-curvature="0"
           sodipodi:nodetypes="ccccc" />
        <path
           style="fill:#ea6200;fill-opacity:1;stroke:#000000;stroke-width:0.26458332px;stroke-linecap:butt;stroke-linejoin:miter;stroke-opacity:1"
           d="M 12.795528,98.15147 11.22532,97.884201 c -0.29005,3.280529 -0.144659,6.735239 0,10.189649 l 1.670434,-0.56795 z"
           id="path984"
           inkscape:connector-curvature="0"
           sodipodi:nodetypes="ccccc" />
      </g>
      <g
         style="stroke:#000000;stroke-opacity:1"
         transform="matrix(-1,0,0,1,216.56611,4.749727)"
         id="g1012">
        <path
           sodipodi:nodetypes="cscczzc"
           inkscape:connector-curvature="0"
           id="path1006"
           d="m 12.548237,93.842734 c 13.253811,3.562283 53.963703,3.504245 56.14003,5.912354 1.620772,1.793382 -6.797186,7.834782 -9.621703,9.888972 -8.196265,1.24726 -12.732761,0.0547 -24.588795,3.74177 0,0 -9.345617,10.61575 -11.603297,11.3981 -2.257681,0.78234 -9.329498,-2.26765 -10.312804,-5.78544 -0.983306,-3.51779 -2.8729887,-22.292765 -0.01343,-25.155756 z"
           style="fill:#820000;fill-opacity:1;stroke:#000000;stroke-width:0.26458332px;stroke-linecap:butt;stroke-linejoin:miter;stroke-opacity:1" />
        <path
           sodipodi:nodetypes="ccccc"
           inkscape:connector-curvature="0"
           id="path1008"
           d="m 59.267016,101.42552 -46.103992,-3.207232 0.133635,9.153982 c 13.370254,-0.84152 27.029906,-0.52544 40.558151,-0.73499 2.21526,-1.66187 4.749708,-3.37736 5.412206,-5.21176 z"
           style="fill:#e1e1e1;fill-opacity:1;stroke:#000000;stroke-width:0.26458332px;stroke-linecap:butt;stroke-linejoin:miter;stroke-opacity:1" />
        <path
           sodipodi:nodetypes="ccccc"
           inkscape:connector-curvature="0"
           id="path1010"
           d="M 12.795528,98.15147 11.22532,97.884201 c -0.29005,3.280529 -0.144659,6.735239 0,10.189649 l 1.670434,-0.56795 z"
           style="fill:#ea6200;fill-opacity:1;stroke:#000000;stroke-width:0.26458332px;stroke-linecap:butt;stroke-linejoin:miter;stroke-opacity:1" />
      </g>
      <path
         sodipodi:nodetypes="sscccccccccccccccsscs"
         inkscape:connector-curvature="0"
         d="m 171.28897,147.92593 c 4.18881,-2.5295 7.99482,-12.73783 10.86612,-22.94431 2.8713,-10.20646 4.80788,-20.41109 5.25783,-22.93317 -0.37784,-0.35749 -0.82431,-1.16482 -1.13218,-1.0756 0,0 4.72636,-0.42177 5.58799,-0.48725 -0.7401,-3.229556 -1.62169,-5.844729 -3.20724,-9.354432 L 169.81899,53.5798 169.68536,48.100774 c -1.00104,-1.102691 -2.25613,-2.407151 -5.21176,-2.939966 -18.04069,-2.26577 -36.08139,-2.03068 -54.12208,-2.405425 -18.040692,0.374745 -36.081392,0.139655 -54.122082,2.405425 -2.95563,0.532815 -4.21072,1.837275 -5.21176,2.939966 l -0.13363,5.479026 -18.8425,37.551368 c -1.58555,3.509703 -2.46713,6.124876 -3.20724,9.354432 0.86163,0.0655 5.58799,0.48725 5.58799,0.48725 -0.30787,-0.0892 -0.75434,0.71811 -1.13218,1.0756 0.44995,2.52208 2.38654,12.72671 5.25783,22.93317 2.8713,10.20648 6.67731,20.41481 10.86612,22.94431 8.37762,5.059 60.748822,2.72329 60.937452,3.0736 0.18863,-0.35031 52.55983,1.9854 60.93745,-3.0736 z"
         style="fill:none;stroke:#000000;stroke-width:0.26458332px;stroke-linecap:butt;stroke-linejoin:miter;stroke-opacity:1"
         id="path1016" />
      <path
         id="path1130"
         style="opacity:1;fill:url(#linearGradient1138);fill-opacity:1;stroke:none;stroke-width:0.26458332px;stroke-linecap:butt;stroke-linejoin:miter;stroke-opacity:1"
         d="m 177.83707,136.96788 c 0,0 -23.73061,-15.15655 -32.74051,-17.63977 -9.00991,-2.48323 -34.61141,-1.87089 -34.61141,-1.87089 0,0 -25.601492,-0.61234 -34.611402,1.87089 -9.00991,2.48322 -32.74052,17.63977 -32.74052,17.63977"
         inkscape:connector-curvature="0"
         sodipodi:nodetypes="cscsc" />
      <path
         sodipodi:nodetypes="cscsc"
         inkscape:connector-curvature="0"
         d="m 177.83707,136.96788 c 0,0 -23.73061,-15.15655 -32.74051,-17.63977 -9.00991,-2.48323 -34.61141,-1.87089 -34.61141,-1.87089 0,0 -25.601492,-0.61234 -34.611402,1.87089 -9.00991,2.48322 -32.74052,17.63977 -32.74052,17.63977"
         style="opacity:0.31700003;fill:none;stroke:#6e351f;stroke-width:0.26458332px;stroke-linecap:butt;stroke-linejoin:miter;stroke-opacity:1"
         id="path1127" />
      <path
         sodipodi:nodetypes="ssscssscs"
         inkscape:connector-curvature="0"
         d="m 124.73215,98.199377 c 3.65097,0.44097 62.71842,-5.313852 65.20089,-8.12649 2.48247,-2.81264 -7.61636,-32.37707 -16.72545,-35.813243 -9.10908,-3.436173 -62.83854,-1.606399 -62.83854,-1.606399 0,0 -53.729462,-1.829774 -62.838542,1.606399 -9.10909,3.436173 -19.20792,33.000603 -16.72545,35.813243 2.48247,2.812638 61.54992,8.56746 65.20089,8.12649 3.65097,-0.440974 11.972052,-1.6064 14.363102,-1.6064 2.39105,0 10.71213,1.165426 14.3631,1.6064 z"
         style="fill:url(#linearGradient1126);fill-opacity:1;stroke:#000000;stroke-width:0.26458332px;stroke-linecap:butt;stroke-linejoin:miter;stroke-opacity:1"
         id="path998" />
      <g
         transform="matrix(-1,0,0,1,214.01033,4.739555)"
         id="g1118">
        <g
           id="g1100">
          <g
             id="g1096">
            <path
               sodipodi:nodetypes="zssz"
               inkscape:connector-curvature="0"
               id="path1094"
               d="m 12.945685,165.84226 c 1.135225,-1.32742 19.954107,8.26557 20.268973,9.35491 1.655309,5.72686 -20.304467,5.95202 -22.725819,3.49628 -2.0797614,-2.1093 1.321621,-11.52377 2.456846,-12.85119 z"
               style="fill:#1c1c1c;fill-opacity:1;stroke:#000000;stroke-width:0.16500001;stroke-linecap:butt;stroke-linejoin:miter;stroke-miterlimit:4;stroke-dasharray:none;stroke-opacity:1" />
          </g>
          <path
             sodipodi:nodetypes="sccss"
             inkscape:connector-curvature="0"
             id="path1098"
             d="m 12.933555,165.97168 c 0.556798,-0.65106 1.808046,0.17696 1.808046,0.17696 l -1.675657,13.35379 c -0.01035,0.0392 -1.354816,0.28004 -2.542426,-0.92441 -2.0401374,-2.06911 1.296441,-11.30421 2.410037,-12.60634 z"
             style="fill:#590808;fill-opacity:1;stroke:none;stroke-width:0.16185634;stroke-linecap:butt;stroke-linejoin:miter;stroke-miterlimit:4;stroke-dasharray:none;stroke-opacity:1" />
        </g>
        <g
           style="stroke:#242424;stroke-opacity:1"
           clip-path="url(#clipPath1070)"
           id="g1116">
          <path
             sodipodi:nodetypes="cc"
             style="fill:none;stroke:#242424;stroke-width:0.76499999;stroke-linecap:round;stroke-linejoin:miter;stroke-miterlimit:4;stroke-dasharray:none;stroke-opacity:1"
             d="M 34.131922,176.32164 15.374854,167.39196"
             id="path1102"
             inkscape:connector-curvature="0" />
          <path
             sodipodi:nodetypes="cc"
             inkscape:connector-curvature="0"
             id="path1104"
             d="M 33.259533,177.78315 15.258417,169.27869"
             style="fill:none;stroke:#242424;stroke-width:0.76499999;stroke-linecap:round;stroke-linejoin:miter;stroke-miterlimit:4;stroke-dasharray:none;stroke-opacity:1" />
          <path
             style="fill:none;stroke:#242424;stroke-width:0.76499999;stroke-linecap:round;stroke-linejoin:miter;stroke-miterlimit:4;stroke-dasharray:none;stroke-opacity:1"
             d="m 31.816818,179.00842 -16.725446,-7.843"
             id="path1106"
             inkscape:connector-curvature="0" />
          <path
             inkscape:connector-curvature="0"
             id="path1108"
             d="M 31.549546,180.89515 14.8241,173.05215"
             style="fill:none;stroke:#242424;stroke-width:0.76499999;stroke-linecap:round;stroke-linejoin:miter;stroke-miterlimit:4;stroke-dasharray:none;stroke-opacity:1" />
          <path
             style="fill:none;stroke:#242424;stroke-width:0.76499999;stroke-linecap:round;stroke-linejoin:miter;stroke-miterlimit:4;stroke-dasharray:none;stroke-opacity:1"
             d="m 31.315683,182.78188 -16.725446,-7.843"
             id="path1110"
             inkscape:connector-curvature="0" />
          <path
             inkscape:connector-curvature="0"
             id="path1112"
             d="m 31.053788,184.66862 -16.725446,-7.843"
             style="fill:none;stroke:#242424;stroke-width:0.76499999;stroke-linecap:round;stroke-linejoin:miter;stroke-miterlimit:4;stroke-dasharray:none;stroke-opacity:1" />
          <path
             style="fill:none;stroke:#242424;stroke-width:0.76499999;stroke-linecap:round;stroke-linejoin:miter;stroke-miterlimit:4;stroke-dasharray:none;stroke-opacity:1"
             d="m 30.758484,186.55535 -16.725446,-7.843"
             id="path1114"
             inkscape:connector-curvature="0" />
        </g>
      </g>
      <ellipse
         style="opacity:1;fill:#656565;fill-opacity:1;stroke:none;stroke-width:0.16500001;stroke-miterlimit:4;stroke-dasharray:none;stroke-opacity:1"
         id="ellipse1170"
         cx="146.44217"
         cy="198.00873"
         rx="2.8584449"
         ry="2.4332216" />
      <ellipse
         ry="2.4332216"
         rx="2.8584449"
         cy="198.10321"
         cx="146.48941"
         id="path1166"
         style="opacity:1;fill:#000000;fill-opacity:1;stroke:none;stroke-width:0.16500001;stroke-miterlimit:4;stroke-dasharray:none;stroke-opacity:1" />
      <path
         sodipodi:nodetypes="cczc"
         inkscape:connector-curvature="0"
         id="path1172"
         d="m 108.41381,39.848827 h 4.27632 c 0,0 0.24968,-3.274053 -2.10475,-3.274053 -2.35443,0 -2.17157,3.274053 -2.17157,3.274053 z"
         style="fill:#282828;fill-opacity:1;stroke:none;stroke-width:0.26458332px;stroke-linecap:butt;stroke-linejoin:miter;stroke-opacity:1" />
      <path
         sodipodi:nodetypes="cc"
         inkscape:connector-curvature="0"
         id="antenna"
         d="M 110.55197,37.744078 V 20.037472"
         style="fill:none;stroke:#000000;stroke-width:0.86500001;stroke-linecap:round;stroke-linejoin:miter;stroke-miterlimit:4;stroke-dasharray:none;stroke-opacity:1" />
      <path
         sodipodi:nodetypes="ccccccc"
         inkscape:connector-curvature="0"
         id="path1176"
         d="m 60.483518,89.336248 0.1029,-1.184331 c 4.17177,-0.50786 34.44587,-0.787897 51.502352,-0.227983 2.58941,1.603615 1.82226,5.094822 1.67044,5.81311 -0.79735,0.619842 -2.86072,0.746043 -5.19505,-0.06682 l -0.0835,-2.304216 C 91.676958,89.572298 76.805548,89.779766 60.483518,89.336248 Z"
         style="fill:#101010;fill-opacity:1;stroke:none;stroke-width:0.26458332px;stroke-linecap:butt;stroke-linejoin:miter;stroke-opacity:1" />
      <rect
         ry="1.5119047"
         y="124.09076"
         x="78.619041"
         height="16.252975"
         width="63.122025"
         id="rect1178"
         style="opacity:1;fill:#ffffff;fill-opacity:1;stroke:none;stroke-width:0.86500001;stroke-linecap:round;stroke-miterlimit:4;stroke-dasharray:none;stroke-opacity:1" />
      <path
         sodipodi:nodetypes="sccssss"
         inkscape:connector-curvature="0"
         id="rect1226"
         d="m 80.130958,124.09074 h 9.2689 v 16.25297 h -9.2689 c -0.8376,0 -1.51191,-0.67431 -1.51191,-1.51189 v -13.22918 c 0,-0.83759 0.67431,-1.5119 1.51191,-1.5119 z"
         style="opacity:1;fill:#0056b9;fill-opacity:1;stroke:none;stroke-width:0.86500001;stroke-linecap:round;stroke-miterlimit:4;stroke-dasharray:none;stroke-opacity:1" />
      <g
         transform="matrix(0.04643379,0,0,0.04643379,92.995358,130.49099)"
         id="g1224">
        <path
           sodipodi:type="star"
           style="opacity:1;fill:#ffe800;fill-opacity:1;stroke:none;stroke-width:0.86500001;stroke-linecap:round;stroke-miterlimit:4;stroke-dasharray:none;stroke-opacity:1"
           id="path1182"
           sodipodi:sides="5"
           sodipodi:cx="-192.76785"
           sodipodi:cy="-93.150024"
           sodipodi:r1="11.643875"
           sodipodi:r2="4.3188877"
           sodipodi:arg1="0.94677327"
           sodipodi:arg2="1.5750918"
           inkscape:flatsided="false"
           inkscape:rounded="0"
           inkscape:randomized="0"
           d="m -185.96428,-83.70062 -6.82212,-5.130557 -6.86595,5.07176 2.7713,-8.073654 -6.94523,-4.962643 8.53488,0.140764 2.57356,-8.13884 2.50355,8.160649 8.53577,-0.06744 -6.9876,4.902796 z"
           inkscape:transform-center-x="-0.015457377"
           inkscape:transform-center-y="-1.0971822" />
        <path
           inkscape:transform-center-y="-1.0971822"
           inkscape:transform-center-x="-0.015457377"
           d="m -155.4979,-75.537175 -6.82212,-5.130557 -6.86595,5.071759 2.7713,-8.073653 -6.94522,-4.962644 8.53488,0.140764 2.57356,-8.138842 2.50355,8.160651 8.53577,-0.06744 -6.9876,4.902795 z"
           inkscape:randomized="0"
           inkscape:rounded="0"
           inkscape:flatsided="false"
           sodipodi:arg2="1.5750918"
           sodipodi:arg1="0.94677327"
           sodipodi:r2="4.3188877"
           sodipodi:r1="11.643875"
           sodipodi:cy="-84.98658"
           sodipodi:cx="-162.30147"
           sodipodi:sides="5"
           id="path1190"
           style="opacity:1;fill:#ffe800;fill-opacity:1;stroke:none;stroke-width:0.86500001;stroke-linecap:round;stroke-miterlimit:4;stroke-dasharray:none;stroke-opacity:1"
           sodipodi:type="star" />
        <path
           sodipodi:type="star"
           style="opacity:1;fill:#ffe800;fill-opacity:1;stroke:none;stroke-width:0.86500001;stroke-linecap:round;stroke-miterlimit:4;stroke-dasharray:none;stroke-opacity:1"
           id="path1192"
           sodipodi:sides="5"
           sodipodi:cx="-139.99854"
           sodipodi:cy="-62.68364"
           sodipodi:r1="11.643875"
           sodipodi:r2="4.3188877"
           sodipodi:arg1="0.94677327"
           sodipodi:arg2="1.5750918"
           inkscape:flatsided="false"
           inkscape:rounded="0"
           inkscape:randomized="0"
           d="m -133.19496,-53.234235 -6.82213,-5.130557 -6.86594,5.07176 2.77129,-8.073654 -6.94522,-4.962643 8.53488,0.140764 2.57356,-8.138842 2.50355,8.160651 8.53577,-0.06744 -6.9876,4.902795 z"
           inkscape:transform-center-x="-0.015457377"
           inkscape:transform-center-y="-1.0971822" />
        <path
           inkscape:transform-center-y="-1.0971822"
           inkscape:transform-center-x="-0.015457377"
           d="m -125.03151,-22.767854 -6.82212,-5.130557 -6.86595,5.07176 2.7713,-8.073654 -6.94523,-4.962643 8.53488,0.140764 2.57356,-8.138842 2.50355,8.160651 8.53577,-0.06744 -6.9876,4.902796 z"
           inkscape:randomized="0"
           inkscape:rounded="0"
           inkscape:flatsided="false"
           sodipodi:arg2="1.5750918"
           sodipodi:arg1="0.94677327"
           sodipodi:r2="4.3188877"
           sodipodi:r1="11.643875"
           sodipodi:cy="-32.217258"
           sodipodi:cx="-131.83508"
           sodipodi:sides="5"
           id="path1194"
           style="opacity:1;fill:#ffe800;fill-opacity:1;stroke:none;stroke-width:0.86500001;stroke-linecap:round;stroke-miterlimit:4;stroke-dasharray:none;stroke-opacity:1"
           sodipodi:type="star" />
        <path
           sodipodi:type="star"
           style="opacity:1;fill:#ffe800;fill-opacity:1;stroke:none;stroke-width:0.86500001;stroke-linecap:round;stroke-miterlimit:4;stroke-dasharray:none;stroke-opacity:1"
           id="path1196"
           sodipodi:sides="5"
           sodipodi:cx="-139.99854"
           sodipodi:cy="-1.7508786"
           sodipodi:r1="11.643875"
           sodipodi:r2="4.3188877"
           sodipodi:arg1="0.94677327"
           sodipodi:arg2="1.5750918"
           inkscape:flatsided="false"
           inkscape:rounded="0"
           inkscape:randomized="0"
           d="m -133.19496,7.6985259 -6.82213,-5.1305566 -6.86594,5.0717595 2.77129,-8.07365361 -6.94522,-4.96264369 8.53488,0.1407642 2.57356,-8.1388417 2.50355,8.1606505 8.53577,-0.067437 -6.9876,4.90279524 z"
           inkscape:transform-center-x="-0.015457377"
           inkscape:transform-center-y="-1.0971822" />
        <path
           inkscape:transform-center-y="-1.0971822"
           inkscape:transform-center-x="-0.015457377"
           d="m -155.4979,30.001464 -6.82212,-5.130557 -6.86595,5.07176 2.7713,-8.073654 -6.94522,-4.962644 8.53488,0.140764 2.57356,-8.1388415 2.50355,8.1606505 8.53577,-0.06744 -6.9876,4.902795 z"
           inkscape:randomized="0"
           inkscape:rounded="0"
           inkscape:flatsided="false"
           sodipodi:arg2="1.5750918"
           sodipodi:arg1="0.94677327"
           sodipodi:r2="4.3188877"
           sodipodi:r1="11.643875"
           sodipodi:cy="20.552059"
           sodipodi:cx="-162.30147"
           sodipodi:sides="5"
           id="path1198"
           style="opacity:1;fill:#ffe800;fill-opacity:1;stroke:none;stroke-width:0.86500001;stroke-linecap:round;stroke-miterlimit:4;stroke-dasharray:none;stroke-opacity:1"
           sodipodi:type="star" />
        <path
           sodipodi:type="star"
           style="opacity:1;fill:#ffe800;fill-opacity:1;stroke:none;stroke-width:0.86500001;stroke-linecap:round;stroke-miterlimit:4;stroke-dasharray:none;stroke-opacity:1"
           id="path1200"
           sodipodi:sides="5"
           sodipodi:cx="-192.76785"
           sodipodi:cy="28.7155"
           sodipodi:r1="11.643875"
           sodipodi:r2="4.3188877"
           sodipodi:arg1="0.94677327"
           sodipodi:arg2="1.5750918"
           inkscape:flatsided="false"
           inkscape:rounded="0"
           inkscape:randomized="0"
           d="m -185.96428,38.164904 -6.82212,-5.130556 -6.86595,5.071759 2.7713,-8.073653 -6.94523,-4.962644 8.53488,0.140764 2.57356,-8.138842 2.50355,8.160651 8.53577,-0.06744 -6.9876,4.902795 z"
           inkscape:transform-center-x="-0.015457377"
           inkscape:transform-center-y="-1.0971822" />
        <path
           inkscape:transform-center-y="-1.0971822"
           inkscape:transform-center-x="-0.015457377"
           d="m -216.43067,30.00146 -6.82212,-5.130557 -6.86595,5.07176 2.7713,-8.073654 -6.94522,-4.962644 8.53488,0.140765 2.57356,-8.1388423 2.50355,8.1606503 8.53577,-0.06744 -6.9876,4.902795 z"
           inkscape:randomized="0"
           inkscape:rounded="0"
           inkscape:flatsided="false"
           sodipodi:arg2="1.5750918"
           sodipodi:arg1="0.94677327"
           sodipodi:r2="4.3188877"
           sodipodi:r1="11.643875"
           sodipodi:cy="20.552055"
           sodipodi:cx="-223.23424"
           sodipodi:sides="5"
           id="path1202"
           style="opacity:1;fill:#ffe800;fill-opacity:1;stroke:none;stroke-width:0.86500001;stroke-linecap:round;stroke-miterlimit:4;stroke-dasharray:none;stroke-opacity:1"
           sodipodi:type="star" />
        <path
           sodipodi:type="star"
           style="opacity:1;fill:#ffe800;fill-opacity:1;stroke:none;stroke-width:0.86500001;stroke-linecap:round;stroke-miterlimit:4;stroke-dasharray:none;stroke-opacity:1"
           id="path1204"
           sodipodi:sides="5"
           sodipodi:cx="-245.53717"
           sodipodi:cy="-1.7508838"
           sodipodi:r1="11.643875"
           sodipodi:r2="4.3188877"
           sodipodi:arg1="0.94677327"
           sodipodi:arg2="1.5750918"
           inkscape:flatsided="false"
           inkscape:rounded="0"
           inkscape:randomized="0"
           d="m -238.7336,7.6985207 -6.82212,-5.1305567 -6.86595,5.0717596 2.7713,-8.07365366 -6.94523,-4.96264374 8.53488,0.1407643 2.57357,-8.1388425 2.50354,8.1606512 8.53578,-0.067437 -6.9876,4.9027953 z"
           inkscape:transform-center-x="-0.015457377"
           inkscape:transform-center-y="-1.0971822" />
        <path
           inkscape:transform-center-y="-1.0971822"
           inkscape:transform-center-x="-0.015457377"
           d="m -246.89704,-22.767862 -6.82212,-5.130556 -6.86595,5.071759 2.7713,-8.073653 -6.94522,-4.962644 8.53488,0.140764 2.57356,-8.138842 2.50355,8.160651 8.53577,-0.06744 -6.9876,4.902795 z"
           inkscape:randomized="0"
           inkscape:rounded="0"
           inkscape:flatsided="false"
           sodipodi:arg2="1.5750918"
           sodipodi:arg1="0.94677327"
           sodipodi:r2="4.3188877"
           sodipodi:r1="11.643875"
           sodipodi:cy="-32.217266"
           sodipodi:cx="-253.70061"
           sodipodi:sides="5"
           id="path1206"
           style="opacity:1;fill:#ffe800;fill-opacity:1;stroke:none;stroke-width:0.86500001;stroke-linecap:round;stroke-miterlimit:4;stroke-dasharray:none;stroke-opacity:1"
           sodipodi:type="star" />
        <path
           sodipodi:type="star"
           style="opacity:1;fill:#ffe800;fill-opacity:1;stroke:none;stroke-width:0.86500001;stroke-linecap:round;stroke-miterlimit:4;stroke-dasharray:none;stroke-opacity:1"
           id="path1208"
           sodipodi:sides="5"
           sodipodi:cx="-245.53717"
           sodipodi:cy="-62.683647"
           sodipodi:r1="11.643875"
           sodipodi:r2="4.3188877"
           sodipodi:arg1="0.94677327"
           sodipodi:arg2="1.5750918"
           inkscape:flatsided="false"
           inkscape:rounded="0"
           inkscape:randomized="0"
           d="m -238.7336,-53.234243 -6.82212,-5.130556 -6.86595,5.071759 2.7713,-8.073653 -6.94523,-4.962644 8.53488,0.140764 2.57357,-8.138842 2.50354,8.160651 8.53578,-0.06744 -6.9876,4.902795 z"
           inkscape:transform-center-x="-0.015457377"
           inkscape:transform-center-y="-1.0971822" />
        <path
           inkscape:transform-center-y="-1.0971822"
           inkscape:transform-center-x="-0.015457377"
           d="m -216.43065,-75.537183 -6.82212,-5.130557 -6.86595,5.07176 2.7713,-8.073654 -6.94523,-4.962643 8.53488,0.140764 2.57356,-8.138842 2.50355,8.160651 8.53577,-0.06744 -6.9876,4.902795 z"
           inkscape:randomized="0"
           inkscape:rounded="0"
           inkscape:flatsided="false"
           sodipodi:arg2="1.5750918"
           sodipodi:arg1="0.94677327"
           sodipodi:r2="4.3188877"
           sodipodi:r1="11.643875"
           sodipodi:cy="-84.986588"
           sodipodi:cx="-223.23422"
           sodipodi:sides="5"
           id="path1210"
           style="opacity:1;fill:#ffe800;fill-opacity:1;stroke:none;stroke-width:0.86500001;stroke-linecap:round;stroke-miterlimit:4;stroke-dasharray:none;stroke-opacity:1"
           sodipodi:type="star" />
      </g>
      <rect
         style="opacity:1;fill:none;fill-opacity:1;stroke:#373737;stroke-width:0.86500001;stroke-linecap:round;stroke-miterlimit:4;stroke-dasharray:none;stroke-opacity:1"
         id="rect1229"
         width="63.122025"
         height="16.252975"
         x="78.619041"
         y="124.09076"
         ry="1.5119047" />
      <text
         id="text1233"
         y="138.26486"
         x="83.933159"
         style="font-style:normal;font-weight:normal;font-size:10.58333302px;line-height:1.25;font-family:sans-serif;letter-spacing:0px;word-spacing:0px;fill:#ffffff;fill-opacity:1;stroke:none;stroke-width:0.26458332"
         xml:space="preserve"><tspan
           style="font-style:normal;font-variant:normal;font-weight:normal;font-stretch:normal;font-size:5.64444447px;font-family:sans-serif;-inkscape-font-specification:'sans-serif, Normal';font-variant-ligatures:normal;font-variant-caps:normal;font-variant-numeric:normal;font-feature-settings:normal;text-align:center;writing-mode:lr-tb;text-anchor:middle;fill:#ffffff;fill-opacity:1;stroke-width:0.26458332"
           y="138.26486"
           x="83.933159"
           id="tspan1231"
           sodipodi:role="line">EU</tspan></text>
      <path
         sodipodi:nodetypes="ccccc"
         inkscape:connector-curvature="0"
         id="path883"
         d="m 59.295018,36.36972 c -1.7286,2.885998 -2.89802,5.977827 -3.87999,8.907744 -0.79015,0.08001 -1.63042,0.642866 -2.42057,0.92611 1.10278,-2.993721 2.00093,-6.48486 3.84371,-9.314135 z"
         style="fill:#000000;fill-opacity:1;stroke:none;stroke-width:0.26458332px;stroke-linecap:butt;stroke-linejoin:miter;stroke-opacity:1" />
      <path
         style="fill:#000000;fill-opacity:1;stroke:none;stroke-width:0.26458332px;stroke-linecap:butt;stroke-linejoin:miter;stroke-opacity:1"
         d="m 161.30416,36.36972 c 1.7286,2.885998 2.89802,5.977827 3.87999,8.907744 0.79016,0.08001 1.63042,0.642866 2.42057,0.92611 -1.10278,-2.993721 -2.00093,-6.48486 -3.84371,-9.314135 z"
         id="path885"
         inkscape:connector-curvature="0"
         sodipodi:nodetypes="ccccc" />
      <g
         id="g1029"
         style="fill:none;fill-opacity:1;stroke:#000000;stroke-width:0.2;stroke-miterlimit:4;stroke-dasharray:none;stroke-opacity:1"
         transform="translate(4.9136881,4.739555)">
        <path
           sodipodi:nodetypes="cccccccccc"
           inkscape:connector-curvature="0"
           id="path1023"
           d="m 105.66797,96.531059 c -4.57939,-5.5e-5 -8.291818,2.474752 -8.292002,5.527681 1.76e-4,3.05293 3.712602,5.52774 8.292002,5.52769 4.5794,5e-5 8.29182,-2.47476 8.292,-5.52769 -1.8e-4,-3.052928 -3.71261,-5.527735 -8.292,-5.527681 z m 0,0.521577 c 3.77055,9.1e-5 6.82708,2.241398 6.82697,5.006104 1.1e-4,2.52848 -3.05642,4.5808 -6.82697,4.58089 -3.77055,-9e-5 -6.827092,-1.81618 -6.826975,-4.58089 -1.12e-4,-2.764708 3.056425,-5.006015 6.826975,-5.006104 z"
           style="opacity:1;fill:none;fill-opacity:1;stroke:#000000;stroke-width:0.2;stroke-linecap:round;stroke-miterlimit:4;stroke-dasharray:none;stroke-opacity:1" />
        <path
           sodipodi:nodetypes="cccccccccc"
           inkscape:connector-curvature="0"
           id="path1025"
           transform="scale(0.26458333)"
           d="m 399.375,366.19531 c -12.55471,-8e-5 -24.07171,4.81643 -24.07171,9.65653 -1e-5,4.8401 11.15985,10.63876 23.71457,10.63868 12.55472,8e-5 23.98244,-5.62001 23.98242,-10.46011 0,-4.8401 -11.07057,-9.83518 -23.62528,-9.8351 z m 0,2.42969 c 10.12866,-1.5e-4 18.33937,2.83587 18.33789,6.33398 10e-4,3.49812 -8.20922,6.33414 -18.33789,6.33399 -10.12867,1.5e-4 -18.33939,-2.83587 -18.33789,-6.33399 -10e-4,-3.49811 8.20923,-6.33413 18.33789,-6.33398 z"
           style="opacity:1;fill:none;fill-opacity:1;stroke:#000000;stroke-width:0.75590551;stroke-linecap:round;stroke-miterlimit:4;stroke-dasharray:none;stroke-opacity:1" />
        <path
           sodipodi:nodetypes="cccccccccc"
           inkscape:connector-curvature="0"
           id="path1027"
           d="m 105.64418,97.192517 c -1.12192,2.64e-4 -2.03135,2.168273 -2.03141,4.842593 5e-5,2.67433 0.90949,4.84231 2.03141,4.8426 1.12211,2.7e-4 2.03186,-2.16779 2.03191,-4.8426 -5e-5,-2.674799 -0.9098,-4.84298 -2.03191,-4.842593 z m 0,1.661543 c 0.60875,-8.2e-5 1.10226,1.25987 1.10225,3.19294 1e-5,1.93307 -0.51712,2.62606 -1.12588,2.62598 -0.60876,8e-5 -1.07864,-0.69291 -1.07863,-2.62598 -1e-5,-1.93308 0.4935,-3.193024 1.10226,-3.19294 z"
           style="opacity:1;fill:none;fill-opacity:1;stroke:#000000;stroke-width:0.2;stroke-linecap:round;stroke-miterlimit:4;stroke-dasharray:none;stroke-opacity:1" />
      </g>
      <g
         style="fill:#dbdbdb;fill-opacity:1"
         id="g1021"
         transform="translate(4.9136881,4.739555)">
        <path
           style="opacity:1;fill:#dbdbdb;fill-opacity:1;stroke:none;stroke-width:0.98411077;stroke-linecap:round;stroke-miterlimit:4;stroke-dasharray:none;stroke-opacity:1"
           d="m 105.66797,96.531059 c -4.57939,-5.5e-5 -8.291818,2.474752 -8.292002,5.527681 1.76e-4,3.05293 3.712602,5.52774 8.292002,5.52769 4.5794,5e-5 8.29182,-2.47476 8.292,-5.52769 -1.8e-4,-3.052928 -3.71261,-5.527735 -8.292,-5.527681 z m 0,0.521577 c 3.77055,9.1e-5 6.82708,2.241398 6.82697,5.006104 1.1e-4,2.52848 -3.05642,4.5808 -6.82697,4.58089 -3.77055,-9e-5 -6.827092,-1.81618 -6.826975,-4.58089 -1.12e-4,-2.764708 3.056425,-5.006015 6.826975,-5.006104 z"
           id="path887"
           inkscape:connector-curvature="0"
           sodipodi:nodetypes="cccccccccc" />
        <path
           style="opacity:1;fill:#dbdbdb;fill-opacity:1;stroke:none;stroke-width:1.23134315;stroke-linecap:round;stroke-miterlimit:4;stroke-dasharray:none;stroke-opacity:1"
           d="m 399.375,366.19531 c -12.55471,-8e-5 -24.07171,4.81643 -24.07171,9.65653 -1e-5,4.8401 11.15985,10.63876 23.71457,10.63868 12.55472,8e-5 23.98244,-5.62001 23.98242,-10.46011 0,-4.8401 -11.07057,-9.83518 -23.62528,-9.8351 z m 0,2.42969 c 10.12866,-1.5e-4 18.33937,2.83587 18.33789,6.33398 10e-4,3.49812 -8.20922,6.33414 -18.33789,6.33399 -10.12867,1.5e-4 -18.33939,-2.83587 -18.33789,-6.33399 -10e-4,-3.49811 8.20923,-6.33413 18.33789,-6.33398 z"
           transform="scale(0.26458333)"
           id="ellipse914"
           inkscape:connector-curvature="0"
           sodipodi:nodetypes="cccccccccc" />
        <path
           style="opacity:1;fill:#dbdbdb;fill-opacity:1;stroke:none;stroke-width:0.28200001;stroke-linecap:round;stroke-miterlimit:4;stroke-dasharray:none;stroke-opacity:1"
           d="m 105.64418,97.192517 c -1.12192,2.64e-4 -2.03135,2.168273 -2.03141,4.842593 5e-5,2.67433 0.90949,4.84231 2.03141,4.8426 1.12211,2.7e-4 2.03186,-2.16779 2.03191,-4.8426 -5e-5,-2.674799 -0.9098,-4.84298 -2.03191,-4.842593 z m 0,1.661543 c 0.60875,-8.2e-5 1.10226,1.25987 1.10225,3.19294 1e-5,1.93307 -0.51712,2.62606 -1.12588,2.62598 -0.60876,8e-5 -1.07864,-0.69291 -1.07863,-2.62598 -1e-5,-1.93308 0.4935,-3.193024 1.10226,-3.19294 z"
           id="path917"
           inkscape:connector-curvature="0"
           sodipodi:nodetypes="cccccccccc" />
      </g>
      <g
         id="g1092"
         transform="translate(4.9136881,4.739555)">
        <g
           id="g1156">
          <g
             id="g1151">
            <path
               style="fill:#1c1c1c;fill-opacity:1;stroke:#000000;stroke-width:0.16500001;stroke-linecap:butt;stroke-linejoin:miter;stroke-miterlimit:4;stroke-dasharray:none;stroke-opacity:1"
               d="m 12.945685,165.84226 c 1.135225,-1.32742 19.954107,8.26557 20.268973,9.35491 1.655309,5.72686 -20.304467,5.95202 -22.725819,3.49628 -2.0797614,-2.1093 1.321621,-11.52377 2.456846,-12.85119 z"
               id="path1115"
               inkscape:connector-curvature="0"
               sodipodi:nodetypes="zssz" />
          </g>
          <path
             style="fill:#590808;fill-opacity:1;stroke:none;stroke-width:0.16185634;stroke-linecap:butt;stroke-linejoin:miter;stroke-miterlimit:4;stroke-dasharray:none;stroke-opacity:1"
             d="m 12.933555,165.97168 c 0.556798,-0.65106 1.808046,0.17696 1.808046,0.17696 l -1.675657,13.35379 c -0.01035,0.0392 -1.354816,0.28004 -2.542426,-0.92441 -2.0401374,-2.06911 1.296441,-11.30421 2.410037,-12.60634 z"
             id="path1117"
             inkscape:connector-curvature="0"
             sodipodi:nodetypes="sccss" />
        </g>
        <g
           id="g1052"
           clip-path="url(#clipPath1070)"
           style="stroke:#242424;stroke-opacity:1">
          <path
             inkscape:connector-curvature="0"
             id="path1031"
             d="M 34.131922,176.32164 15.374854,167.39196"
             style="fill:none;stroke:#242424;stroke-width:0.76499999;stroke-linecap:round;stroke-linejoin:miter;stroke-miterlimit:4;stroke-dasharray:none;stroke-opacity:1"
             sodipodi:nodetypes="cc" />
          <path
             style="fill:none;stroke:#242424;stroke-width:0.76499999;stroke-linecap:round;stroke-linejoin:miter;stroke-miterlimit:4;stroke-dasharray:none;stroke-opacity:1"
             d="M 33.259533,177.78315 15.258417,169.27869"
             id="path1033"
             inkscape:connector-curvature="0"
             sodipodi:nodetypes="cc" />
          <path
             inkscape:connector-curvature="0"
             id="path1035"
             d="m 31.816818,179.00842 -16.725446,-7.843"
             style="fill:none;stroke:#242424;stroke-width:0.76499999;stroke-linecap:round;stroke-linejoin:miter;stroke-miterlimit:4;stroke-dasharray:none;stroke-opacity:1" />
          <path
             style="fill:none;stroke:#242424;stroke-width:0.76499999;stroke-linecap:round;stroke-linejoin:miter;stroke-miterlimit:4;stroke-dasharray:none;stroke-opacity:1"
             d="M 31.549546,180.89515 14.8241,173.05215"
             id="path1037"
             inkscape:connector-curvature="0" />
          <path
             inkscape:connector-curvature="0"
             id="path1039"
             d="m 31.315683,182.78188 -16.725446,-7.843"
             style="fill:none;stroke:#242424;stroke-width:0.76499999;stroke-linecap:round;stroke-linejoin:miter;stroke-miterlimit:4;stroke-dasharray:none;stroke-opacity:1" />
          <path
             style="fill:none;stroke:#242424;stroke-width:0.76499999;stroke-linecap:round;stroke-linejoin:miter;stroke-miterlimit:4;stroke-dasharray:none;stroke-opacity:1"
             d="m 31.053788,184.66862 -16.725446,-7.843"
             id="path1041"
             inkscape:connector-curvature="0" />
          <path
             inkscape:connector-curvature="0"
             id="path1043"
             d="m 30.758484,186.55535 -16.725446,-7.843"
             style="fill:none;stroke:#242424;stroke-width:0.76499999;stroke-linecap:round;stroke-linejoin:miter;stroke-miterlimit:4;stroke-dasharray:none;stroke-opacity:1" />
        </g>
      </g>
    </g>
  </g>
</svg>
