<?xml version="1.0" encoding="UTF-8" standalone="no"?>
<svg
   xmlns:dc="http://purl.org/dc/elements/1.1/"
   xmlns:cc="http://creativecommons.org/ns#"
   xmlns:rdf="http://www.w3.org/1999/02/22-rdf-syntax-ns#"
   xmlns:svg="http://www.w3.org/2000/svg"
   xmlns="http://www.w3.org/2000/svg"
   xmlns:xlink="http://www.w3.org/1999/xlink"
   xmlns:sodipodi="http://sodipodi.sourceforge.net/DTD/sodipodi-0.dtd"
   xmlns:inkscape="http://www.inkscape.org/namespaces/inkscape"
   inkscape:version="1.0beta1 (fe3e306, 2019-09-17)"
   sodipodi:docname="car_topview.svg"
   id="svg8"
   version="1.1"
   viewBox="0 0 191.1436 104.4126"
   height="104.4126mm"
   width="191.1436mm">
  <defs
     id="defs2">
    <linearGradient
       inkscape:collect="always"
       id="linearGradient1114">
      <stop
         style="stop-color:#646464;stop-opacity:1"
         offset="0"
         id="stop1110" />
      <stop
         id="stop1116"
         offset="0.12004527"
         style="stop-color:#d3d3d3;stop-opacity:1" />
      <stop
         style="stop-color:#dedede;stop-opacity:1"
         offset="1"
         id="stop1112" />
    </linearGradient>
    <linearGradient
       inkscape:collect="always"
       id="linearGradient1098">
      <stop
         style="stop-color:#c9c9c9;stop-opacity:1"
         offset="0"
         id="stop1094" />
      <stop
         id="stop1100"
         offset="0.5"
         style="stop-color:#fbfbfb;stop-opacity:1" />
      <stop
         style="stop-color:#c9c9c9;stop-opacity:1"
         offset="1"
         id="stop1096" />
    </linearGradient>
    <linearGradient
       id="linearGradient937"
       inkscape:collect="always">
      <stop
         id="stop933"
         offset="0"
         style="stop-color:#1c1c1c;stop-opacity:1;" />
      <stop
         id="stop935"
         offset="1"
         style="stop-color:#727272;stop-opacity:1" />
    </linearGradient>
    <linearGradient
       id="linearGradient919"
       inkscape:collect="always">
      <stop
         id="stop915"
         offset="0"
         style="stop-color:#f8f6ec;stop-opacity:1;" />
      <stop
         id="stop917"
         offset="1"
         style="stop-color:#f8f6ec;stop-opacity:0;" />
    </linearGradient>
    <linearGradient
       id="linearGradient888"
       inkscape:collect="always">
      <stop
         id="stop884"
         offset="0"
         style="stop-color:#000000;stop-opacity:1" />
      <stop
         id="stop886"
         offset="1"
         style="stop-color:#000000;stop-opacity:0" />
    </linearGradient>
    <linearGradient
       id="linearGradient872"
       inkscape:collect="always">
      <stop
         id="stop868"
         offset="0"
         style="stop-color:#646464;stop-opacity:1" />
      <stop
         id="stop870"
         offset="1"
         style="stop-color:#d3d3d3;stop-opacity:1" />
    </linearGradient>
    <linearGradient
       gradientTransform="scale(3.7795276)"
       gradientUnits="userSpaceOnUse"
       y2="191.31827"
       x2="104.84997"
       y1="106.00719"
       x1="104.91521"
       id="linearGradient876"
       xlink:href="#linearGradient1114"
       inkscape:collect="always" />
    <linearGradient
       gradientTransform="scale(3.7795276)"
       gradientUnits="userSpaceOnUse"
       y2="134.93135"
       x2="21.147118"
       y1="134.93135"
       x1="45.197952"
       id="linearGradient890"
       xlink:href="#linearGradient888"
       inkscape:collect="always" />
    <linearGradient
       gradientUnits="userSpaceOnUse"
       y2="503.82938"
       x2="120.83311"
       y1="503.82938"
       x1="207.00119"
       id="linearGradient902"
       xlink:href="#linearGradient872"
       inkscape:collect="always" />
    <linearGradient
       gradientUnits="userSpaceOnUse"
       y2="122.89319"
       x2="192.39922"
       y1="113.07565"
       x1="177.02481"
       id="linearGradient921"
       xlink:href="#linearGradient919"
       inkscape:collect="always" />
    <linearGradient
       gradientUnits="userSpaceOnUse"
       y2="565.46387"
       x2="584.03644"
       y1="430.27142"
       x1="584.03644"
       id="linearGradient939"
       xlink:href="#linearGradient937"
       inkscape:collect="always" />
    <linearGradient
       gradientTransform="scale(3.7795276)"
       gradientUnits="userSpaceOnUse"
       y2="149.1501"
       x2="27.55151"
       y1="115.78367"
       x1="27.55151"
       id="linearGradient947"
       xlink:href="#linearGradient937"
       inkscape:collect="always" />
    <linearGradient
       gradientTransform="matrix(1,0,0,-1,0,297.29242)"
       y2="122.89319"
       x2="192.39922"
       y1="113.07565"
       x1="177.02481"
       gradientUnits="userSpaceOnUse"
       id="linearGradient1030"
       xlink:href="#linearGradient919"
       inkscape:collect="always" />
    <linearGradient
       gradientUnits="userSpaceOnUse"
       y2="695.80469"
       x2="685.96704"
       y1="428.68201"
       x1="685.96704"
       id="linearGradient1092"
       xlink:href="#linearGradient1098"
       inkscape:collect="always" />
  </defs>
  <sodipodi:namedview
     inkscape:snap-global="true"
     inkscape:window-maximized="1"
     inkscape:window-y="27"
     inkscape:window-x="67"
     inkscape:window-height="1023"
     inkscape:window-width="1853"
     showgrid="false"
     inkscape:document-rotation="0"
     inkscape:current-layer="layer1"
     inkscape:document-units="mm"
     inkscape:cy="151.41786"
     inkscape:cx="436.86774"
     inkscape:zoom="0.49497475"
     inkscape:pageshadow="2"
     inkscape:pageopacity="0.0"
     borderopacity="1.0"
     bordercolor="#666666"
     pagecolor="#ffffff"
     id="base" />
  <metadata
     id="metadata5">
    <rdf:RDF>
      <cc:Work
         rdf:about="">
        <dc:format>image/svg+xml</dc:format>
        <dc:type
           rdf:resource="http://purl.org/dc/dcmitype/StillImage" />
      </cc:Work>
    </rdf:RDF>
  </metadata>
  <g
     transform="translate(-10.309219,-96.43991)"
     id="layer1"
     inkscape:groupmode="layer"
     inkscape:label="Layer 1">
    <g
       id="car_topview">
      <path
         sodipodi:nodetypes="ccsccccsccccscc"
         inkscape:connector-curvature="0"
         d="m 201.45282,148.8495 c 0,-5.44111 -2.38663,-8.47198 -3.64629,-12.70649 0,0 0.61999,-4.07419 0.11162,-7.19443 -0.50837,-3.12022 -7.89556,-15.7468 -10.69341,-17.24721 -2.79783,-1.5004 -2.5262,-0.60402 -5.28494,-1.44695 -2.75875,-0.84291 -7.04727,-3.00219 -10.52236,-3.30109 -3.4751,-0.29891 -24.94059,0.14793 -24.94059,0.14793 -19.76347,-0.22259 -38.54312,-0.98416 -58.194902,-1.02595 v 3e-5 c -11.791071,-0.0251 -23.896066,0.20914 -36.715588,0.97399 -0.317881,-0.53878 -14.480635,-0.76417 -16.67805,-0.0896 -2.252806,0.69156 -4.962488,1.74492 -4.962488,1.74492 -4.417428,1.34004 -5.602609,-0.28148 -11.284066,3.57998 -8.169693,5.55261 -8.332541,33.37106 -8.332537,36.56568 z"
         style="opacity:1;fill:#e40000;fill-opacity:1;stroke:#000000;stroke-width:0.268003px;stroke-linecap:butt;stroke-linejoin:miter;stroke-opacity:1;stop-opacity:1"
         id="path949" />
      <path
         inkscape:connector-curvature="0"
         id="path871"
         style="opacity:1;fill:url(#linearGradient876);fill-opacity:1;stroke:#000000;stroke-width:1.01292px;stroke-linecap:butt;stroke-linejoin:miter;stroke-opacity:1;stop-opacity:1"
         d="m 333.66406,400.91406 c -44.56468,-0.0949 -90.31584,0.79087 -138.76758,3.68164 -1.20144,-2.03633 -54.72996,-2.88744 -63.03515,-0.33789 -8.51454,2.61377 -18.75586,6.59375 -18.75586,6.59375 -16.695792,5.06472 -21.175215,-1.06324 -42.648439,13.53125 -29.978123,20.37492 -31.427105,119.8177 -31.486328,136.65821 h -0.0059 c 0,0.17586 0.0036,0.55668 0.0039,0.77148 -3.53e-4,0.2148 -0.0039,0.59562 -0.0039,0.77148 h 0.0059 c 0.05922,16.84051 1.508205,116.28329 31.486328,136.65821 21.473224,14.59449 25.952647,8.46653 42.648439,13.53125 0,0 10.24132,3.97998 18.75586,6.59375 8.30519,2.54955 61.83371,1.69844 63.03515,-0.33789 48.45174,2.89077 94.2029,3.7765 138.76758,3.68164 74.27445,-0.15795 145.25264,-3.03762 219.94922,-3.87891 0,0 81.12944,1.69029 94.26367,0.56055 13.1342,-1.1297 29.34276,-9.29076 39.76953,-12.47656 10.42674,-3.18588 9.40014,0.20205 19.97461,-5.46875 10.57455,-5.67085 38.49462,-53.39455 40.41602,-65.1875 1.9214,-11.79304 -0.42188,-27.19141 -0.42188,-27.19141 4.64074,-15.60043 13.32409,-26.88244 13.75977,-46.48828 h 0.0215 c 0,-0.25957 -0.007,-0.51089 -0.01,-0.76758 0.003,-0.25669 0.01,-0.50801 0.01,-0.76758 h -0.0215 c -0.43568,-19.60584 -9.11903,-30.88785 -13.75977,-46.48828 0,0 2.34328,-15.39837 0.42188,-27.19141 -1.9214,-11.79295 -29.84147,-59.51665 -40.41602,-65.1875 -10.57447,-5.6708 -9.54787,-2.28287 -19.97461,-5.46875 -10.42677,-3.1858 -26.63533,-11.34686 -39.76953,-12.47656 -13.13423,-1.12974 -94.26367,0.56055 -94.26367,0.56055 -74.69658,-0.84129 -145.67477,-3.72096 -219.94922,-3.87891 z"
         transform="scale(0.26458333)" />
      <path
         style="opacity:1;fill:#ae1131;fill-opacity:0.996078;stroke:#000000;stroke-width:0.265;stroke-linecap:butt;stroke-linejoin:bevel;stroke-miterlimit:4;stroke-dasharray:none;stroke-opacity:1;stop-opacity:1"
         d="m 29.21346,109.91028 c -3.505604,0.54989 -9.642875,0.67163 -12.549293,4.56941 -2.906419,3.89779 -3.303988,13.00298 -4.787157,19.57772 0,0 3.956423,-14.53445 7.447756,-18.7838 3.491333,-4.24935 9.89147,-5.43808 9.888694,-5.36333 z"
         id="path876"
         inkscape:connector-curvature="0"
         sodipodi:nodetypes="czczc" />
      <path
         style="opacity:1;fill:none;stroke:#000000;stroke-width:0.264583px;stroke-linecap:round;stroke-linejoin:miter;stroke-opacity:1;stop-opacity:1"
         d="m 15.132673,117.9138 c 1.058627,-0.19316 1.727634,-0.0213 2.496906,0.0566"
         id="path878"
         inkscape:connector-curvature="0"
         sodipodi:nodetypes="cc" />
      <path
         inkscape:connector-curvature="0"
         id="rect882"
         style="opacity:1;fill:url(#linearGradient890);fill-opacity:1;stroke:none;stroke-width:4.40315;stroke-linecap:round;stroke-linejoin:bevel;stroke-miterlimit:4;stroke-dasharray:none;stroke-opacity:1;stop-opacity:1"
         d="m 85.042969,458.50195 v 102.84961 0.92188 102.84961 H 123.48242 V 562.27344 561.35156 458.50195 Z"
         transform="scale(0.26458333)" />
      <path
         inkscape:connector-curvature="0"
         id="path880"
         style="opacity:1;fill:url(#linearGradient947);fill-opacity:1;stroke:#000000;stroke-width:0.623622;stroke-linecap:butt;stroke-linejoin:miter;stroke-miterlimit:4;stroke-dasharray:none;stroke-opacity:1;stop-opacity:1"
         d="m 100.01758,434.98828 c -2.471582,0.0535 -4.771465,0.70612 -6.701174,2.19922 -39.384732,30.47368 -38.531094,104.45984 -38.708984,124.16406 h -0.0078 c 0.0013,0.11332 0.0027,0.34339 0.0039,0.46094 -0.0012,0.11755 -0.0026,0.34762 -0.0039,0.46094 h 0.0078 c 0.17789,19.70422 -0.675748,93.69038 38.708984,124.16406 10.291774,7.9632 31.115044,-7.98994 32.339844,-11.14648 1.2945,-3.33623 -1.08735,-8.10881 -2.17383,-10.16797 0,0 -14.00053,-5.89965 -25.355467,-25.96289 -11.095469,-19.60479 -12.985164,-74.8176 -13.066406,-77.34766 0.08124,-2.53006 1.970937,-57.74287 13.066406,-77.34766 11.354937,-20.06324 25.355467,-25.96289 25.355467,-25.96289 1.08648,-2.05916 3.46833,-6.83174 2.17383,-10.16797 -0.99515,-2.56469 -14.92849,-13.57739 -25.63867,-13.3457 z"
         transform="scale(0.26458333)" />
      <path
         style="opacity:1;fill:#383838;fill-opacity:0.996078;stroke:#000000;stroke-width:0.264583px;stroke-linecap:butt;stroke-linejoin:miter;stroke-opacity:1;stop-opacity:1"
         d="m 42.745371,111.78838 c 30.217599,-2.72769 61.034569,-2.60304 92.013329,-1.70849 l -1.26759,2.78713 c 0,0 -13.38589,3.58594 -49.477632,3.02316 -36.091746,-0.56278 -31.633691,-0.50105 -31.633691,-0.50105 -3.091058,-2.14761 -6.385085,-3.15175 -9.634416,-3.60075 z"
         id="path890"
         inkscape:connector-curvature="0"
         sodipodi:nodetypes="cccscc" />
      <path
         style="opacity:1;fill:#000000;fill-opacity:0.996078;stroke:none;stroke-width:0.265;stroke-linecap:butt;stroke-linejoin:miter;stroke-miterlimit:4;stroke-dasharray:none;stroke-opacity:1;stop-opacity:1"
         d="m 90.153976,109.55962 c -3.065614,1.70241 -4.851325,3.92577 -6.166017,6.34084 l -5.12187,-0.0824 c 1.070265,-2.10154 1.178141,-4.41931 3.692715,-6.19634 z"
         id="path892"
         inkscape:connector-curvature="0"
         sodipodi:nodetypes="ccccc" />
      <path
         style="opacity:1;fill:none;stroke:#000000;stroke-width:0.264583px;stroke-linecap:butt;stroke-linejoin:miter;stroke-opacity:1;stop-opacity:1"
         d="m 81.269002,106.13021 c 0.01839,0.11877 -0.308029,0.33137 -0.129182,0.79666 0.128669,0.33475 2.006342,1.72495 1.946151,2.42716 -0.09164,1.06907 -3.590954,5.27682 -4.267155,6.75466 -0.09687,0.21172 -0.07561,0.379 1.378151,1.09719 0.840881,0.41541 20.157533,0.10955 30.610593,-0.30642 5.39967,-0.21487 25.23875,-1.95621 36.92966,-5.26782 1.43646,-0.4069 0.20515,-0.97903 -0.53514,-2.08035 -0.33328,-0.49583 -1.50494,-1.67657 -0.83107,-2.43333"
         id="path894"
         inkscape:connector-curvature="0"
         sodipodi:nodetypes="csssssssc" />
      <path
         style="opacity:1;fill:url(#linearGradient921);fill-opacity:1;stroke:#000000;stroke-width:0.264583px;stroke-linecap:butt;stroke-linejoin:miter;stroke-opacity:1;stop-opacity:1"
         d="m 173.69179,110.66868 c 2.53034,1.32013 3.31261,2.46168 4.24751,3.61882 7.04688,2.69005 11.99823,7.43925 16.46119,13.29223 0.50402,0.11348 -4.52443,-11.51507 -7.85346,-13.79702 -3.74957,-2.57022 -12.85524,-3.11403 -12.85524,-3.11403 z"
         id="path896"
         inkscape:connector-curvature="0"
         sodipodi:nodetypes="cccsc" />
      <path
         id="path898"
         style="opacity:1;fill:#cd5d16;fill-opacity:0.996078;stroke:#000000;stroke-width:0.264583px;stroke-linecap:butt;stroke-linejoin:miter;stroke-opacity:1;stop-opacity:1"
         d="m 173.69172,110.6687 c 0.58196,0.30362 1.06814,0.59761 1.48828,0.8847 6.13818,-0.0279 8.85198,1.23658 11.36727,2.22932 -1.5418,-1.75691 -6.86994,-2.94565 -12.85555,-3.11402 z"
         inkscape:connector-curvature="0"
         sodipodi:nodetypes="cccc" />
      <path
         sodipodi:nodetypes="cc"
         inkscape:connector-curvature="0"
         id="path851"
         d="m 194.40049,127.57973 c 1.13535,3.77555 2.27069,6.39307 3.40604,8.56328"
         style="opacity:1;fill:none;stroke:#000000;stroke-width:0.264583px;stroke-linecap:butt;stroke-linejoin:miter;stroke-opacity:1;stop-opacity:1" />
      <path
         style="opacity:1;fill:none;stroke:#000000;stroke-width:1.165;stroke-linecap:butt;stroke-linejoin:miter;stroke-miterlimit:4;stroke-dasharray:none;stroke-opacity:1;stop-opacity:1"
         d="m 35.114589,123.29183 c 29.163941,-0.923 58.342121,-1.40036 87.456511,-3.87417"
         id="path854"
         inkscape:connector-curvature="0"
         sodipodi:nodetypes="cc" />
      <path
         style="opacity:1;fill:none;stroke:#c7c7c7;stroke-width:0.565;stroke-linecap:butt;stroke-linejoin:miter;stroke-miterlimit:4;stroke-dasharray:none;stroke-opacity:1;stop-opacity:1"
         d="m 42.800465,111.50711 c 25.888983,-3.1373 72.793895,-2.15643 91.762655,-1.30403"
         id="path864"
         inkscape:connector-curvature="0"
         sodipodi:nodetypes="cc" />
      <path
         inkscape:connector-curvature="0"
         id="path856"
         style="opacity:1;fill:url(#linearGradient902);fill-opacity:1;stroke:#000000;stroke-width:0.999999px;stroke-linecap:butt;stroke-linejoin:miter;stroke-opacity:1;stop-opacity:1"
         d="m 123.48242,458.50195 c -19.16514,22.32283 -22.66983,61.68703 -24.261717,103.13282 h -0.01563 c 0.0023,0.0595 0.0055,0.11827 0.0078,0.17773 -0.0023,0.0595 -0.0055,0.11827 -0.0078,0.17773 h 0.01563 c 1.591887,41.44579 5.096577,80.80999 24.261717,103.13282 l 9.23438,-5.66211 v -97.26367 -0.76954 -97.26367 z"
         transform="scale(0.26458333)" />
      <path
         style="opacity:1;fill:#1f1f1f;fill-opacity:0.996078;stroke:none;stroke-width:0.264583px;stroke-linecap:butt;stroke-linejoin:miter;stroke-opacity:1;stop-opacity:1"
         d="m 133.49111,112.86702 14.79064,-1.96044 -0.65935,-0.62764 -12.8637,-0.19905 z"
         id="path904"
         inkscape:connector-curvature="0" />
      <path
         style="opacity:1;fill:#000000;fill-opacity:1;stroke:#000000;stroke-width:0.264583px;stroke-linecap:butt;stroke-linejoin:miter;stroke-opacity:1;stop-opacity:1"
         d="m 137.47659,106.7964 c 0.51846,0.92483 0.54361,1.54562 0.60602,2.18936 -0.41619,1.38048 -2.18471,0.77527 -3.32391,1.09413 l 10.06883,1.04735 v 0 c -1.32837,-0.0567 -2.60673,-1.00515 -3.12473,-1.53194 -0.37669,-0.76171 -0.74596,-1.5329 -1.04492,-2.39378 z"
         id="path860"
         inkscape:connector-curvature="0"
         sodipodi:nodetypes="cccccccc" />
      <path
         style="opacity:1;fill:#2d2d2d;fill-opacity:1;stroke:#000000;stroke-width:0.264583px;stroke-linecap:butt;stroke-linejoin:miter;stroke-opacity:1;stop-opacity:1"
         d="m 132.8526,96.716337 c 0.33985,-0.408635 2.94748,-0.190499 2.94748,-0.190499 2.98929,1.636015 5.49661,7.606372 5.83717,9.045682 0.12999,0.5494 -0.55735,1.16749 -0.97933,1.63 -1.81546,0.13321 -4.37455,-0.2338 -5.33399,-1.84592 -1.11885,-1.87997 -2.81911,-8.221083 -2.47133,-8.639263 z"
         id="path858"
         inkscape:connector-curvature="0"
         sodipodi:nodetypes="scscss" />
      <path
         sodipodi:nodetypes="ccscsc"
         inkscape:connector-curvature="0"
         id="path862"
         d="m 132.8526,96.716337 c 0.63189,-0.190286 2.37179,-0.397057 2.94748,-0.190499 2.43381,0.889549 5.49661,7.606372 5.83717,9.045682 0.12999,0.5494 -0.55735,1.16749 -0.97933,1.63 -1.81546,0.13321 -3.20595,-0.39591 -4.16539,-2.00803 -1.11885,-1.87997 -2.45133,-8.57078 -3.63993,-8.477153 z"
         style="opacity:1;fill:#c3c3c3;fill-opacity:1;stroke:#000000;stroke-width:0.264583px;stroke-linecap:butt;stroke-linejoin:miter;stroke-opacity:1;stop-opacity:1" />
      <path
         id="path849"
         style="opacity:1;fill:url(#linearGradient1092);fill-opacity:1;stroke:#000000;stroke-width:0.999999px;stroke-linecap:butt;stroke-linejoin:miter;stroke-opacity:1;stop-opacity:1"
         d="m 747.99023,539.51758 c -14.65988,-37.64765 -6.95615,-79.11535 -75.46289,-107.56446 -22.9347,-2.17606 -40.19797,-2.25658 -58.82031,-2.83984 v 131.5293 2.33984 131.5293 c 18.62234,-0.58326 35.88561,-0.66378 58.82031,-2.83984 68.50674,-28.44911 60.80301,-69.91681 75.46289,-107.56446 2.13171,-14.73036 2.27098,-29.58496 0,-44.58984 z"
         transform="scale(0.26458333)"
         inkscape:connector-curvature="0"
         sodipodi:nodetypes="ccccccccc" />
      <path
         inkscape:connector-curvature="0"
         id="path852"
         style="opacity:1;fill:url(#linearGradient939);fill-opacity:1;stroke:#000000;stroke-width:0.999999px;stroke-linecap:butt;stroke-linejoin:miter;stroke-opacity:1;stop-opacity:1"
         d="m 613.70703,429.11328 c -52.13355,1.80915 -100.63295,12.75954 -150.44531,20.4082 12.33736,46.04372 10.7168,88.79646 10.7168,112.29102 0,23.49456 1.62056,66.2473 -10.7168,112.29102 49.81236,7.64866 98.31176,18.59905 150.44531,20.4082 25.56854,-42.31903 30.70508,-87.51221 30.70508,-132.69922 0,-45.18701 -5.13654,-90.38019 -30.70508,-132.69922 z"
         transform="scale(0.26458333)" />
      <path
         sodipodi:nodetypes="czczc"
         inkscape:connector-curvature="0"
         id="path984"
         d="m 29.21346,187.38214 c -3.505604,-0.54989 -9.642875,-0.67163 -12.549293,-4.56941 -2.906419,-3.89779 -3.303988,-13.00298 -4.787157,-19.57772 0,0 3.956423,14.53445 7.447756,18.7838 3.491333,4.24935 9.89147,5.43808 9.888694,5.36333 z"
         style="opacity:1;fill:#ae1131;fill-opacity:0.996078;stroke:#000000;stroke-width:0.265;stroke-linecap:butt;stroke-linejoin:bevel;stroke-miterlimit:4;stroke-dasharray:none;stroke-opacity:1;stop-opacity:1" />
      <path
         sodipodi:nodetypes="cc"
         inkscape:connector-curvature="0"
         id="path986"
         d="m 15.132673,179.37862 c 1.058627,0.19316 1.727634,0.0213 2.496906,-0.0566"
         style="opacity:1;fill:none;stroke:#000000;stroke-width:0.264583px;stroke-linecap:round;stroke-linejoin:miter;stroke-opacity:1;stop-opacity:1" />
      <path
         sodipodi:nodetypes="cccscc"
         inkscape:connector-curvature="0"
         id="path992"
         d="m 42.745371,185.50404 c 30.217599,2.72769 61.034569,2.60304 92.013329,1.70849 l -1.26759,-2.78713 c 0,0 -13.38589,-3.58594 -49.477632,-3.02316 -36.091746,0.56278 -31.633691,0.50105 -31.633691,0.50105 -3.091058,2.14761 -6.385085,3.15175 -9.634416,3.60075 z"
         style="opacity:1;fill:#727272;fill-opacity:1;stroke:#000000;stroke-width:0.264583px;stroke-linecap:butt;stroke-linejoin:miter;stroke-opacity:1;stop-opacity:1" />
      <path
         sodipodi:nodetypes="ccccc"
         inkscape:connector-curvature="0"
         id="path994"
         d="m 90.153976,187.7328 c -3.065614,-1.70241 -4.851325,-3.92577 -6.166017,-6.34084 l -5.12187,0.0824 c 1.070265,2.10154 1.178141,4.41931 3.692715,6.19634 z"
         style="opacity:1;fill:#000000;fill-opacity:0.996078;stroke:none;stroke-width:0.265;stroke-linecap:butt;stroke-linejoin:miter;stroke-miterlimit:4;stroke-dasharray:none;stroke-opacity:1;stop-opacity:1" />
      <path
         sodipodi:nodetypes="csssssssc"
         inkscape:connector-curvature="0"
         id="path996"
         d="m 81.269002,191.16221 c 0.01839,-0.11877 -0.308029,-0.33137 -0.129182,-0.79666 0.128669,-0.33475 2.006342,-1.72495 1.946151,-2.42716 -0.09164,-1.06907 -3.590954,-5.27682 -4.267155,-6.75466 -0.09687,-0.21172 -0.07561,-0.379 1.378151,-1.09719 0.840881,-0.41541 20.157533,-0.10955 30.610593,0.30642 5.39967,0.21487 25.23875,1.95621 36.92966,5.26782 1.43646,0.4069 0.20515,0.97903 -0.53514,2.08035 -0.33328,0.49583 -1.50494,1.67657 -0.83107,2.43333"
         style="opacity:1;fill:none;stroke:#000000;stroke-width:0.264583px;stroke-linecap:butt;stroke-linejoin:miter;stroke-opacity:1;stop-opacity:1" />
      <path
         sodipodi:nodetypes="cccsc"
         inkscape:connector-curvature="0"
         id="path998"
         d="m 173.69179,186.62374 c 2.53034,-1.32013 3.31261,-2.46168 4.24751,-3.61882 7.04688,-2.69005 11.99823,-7.43925 16.46119,-13.29223 0.50402,-0.11348 -4.52443,11.51507 -7.85346,13.79702 -3.74957,2.57022 -12.85524,3.11403 -12.85524,3.11403 z"
         style="opacity:1;fill:url(#linearGradient1030);fill-opacity:1;stroke:#000000;stroke-width:0.264583px;stroke-linecap:butt;stroke-linejoin:miter;stroke-opacity:1;stop-opacity:1" />
      <path
         sodipodi:nodetypes="cccc"
         inkscape:connector-curvature="0"
         d="m 173.69172,186.62372 c 0.58196,-0.30362 1.06814,-0.59761 1.48828,-0.8847 6.13818,0.0279 8.85198,-1.23658 11.36727,-2.22932 -1.5418,1.75691 -6.86994,2.94565 -12.85555,3.11402 z"
         style="opacity:1;fill:#cd5d16;fill-opacity:0.996078;stroke:#000000;stroke-width:0.264583px;stroke-linecap:butt;stroke-linejoin:miter;stroke-opacity:1;stop-opacity:1"
         id="path1000" />
      <path
         style="opacity:1;fill:none;stroke:#000000;stroke-width:0.264583px;stroke-linecap:butt;stroke-linejoin:miter;stroke-opacity:1;stop-opacity:1"
         d="m 194.40049,169.71269 c 1.13535,-3.77555 2.27069,-6.39307 3.40604,-8.56328"
         id="path1002"
         inkscape:connector-curvature="0"
         sodipodi:nodetypes="cc" />
      <path
         sodipodi:nodetypes="cc"
         inkscape:connector-curvature="0"
         id="path1004"
         d="m 35.114589,174.00059 c 29.163941,0.923 58.342121,1.40036 87.456511,3.87417"
         style="opacity:1;fill:none;stroke:#000000;stroke-width:1.165;stroke-linecap:butt;stroke-linejoin:miter;stroke-miterlimit:4;stroke-dasharray:none;stroke-opacity:1;stop-opacity:1" />
      <path
         sodipodi:nodetypes="cc"
         inkscape:connector-curvature="0"
         id="path1006"
         d="m 42.800465,185.78531 c 25.888983,3.1373 72.793895,2.15643 91.762655,1.30403"
         style="opacity:1;fill:none;stroke:#c7c7c7;stroke-width:0.565;stroke-linecap:butt;stroke-linejoin:miter;stroke-miterlimit:4;stroke-dasharray:none;stroke-opacity:1;stop-opacity:1" />
      <path
         inkscape:connector-curvature="0"
         id="path1010"
         d="m 133.49111,184.4254 14.79064,1.96044 -0.65935,0.62764 -12.8637,0.19905 z"
         style="opacity:1;fill:#1f1f1f;fill-opacity:0.996078;stroke:none;stroke-width:0.264583px;stroke-linecap:butt;stroke-linejoin:miter;stroke-opacity:1;stop-opacity:1" />
      <path
         sodipodi:nodetypes="cccccccc"
         inkscape:connector-curvature="0"
         id="path1012"
         d="m 137.47659,190.49602 c 0.51846,-0.92483 0.54361,-1.54562 0.60602,-2.18936 -0.41619,-1.38048 -2.18471,-0.77527 -3.32391,-1.09413 l 10.06883,-1.04735 v 0 c -1.32837,0.0567 -2.60673,1.00515 -3.12473,1.53194 -0.37669,0.76171 -0.74596,1.5329 -1.04492,2.39378 z"
         style="opacity:1;fill:#000000;fill-opacity:1;stroke:#000000;stroke-width:0.264583px;stroke-linecap:butt;stroke-linejoin:miter;stroke-opacity:1;stop-opacity:1" />
      <path
         sodipodi:nodetypes="scscss"
         inkscape:connector-curvature="0"
         id="path1014"
         d="m 132.8526,200.57608 c 0.33985,0.40864 2.94748,0.1905 2.94748,0.1905 2.98929,-1.63601 5.49661,-7.60637 5.83717,-9.04568 0.12999,-0.5494 -0.55735,-1.16749 -0.97933,-1.63 -1.81546,-0.13321 -4.37455,0.2338 -5.33399,1.84592 -1.11885,1.87997 -2.81911,8.22108 -2.47133,8.63926 z"
         style="opacity:1;fill:#2d2d2d;fill-opacity:1;stroke:#000000;stroke-width:0.264583px;stroke-linecap:butt;stroke-linejoin:miter;stroke-opacity:1;stop-opacity:1" />
      <path
         style="opacity:1;fill:#c3c3c3;fill-opacity:1;stroke:#000000;stroke-width:0.264583px;stroke-linecap:butt;stroke-linejoin:miter;stroke-opacity:1;stop-opacity:1"
         d="m 132.8526,200.57608 c 0.63189,0.19029 2.37179,0.39706 2.94748,0.1905 2.43381,-0.88955 5.49661,-7.60637 5.83717,-9.04568 0.12999,-0.5494 -0.55735,-1.16749 -0.97933,-1.63 -1.81546,-0.13321 -3.20595,0.39591 -4.16539,2.00803 -1.11885,1.87997 -2.45133,8.57078 -3.63993,8.47715 z"
         id="path1016"
         inkscape:connector-curvature="0"
         sodipodi:nodetypes="ccscsc" />
    </g>
  </g>
</svg>
