<?xml version="1.0" encoding="UTF-8" standalone="no"?>
<svg
   xmlns:dc="http://purl.org/dc/elements/1.1/"
   xmlns:cc="http://creativecommons.org/ns#"
   xmlns:rdf="http://www.w3.org/1999/02/22-rdf-syntax-ns#"
   xmlns:svg="http://www.w3.org/2000/svg"
   xmlns="http://www.w3.org/2000/svg"
   xmlns:sodipodi="http://sodipodi.sourceforge.net/DTD/sodipodi-0.dtd"
   xmlns:inkscape="http://www.inkscape.org/namespaces/inkscape"
   inkscape:export-ydpi="73.922943"
   inkscape:export-xdpi="73.922943"
   inkscape:export-filename="/home/christian-nils/Chalmers/Thesis/Ph.D./presentations/test/phd-presentation/src/assets/png/car_bg.png"
   sodipodi:docname="car_bg.svg"
   inkscape:version="1.0beta1 (fe3e306, 2019-09-17)"
   id="svg8"
   version="1.1"
   viewBox="0 0 85.900261 81.958412"
   height="81.958412mm"
   width="85.900261mm">
  <defs
     id="defs2" />
  <sodipodi:namedview
     inkscape:snap-intersection-paths="true"
     inkscape:window-maximized="1"
     inkscape:window-y="27"
     inkscape:window-x="67"
     inkscape:window-height="1023"
     inkscape:window-width="1853"
     showgrid="false"
     inkscape:document-rotation="0"
     inkscape:current-layer="layer1"
     inkscape:document-units="mm"
     inkscape:cy="177.67292"
     inkscape:cx="165.86231"
     inkscape:zoom="0.70710678"
     inkscape:pageshadow="2"
     inkscape:pageopacity="0.0"
     borderopacity="1.0"
     bordercolor="#666666"
     pagecolor="#ffffff"
     id="base" />
  <metadata
     id="metadata5">
    <rdf:RDF>
      <cc:Work
         rdf:about="">
        <dc:format>image/svg+xml</dc:format>
        <dc:type
           rdf:resource="http://purl.org/dc/dcmitype/StillImage" />
        <dc:title></dc:title>
      </cc:Work>
    </rdf:RDF>
  </metadata>
  <g
     transform="translate(-46.921394,-4.3317165)"
     id="layer1"
     inkscape:groupmode="layer"
     inkscape:label="Layer 1">
    <rect
       y="4.3317165"
       x="46.921394"
       height="81.958412"
       width="85.900261"
       id="rect1250"
       style="fill:#ffffff;fill-opacity:0.99607801;stroke:none;stroke-width:0.264999;stroke-linecap:round;stroke-linejoin:bevel;stroke-miterlimit:4;stroke-dasharray:none" />
    <g
       style="fill:#eaeaea;fill-opacity:0.99607801"
       transform="translate(0,4.0372213e-6)"
       id="g1079">
      <path
         inkscape:connector-curvature="0"
         id="path833"
         style="opacity:1;fill:#eaeaea;fill-opacity:0.99607801;stroke:none;stroke-width:0.149062;stroke-linecap:butt;stroke-linejoin:bevel;stroke-miterlimit:4;stroke-dasharray:none;stroke-opacity:1;stop-opacity:1"
         d="m 55.913932,12.668146 c -0.455864,0.0028 -1.007379,0.08144 -1.527522,0.352305 -0.434852,0.226446 -0.759978,0.691413 -0.93221,1.168533 -0.169981,0.470884 -0.128773,1.467642 -0.128773,1.467642 h 0.432532 a 0.7527291,0.7527291 0 0 0 -0.002,0.0529 0.7527291,0.7527291 0 0 0 0.752861,0.752862 0.7527291,0.7527291 0 0 0 0.752571,-0.752862 0.7527291,0.7527291 0 0 0 -0.0017,-0.0529 h 3.18062 a 0.7527291,0.7527291 0 0 0 -0.0017,0.0529 0.7527291,0.7527291 0 0 0 0.752569,0.752862 0.7527291,0.7527291 0 0 0 0.752863,-0.752862 0.7527291,0.7527291 0 0 0 -0.002,-0.0529 h 1.071156 c 0,0 -0.08645,-0.702279 -0.292133,-0.987438 -0.387536,-0.537275 -1.186378,-0.335825 -1.593797,-0.694436 -0.433755,-0.381788 -0.925589,-0.938194 -2.198996,-1.188298 0,0 -0.42807,-0.121892 -1.014181,-0.118308 z m 1.06011,0.494737 c 0.818817,0.04956 1.272029,0.423704 1.577811,0.928723 h -1.577811 z" />
      <path
         d="m 80.866581,13.312121 c -0.0028,-0.455865 -0.08144,-1.00738 -0.352305,-1.527523 -0.226446,-0.434852 -0.691413,-0.759977 -1.168533,-0.93221 -0.470884,-0.169981 -1.467642,-0.128772 -1.467642,-0.128772 v 0.432531 a 0.7527291,0.7527291 0 0 0 -0.0529,-0.002 0.7527291,0.7527291 0 0 0 -0.752862,0.752861 0.7527291,0.7527291 0 0 0 0.752862,0.752571 0.7527291,0.7527291 0 0 0 0.0529,-0.0017 v 3.18062 a 0.7527291,0.7527291 0 0 0 -0.0529,-0.0017 0.7527291,0.7527291 0 0 0 -0.752862,0.752569 0.7527291,0.7527291 0 0 0 0.752862,0.752862 0.7527291,0.7527291 0 0 0 0.0529,-0.002 v 1.071157 c 0,0 0.702279,-0.08645 0.987438,-0.292133 0.537275,-0.387537 0.335825,-1.186378 0.694436,-1.593798 0.381788,-0.433755 0.938194,-0.925589 1.188298,-2.198996 0,0 0.121892,-0.428069 0.118308,-1.01418 z m -0.494737,1.06011 c -0.04955,0.818816 -0.423704,1.272028 -0.928723,1.57781 v -1.57781 z"
         style="opacity:1;fill:#eaeaea;fill-opacity:0.99607801;stroke:none;stroke-width:0.149062;stroke-linecap:butt;stroke-linejoin:bevel;stroke-miterlimit:4;stroke-dasharray:none;stroke-opacity:1;stop-opacity:1"
         id="path845"
         inkscape:connector-curvature="0" />
      <path
         id="path847"
         style="opacity:1;fill:#eaeaea;fill-opacity:0.99607801;stroke:none;stroke-width:0.149062;stroke-linecap:butt;stroke-linejoin:bevel;stroke-miterlimit:4;stroke-dasharray:none;stroke-opacity:1;stop-opacity:1"
         d="m 102.02489,16.462315 c 0.45586,-0.0029 1.00737,-0.08145 1.52752,-0.352305 0.43485,-0.226446 0.75998,-0.691414 0.93221,-1.168538 0.16998,-0.47088 0.12877,-1.46764 0.12877,-1.46764 h -0.43253 a 0.7527291,0.7527291 0 0 0 0.002,-0.05291 0.7527291,0.7527291 0 0 0 -0.75286,-0.752862 0.7527291,0.7527291 0 0 0 -0.75257,0.752862 0.7527291,0.7527291 0 0 0 0.002,0.05291 h -3.180624 a 0.7527291,0.7527291 0 0 0 0.0017,-0.05291 0.7527291,0.7527291 0 0 0 -0.752569,-0.752862 0.7527291,0.7527291 0 0 0 -0.752861,0.752862 0.7527291,0.7527291 0 0 0 0.0023,0.05291 h -1.071158 c 0,0 0.08645,0.70228 0.292135,0.987439 0.387534,0.537273 1.186374,0.335824 1.593799,0.694435 0.433755,0.381785 0.925588,0.938194 2.198998,1.188298 0,0 0.42807,0.121894 1.01418,0.118311 z m -1.06011,-0.494741 c -0.81882,-0.04956 -1.27203,-0.423704 -1.577817,-0.928722 h 1.577817 z"
         inkscape:connector-curvature="0" />
      <path
         d="m 120.67735,15.818175 c 0.003,0.455868 0.0814,1.007382 0.35229,1.527525 0.22646,0.434853 0.69142,0.759978 1.16854,0.932209 0.47088,0.169982 1.46765,0.128774 1.46765,0.128774 v -0.432535 a 0.7527291,0.7527291 0 0 0 0.0529,0.0023 0.7527291,0.7527291 0 0 0 0.75286,-0.752861 0.7527291,0.7527291 0 0 0 -0.75286,-0.752569 0.7527291,0.7527291 0 0 0 -0.0529,0.0017 v -3.180617 a 0.7527291,0.7527291 0 0 0 0.0529,0.0016 0.7527291,0.7527291 0 0 0 0.75286,-0.752574 0.7527291,0.7527291 0 0 0 -0.75286,-0.752862 0.7527291,0.7527291 0 0 0 -0.0529,0.0023 v -1.071157 c 0,0 -0.70229,0.08645 -0.98745,0.292135 -0.53727,0.387534 -0.33582,1.186374 -0.69443,1.593798 -0.38179,0.433755 -0.9382,0.925588 -1.1883,2.198993 0,0 -0.12189,0.428074 -0.1183,1.014181 z m 0.49473,-1.06011 c 0.0496,-0.818814 0.42371,-1.272026 0.92872,-1.577806 v 1.577806 z"
         style="opacity:1;fill:#eaeaea;fill-opacity:0.99607801;stroke:none;stroke-width:0.149062;stroke-linecap:butt;stroke-linejoin:bevel;stroke-miterlimit:4;stroke-dasharray:none;stroke-opacity:1;stop-opacity:1"
         id="path849"
         inkscape:connector-curvature="0" />
      <path
         inkscape:connector-curvature="0"
         d="m 59.064125,33.804997 c -0.0028,-0.455864 -0.08144,-1.007379 -0.352305,-1.527522 -0.226446,-0.434852 -0.691413,-0.759978 -1.168533,-0.93221 -0.470884,-0.169981 -1.467642,-0.128773 -1.467642,-0.128773 v 0.432532 a 0.7527291,0.7527291 0 0 0 -0.05291,-0.002 0.7527291,0.7527291 0 0 0 -0.752862,0.752861 0.7527291,0.7527291 0 0 0 0.752862,0.752571 0.7527291,0.7527291 0 0 0 0.05291,-0.0017 v 3.18062 a 0.7527291,0.7527291 0 0 0 -0.05291,-0.0017 0.7527291,0.7527291 0 0 0 -0.752862,0.752569 0.7527291,0.7527291 0 0 0 0.752862,0.752863 0.7527291,0.7527291 0 0 0 0.05291,-0.002 v 1.071156 c 0,0 0.702279,-0.08645 0.987438,-0.292133 0.537275,-0.387536 0.335825,-1.186378 0.694436,-1.593797 0.381788,-0.433755 0.938194,-0.925589 1.188298,-2.198996 0,0 0.121892,-0.42807 0.118308,-1.014181 z m -0.494737,1.06011 c -0.04955,0.818817 -0.423704,1.272029 -0.928723,1.577811 v -1.577811 z"
         style="opacity:1;fill:#eaeaea;fill-opacity:0.99607801;stroke:none;stroke-width:0.149062;stroke-linecap:butt;stroke-linejoin:bevel;stroke-miterlimit:4;stroke-dasharray:none;stroke-opacity:1;stop-opacity:1"
         id="path859" />
      <path
         inkscape:connector-curvature="0"
         id="path861"
         style="opacity:1;fill:#eaeaea;fill-opacity:0.99607801;stroke:none;stroke-width:0.149062;stroke-linecap:butt;stroke-linejoin:bevel;stroke-miterlimit:4;stroke-dasharray:none;stroke-opacity:1;stop-opacity:1"
         d="m 80.222606,36.95519 c 0.455865,-0.0029 1.00738,-0.08144 1.527523,-0.352305 0.434852,-0.226446 0.759977,-0.691413 0.93221,-1.168533 0.169981,-0.470884 0.128772,-1.467642 0.128772,-1.467642 H 82.37858 a 0.7527291,0.7527291 0 0 0 0.002,-0.0529 0.7527291,0.7527291 0 0 0 -0.752861,-0.752862 0.7527291,0.7527291 0 0 0 -0.752571,0.752862 0.7527291,0.7527291 0 0 0 0.0017,0.0529 h -3.18062 a 0.7527291,0.7527291 0 0 0 0.0017,-0.0529 0.7527291,0.7527291 0 0 0 -0.752569,-0.752862 0.7527291,0.7527291 0 0 0 -0.752862,0.752862 0.7527291,0.7527291 0 0 0 0.002,0.0529 H 75.12344 c 0,0 0.08645,0.702279 0.292133,0.987438 0.387537,0.537275 1.186378,0.335825 1.593798,0.694436 0.433755,0.381788 0.925589,0.938194 2.198996,1.188298 0,0 0.428069,0.121892 1.01418,0.118308 z m -1.06011,-0.494737 c -0.818816,-0.04956 -1.272028,-0.423704 -1.57781,-0.928723 h 1.57781 z" />
      <path
         inkscape:connector-curvature="0"
         d="m 98.874868,36.311051 c 0.0028,0.455866 0.08144,1.007381 0.352305,1.527525 0.226446,0.434851 0.691414,0.759976 1.168537,0.932209 0.47088,0.169981 1.46764,0.128772 1.46764,0.128772 v -0.432534 a 0.7527291,0.7527291 0 0 0 0.0529,0.0022 0.7527291,0.7527291 0 0 0 0.75286,-0.752856 0.7527291,0.7527291 0 0 0 -0.75286,-0.752574 0.7527291,0.7527291 0 0 0 -0.0529,0.0017 v -3.180619 a 0.7527291,0.7527291 0 0 0 0.0529,0.0016 0.7527291,0.7527291 0 0 0 0.75286,-0.752569 0.7527291,0.7527291 0 0 0 -0.75286,-0.752861 0.7527291,0.7527291 0 0 0 -0.0529,0.0023 v -1.071083 c 0,0 -0.70228,0.08645 -0.98744,0.292135 -0.53727,0.387534 -0.33582,1.186374 -0.69443,1.593799 -0.381789,0.433755 -0.938197,0.925588 -1.188301,2.198995 0,0 -0.121894,0.428067 -0.118311,1.014176 z m 0.494741,-1.060105 c 0.04956,-0.818822 0.423704,-1.272028 0.928721,-1.577815 v 1.577815 z"
         style="opacity:1;fill:#eaeaea;fill-opacity:0.99607801;stroke:none;stroke-width:0.149062;stroke-linecap:butt;stroke-linejoin:bevel;stroke-miterlimit:4;stroke-dasharray:none;stroke-opacity:1;stop-opacity:1"
         id="path863" />
      <path
         inkscape:connector-curvature="0"
         id="path865"
         style="opacity:1;fill:#eaeaea;fill-opacity:0.99607801;stroke:none;stroke-width:0.149062;stroke-linecap:butt;stroke-linejoin:bevel;stroke-miterlimit:4;stroke-dasharray:none;stroke-opacity:1;stop-opacity:1"
         d="m 121.32153,33.161038 c -0.45586,0.0028 -1.00738,0.08144 -1.52752,0.3523 -0.43485,0.226451 -0.75998,0.691414 -0.93221,1.168537 -0.16998,0.47088 -0.12877,1.467642 -0.12877,1.467642 h 0.43253 a 0.7527291,0.7527291 0 0 0 -0.002,0.05288 0.7527291,0.7527291 0 0 0 0.75286,0.752861 0.7527291,0.7527291 0 0 0 0.75257,-0.752861 0.7527291,0.7527291 0 0 0 -10e-4,-0.05288 h 3.18062 a 0.7527291,0.7527291 0 0 0 -10e-4,0.05288 0.7527291,0.7527291 0 0 0 0.75257,0.752861 0.7527291,0.7527291 0 0 0 0.75286,-0.752861 0.7527291,0.7527291 0 0 0 -0.002,-0.05288 h 1.07116 c 0,0 -0.0864,-0.702282 -0.29213,-0.987441 -0.38754,-0.537272 -1.18638,-0.335824 -1.5938,-0.694434 -0.43375,-0.381786 -0.92559,-0.938194 -2.19899,-1.188299 0,0 -0.42808,-0.121894 -1.01419,-0.118305 z m 1.06011,0.494736 c 0.81882,0.04955 1.27203,0.423703 1.57781,0.928721 h -1.57781 z" />
      <path
         id="path869"
         style="opacity:1;fill:#eaeaea;fill-opacity:0.99607801;stroke:none;stroke-width:0.149062;stroke-linecap:butt;stroke-linejoin:bevel;stroke-miterlimit:4;stroke-dasharray:none;stroke-opacity:1;stop-opacity:1"
         d="m 58.420151,57.448061 c 0.455864,-0.0028 1.007379,-0.08144 1.527522,-0.352305 0.434852,-0.226446 0.759978,-0.691413 0.93221,-1.168533 0.169981,-0.470884 0.128773,-1.467642 0.128773,-1.467642 h -0.432532 a 0.7527291,0.7527291 0 0 0 0.002,-0.05291 0.7527291,0.7527291 0 0 0 -0.752861,-0.752862 0.7527291,0.7527291 0 0 0 -0.752571,0.752862 0.7527291,0.7527291 0 0 0 0.0017,0.05291 h -3.18062 a 0.7527291,0.7527291 0 0 0 0.0017,-0.05291 0.7527291,0.7527291 0 0 0 -0.752569,-0.752862 0.7527291,0.7527291 0 0 0 -0.752863,0.752862 0.7527291,0.7527291 0 0 0 0.002,0.05291 h -1.071156 c 0,0 0.08645,0.702279 0.292133,0.987438 0.387536,0.537275 1.186378,0.335825 1.593797,0.694436 0.433755,0.381788 0.925589,0.938194 2.198996,1.188298 0,0 0.42807,0.121892 1.014181,0.118308 z m -1.06011,-0.494737 C 56.541224,56.903771 56.088012,56.52962 55.78223,56.024601 h 1.577811 z"
         inkscape:connector-curvature="0" />
      <path
         d="m 77.072414,56.804086 c 0.0029,0.455865 0.08144,1.00738 0.352305,1.527523 0.226446,0.434852 0.691413,0.759977 1.168533,0.93221 0.470884,0.169981 1.467642,0.128772 1.467642,0.128772 V 58.96006 a 0.7527291,0.7527291 0 0 0 0.0529,0.002 0.7527291,0.7527291 0 0 0 0.752862,-0.752861 0.7527291,0.7527291 0 0 0 -0.752862,-0.752571 0.7527291,0.7527291 0 0 0 -0.0529,0.0017 v -3.18062 a 0.7527291,0.7527291 0 0 0 0.0529,0.0017 0.7527291,0.7527291 0 0 0 0.752862,-0.752569 0.7527291,0.7527291 0 0 0 -0.752862,-0.752862 0.7527291,0.7527291 0 0 0 -0.0529,0.002 V 51.70482 c 0,0 -0.702279,0.08645 -0.987438,0.292133 -0.537275,0.387537 -0.335825,1.186378 -0.694436,1.593798 -0.381788,0.433755 -0.938194,0.925589 -1.188298,2.198996 0,0 -0.121892,0.428069 -0.118308,1.01418 z m 0.494737,-1.06011 c 0.04956,-0.818816 0.423704,-1.272028 0.928723,-1.57781 v 1.57781 z"
         style="opacity:1;fill:#eaeaea;fill-opacity:0.99607801;stroke:none;stroke-width:0.149062;stroke-linecap:butt;stroke-linejoin:bevel;stroke-miterlimit:4;stroke-dasharray:none;stroke-opacity:1;stop-opacity:1"
         id="path871"
         inkscape:connector-curvature="0" />
      <path
         id="path873"
         style="opacity:1;fill:#eaeaea;fill-opacity:0.99607801;stroke:none;stroke-width:0.149062;stroke-linecap:butt;stroke-linejoin:bevel;stroke-miterlimit:4;stroke-dasharray:none;stroke-opacity:1;stop-opacity:1"
         d="m 99.519022,53.653906 c -0.455867,0.0028 -1.007381,0.08145 -1.527525,0.352305 -0.434852,0.226446 -0.759977,0.691414 -0.932209,1.168539 -0.169981,0.47088 -0.128773,1.467642 -0.128773,1.467642 h 0.432534 a 0.7527291,0.7527291 0 0 0 -0.0023,0.05288 0.7527291,0.7527291 0 0 0 0.752856,0.752861 0.7527291,0.7527291 0 0 0 0.752574,-0.752861 0.7527291,0.7527291 0 0 0 -0.0017,-0.05288 h 3.180631 a 0.7527291,0.7527291 0 0 0 -0.002,0.05288 0.7527291,0.7527291 0 0 0 0.75256,0.752861 0.7527291,0.7527291 0 0 0 0.75287,-0.752861 0.7527291,0.7527291 0 0 0 -0.002,-0.05288 h 1.07116 c 0,0 -0.0865,-0.702282 -0.29214,-0.987441 -0.38754,-0.537272 -1.18638,-0.335824 -1.5938,-0.694436 -0.43375,-0.381785 -0.92559,-0.938194 -2.199,-1.188298 0,0 -0.42806,-0.121893 -1.014178,-0.118311 z m 1.060108,0.494742 c 0.81882,0.04955 1.27203,0.423703 1.57782,0.928721 h -1.57782 z"
         inkscape:connector-curvature="0" />
      <path
         d="m 124.47149,54.29802 c -0.003,-0.455867 -0.0814,-1.007381 -0.35229,-1.527525 -0.22646,-0.434852 -0.69142,-0.759977 -1.16854,-0.932209 -0.47088,-0.169982 -1.46765,-0.128773 -1.46765,-0.128773 v 0.432535 a 0.7527291,0.7527291 0 0 0 -0.0529,-0.0022 0.7527291,0.7527291 0 0 0 -0.75286,0.752861 0.7527291,0.7527291 0 0 0 0.75286,0.752569 0.7527291,0.7527291 0 0 0 0.0529,-0.0017 v 3.180616 a 0.7527291,0.7527291 0 0 0 -0.0529,-0.0017 0.7527291,0.7527291 0 0 0 -0.75286,0.752575 0.7527291,0.7527291 0 0 0 0.75286,0.752861 0.7527291,0.7527291 0 0 0 0.0529,-0.0023 v 1.071158 c 0,0 0.70229,-0.08645 0.98745,-0.292135 0.53727,-0.387534 0.33582,-1.186374 0.69443,-1.593799 0.38179,-0.433755 0.9382,-0.925588 1.1883,-2.198992 0,0 0.12189,-0.428074 0.1183,-1.014182 z m -0.49473,1.06011 c -0.0496,0.818814 -0.42371,1.272026 -0.92872,1.577807 V 55.35813 Z"
         style="opacity:1;fill:#eaeaea;fill-opacity:0.99607801;stroke:none;stroke-width:0.149062;stroke-linecap:butt;stroke-linejoin:bevel;stroke-miterlimit:4;stroke-dasharray:none;stroke-opacity:1;stop-opacity:1"
         id="path875"
         inkscape:connector-curvature="0" />
      <path
         inkscape:connector-curvature="0"
         d="m 55.269958,77.296726 c 0.0028,0.455865 0.08144,1.00738 0.352305,1.527525 0.226446,0.434849 0.691413,0.759974 1.168533,0.932212 0.470884,0.16998 1.467642,0.128767 1.467642,0.128767 v -0.432532 a 0.7527291,0.7527291 0 0 0 0.05291,0.0022 0.7527291,0.7527291 0 0 0 0.752862,-0.752861 0.7527291,0.7527291 0 0 0 -0.752862,-0.75257 0.7527291,0.7527291 0 0 0 -0.05291,0.0017 v -3.180619 a 0.7527291,0.7527291 0 0 0 0.05291,0.0017 0.7527291,0.7527291 0 0 0 0.752862,-0.75257 0.7527291,0.7527291 0 0 0 -0.752862,-0.752861 0.7527291,0.7527291 0 0 0 -0.05291,0.0023 V 72.19796 c 0,0 -0.702279,0.08644 -0.987438,0.292134 -0.537275,0.387535 -0.335825,1.186375 -0.694436,1.593796 -0.381788,0.433755 -0.938194,0.925589 -1.188298,2.198995 0,0 -0.121892,0.42807 -0.118308,1.014182 z m 0.494737,-1.06011 c 0.04955,-0.818816 0.423704,-1.272029 0.928723,-1.57781 v 1.57781 z"
         style="opacity:1;fill:#eaeaea;fill-opacity:0.99607801;stroke:none;stroke-width:0.149062;stroke-linecap:butt;stroke-linejoin:bevel;stroke-miterlimit:4;stroke-dasharray:none;stroke-opacity:1;stop-opacity:1"
         id="path879" />
      <path
         inkscape:connector-curvature="0"
         id="path881"
         style="opacity:1;fill:#eaeaea;fill-opacity:0.99607801;stroke:none;stroke-width:0.149062;stroke-linecap:butt;stroke-linejoin:bevel;stroke-miterlimit:4;stroke-dasharray:none;stroke-opacity:1;stop-opacity:1"
         d="m 77.716615,74.146761 c -0.455866,0.0028 -1.007381,0.08144 -1.527524,0.352305 -0.434852,0.226446 -0.759977,0.691413 -0.932209,1.168533 -0.169982,0.470884 -0.128773,1.467642 -0.128773,1.467642 h 0.432534 a 0.7527291,0.7527291 0 0 0 -0.0023,0.0529 0.7527291,0.7527291 0 0 0 0.752861,0.752862 0.7527291,0.7527291 0 0 0 0.752569,-0.752862 0.7527291,0.7527291 0 0 0 -0.0017,-0.0529 h 3.18062 a 0.7527291,0.7527291 0 0 0 -0.0017,0.0529 0.7527291,0.7527291 0 0 0 0.752569,0.752862 0.7527291,0.7527291 0 0 0 0.752861,-0.752862 0.7527291,0.7527291 0 0 0 -0.0022,-0.0529 h 1.071157 c 0,0 -0.08645,-0.702279 -0.292134,-0.987438 -0.387535,-0.537275 -1.186375,-0.335825 -1.593796,-0.694436 -0.433755,-0.381788 -0.925589,-0.938194 -2.198996,-1.188298 0,0 -0.42807,-0.121892 -1.014181,-0.118308 z m 1.06011,0.494737 c 0.818816,0.04955 1.272028,0.423704 1.57781,0.928723 h -1.57781 z" />
      <path
         inkscape:connector-curvature="0"
         d="m 102.66901,74.7909 c -0.003,-0.455868 -0.0815,-1.007382 -0.3523,-1.527526 -0.22645,-0.434852 -0.69142,-0.759977 -1.16854,-0.932209 -0.47088,-0.169981 -1.467643,-0.128773 -1.467643,-0.128773 v 0.432534 a 0.7527291,0.7527291 0 0 0 -0.05288,-0.0023 0.7527291,0.7527291 0 0 0 -0.752861,0.752856 0.7527291,0.7527291 0 0 0 0.752861,0.752575 0.7527291,0.7527291 0 0 0 0.05288,-0.0017 v 3.18062 a 0.7527291,0.7527291 0 0 0 -0.05288,-0.0016 0.7527291,0.7527291 0 0 0 -0.752861,0.752569 0.7527291,0.7527291 0 0 0 0.752861,0.75286 0.7527291,0.7527291 0 0 0 0.05288,-0.0023 v 1.071161 c 0,0 0.702283,-0.08645 0.987443,-0.29214 0.53727,-0.387532 0.33582,-1.186372 0.69443,-1.593796 0.38179,-0.433755 0.9382,-0.925587 1.1883,-2.198997 0,0 0.12189,-0.428067 0.11831,-1.014174 z m -0.49474,1.060101 c -0.0496,0.818826 -0.42371,1.272033 -0.92872,1.577819 v -1.577819 z"
         style="opacity:1;fill:#eaeaea;fill-opacity:0.99607801;stroke:none;stroke-width:0.149062;stroke-linecap:butt;stroke-linejoin:bevel;stroke-miterlimit:4;stroke-dasharray:none;stroke-opacity:1;stop-opacity:1"
         id="path883" />
      <path
         inkscape:connector-curvature="0"
         id="path885"
         style="opacity:1;fill:#eaeaea;fill-opacity:0.99607801;stroke:none;stroke-width:0.149062;stroke-linecap:butt;stroke-linejoin:bevel;stroke-miterlimit:4;stroke-dasharray:none;stroke-opacity:1;stop-opacity:1"
         d="m 123.82731,77.940911 c 0.45586,-0.0029 1.00738,-0.08145 1.52752,-0.3523 0.43485,-0.226451 0.75998,-0.691414 0.93221,-1.168537 0.16998,-0.47088 0.12877,-1.467642 0.12877,-1.467642 h -0.43253 a 0.7527291,0.7527291 0 0 0 0.002,-0.05287 0.7527291,0.7527291 0 0 0 -0.75286,-0.752861 0.7527291,0.7527291 0 0 0 -0.75257,0.752861 0.7527291,0.7527291 0 0 0 0.002,0.05287 h -3.18062 a 0.7527291,0.7527291 0 0 0 0.002,-0.05287 0.7527291,0.7527291 0 0 0 -0.75257,-0.752861 0.7527291,0.7527291 0 0 0 -0.75286,0.752861 0.7527291,0.7527291 0 0 0 0.002,0.05287 h -1.07116 c 0,0 0.0864,0.702282 0.29213,0.987441 0.38754,0.537272 1.18638,0.335824 1.5938,0.694434 0.43375,0.381786 0.92559,0.938194 2.19899,1.188299 0,0 0.42808,0.121894 1.01419,0.118305 z m -1.06011,-0.494736 c -0.81882,-0.04955 -1.27203,-0.423703 -1.57781,-0.928721 h 1.57781 z" />
    </g>
  </g>
</svg>
