<?xml version="1.0" encoding="UTF-8" standalone="no"?>
<svg
   xmlns:dc="http://purl.org/dc/elements/1.1/"
   xmlns:cc="http://creativecommons.org/ns#"
   xmlns:rdf="http://www.w3.org/1999/02/22-rdf-syntax-ns#"
   xmlns:svg="http://www.w3.org/2000/svg"
   xmlns="http://www.w3.org/2000/svg"
   xmlns:sodipodi="http://sodipodi.sourceforge.net/DTD/sodipodi-0.dtd"
   xmlns:inkscape="http://www.inkscape.org/namespaces/inkscape"
   viewBox="0 0 306.69343 37.428882"
   version="1.2"
   id="svg297"
   sodipodi:docname="chalmers_logo.svg"
   inkscape:version="1.0beta1 (fe3e306, 2019-09-17)">
  <metadata
     id="metadata301">
    <rdf:RDF>
      <cc:Work
         rdf:about="">
        <dc:format>image/svg+xml</dc:format>
        <dc:type
           rdf:resource="http://purl.org/dc/dcmitype/StillImage" />
        <dc:title></dc:title>
      </cc:Work>
    </rdf:RDF>
  </metadata>
  <sodipodi:namedview
     pagecolor="#ffffff"
     bordercolor="#666666"
     borderopacity="1"
     objecttolerance="10"
     gridtolerance="10"
     guidetolerance="10"
     inkscape:pageopacity="0"
     inkscape:pageshadow="2"
     inkscape:window-width="1853"
     inkscape:window-height="1023"
     id="namedview299"
     showgrid="false"
     inkscape:zoom="1.979899"
     inkscape:cx="268.75711"
     inkscape:cy="9.5087352"
     inkscape:window-x="67"
     inkscape:window-y="27"
     inkscape:window-maximized="1"
     inkscape:current-layer="svg297"
     inkscape:document-rotation="0" />
  <defs />
  <g
     id="chalmers_logo">
    <path
       style="fill:#ffffff;fill-opacity:1;fill-rule:nonzero;stroke:none;stroke-width:0.99999994"
       d="m 3.0342239,18.911169 c 0,-11.679684 9.3046801,-16.421871 19.0976501,-16.421871 m 18.136721,21.425781 c -0.57422,1.93359 -1.27734,4.17188 -4.042971,6.71875 -2.5,2.28516 -6.6289,4.875 -14.53125,4.875 -11.01953,0 -18.6601501,-5.75391 -18.6601501,-16.59766 0,-11.679684 9.3046801,-16.421871 19.0976501,-16.421871 3.55469,0 12.89844,0.832031 17.015631,8.265621 l -7.750001,2.44922 c -0.83594,-1.32031 -3.304691,-4.734373 -9.32031,-4.734373 -7.02344,0 -10.964851,4.601563 -10.964851,10.527343 0,6.76172 5.359381,10.36328 11.242191,10.36328 6.714839,0 8.73437,-3.51172 9.74609,-5.40234 l 8.167971,-0.043"
       id="path10"
       inkscape:connector-curvature="0" />
    <path
       style="fill:#ffffff;fill-opacity:1;fill-rule:nonzero;stroke:none;stroke-width:0.99999994"
       d="m 43.659225,3.454141 h 7.77343 v 11.945308 h 18.35938 V 3.454141 h 7.76953 v 30.999998 h -7.76953 v -13.30468 h -18.35938 v 13.30468 h -7.77343 V 3.454141"
       id="path12"
       inkscape:connector-curvature="0" />
    <path
       style="fill:#ffffff;fill-opacity:1;fill-rule:nonzero;stroke:none;stroke-width:0.99999994"
       d="m 101.1475,12.981489 c -0.21875,-0.39454 -0.39453,-0.83204 -0.52344,-1.22657 -0.13672,-0.39843 -0.22266,-0.79296 -0.26562,-1.23047 -0.13282,0.39454 -0.21875,0.7461 -0.3086,1.09766 -0.175775,0.39453 -0.304685,0.78906 -0.480465,1.1836 l -4.32812,9.38671 H 105.24906 Z M 96.229535,3.454141 h 8.386715 l 14.97265,30.999998 h -8.69531 l -3.07031,-6.77343 H 92.725625 l -2.99218,6.77343 h -8.47657 L 96.229535,3.454141"
       id="path14"
       inkscape:connector-curvature="0" />
    <path
       style="fill:#ffffff;fill-opacity:1;fill-rule:nonzero;stroke:none;stroke-width:0.99999994"
       d="m 123.585,3.454141 h 7.77344 v 25.292968 h 15.65625 v 5.70703 H 123.585 V 3.454141"
       id="path16"
       inkscape:connector-curvature="0" />
    <path
       style="fill:#ffffff;fill-opacity:1;fill-rule:nonzero;stroke:none;stroke-width:0.99999994"
       d="m 151.69047,3.454141 h 11.19531 l 8.08203,18.968748 c 0.83594,2.01953 1.14063,2.85157 1.58203,4.60938 0.30469,-1.31641 0.57031,-2.10547 1.44531,-4.25782 l 8.08204,-19.320308 h 11.10546 v 30.999998 h -7.32812 v -21.6914 c 0,-0.92188 0.12891,-1.71485 0.30469,-2.898441 -0.30469,0.921871 -0.4375,1.273441 -0.87891,2.371091 l -9.26172,22.21875 h -7.07031 l -9.26563,-21.77734 c -0.48046,-1.1875 -0.57422,-1.53906 -0.92187,-2.812501 0.13281,1.320311 0.17578,1.582031 0.26172,2.765621 v 21.82422 h -7.33203 V 3.454141"
       id="path18"
       inkscape:connector-curvature="0" />
    <path
       style="fill:#ffffff;fill-opacity:1;fill-rule:nonzero;stroke:none;stroke-width:0.99999994"
       d="m 200.37015,3.454141 h 28.89454 v 5.578125 h -21.1211 v 6.980473 h 18.59766 v 5.48828 h -18.59766 v 7.41797 h 21.9961 v 5.53515 H 200.37015 V 3.454141"
       id="path20"
       inkscape:connector-curvature="0" />
    <path
       style="fill:#ffffff;fill-opacity:1;fill-rule:nonzero;stroke:none;stroke-width:0.99999994"
       d="m 243.74906,16.512739 h 12.3789 c 1.66797,0 4.65626,-0.21875 4.65626,-3.6875 0,-0.61329 -0.0899,-1.66797 -0.61719,-2.41407 -0.57032,-0.74609 -1.31642,-1.492184 -4.39064,-1.492184 H 243.74906 Z M 235.97562,3.469766 h 21.33593 c 3.51173,0 6.71876,0.308594 9.31251,3.296875 1.57812,1.84375 2.01563,4.171878 2.01563,5.968748 0,2.375 -0.78908,5.1836 -2.98439,6.85157 -1.66797,1.27343 -3.8203,1.71093 -5.04687,1.93359 l 9.39453,12.95312 h -8.92188 l -8.51171,-12.47265 h -8.82031 v 12.47265 h -7.77344 V 3.469766"
       id="path26"
       inkscape:connector-curvature="0" />
    <path
       inkscape:connector-curvature="0"
       id="path22"
       d="m 278.44437,25.001016 c 1.82032,3.703125 6.27344,4.765625 10.49219,4.691406 1.88281,-0.03125 7.80469,-0.445312 7.73828,-4.21875 -0.0391,-2.238281 -2.19531,-2.730468 -3.87109,-3.003906 -1.27735,-0.242187 -7.66016,-1.101562 -9.11328,-1.335937 -2.86328,-0.476563 -10.08594,-1.714844 -10.21094,-8.734375 -0.0234,-1.539063 0.38672,-3.125 1.15234,-4.414063 2.51563,-4.214843 8.20703,-5.414062 13.125,-5.5 4.51953,-0.07813 8,0.519531 11.23438,2.222657 3.1914,1.65625 4.59375,3.914062 5.22656,4.914062 l -7.34375,1.972656 c -0.27344,-0.480468 -0.90625,-1.609375 -2.76953,-2.496094 -2.07813,-0.980468 -4.76172,-1.105468 -6.25391,-1.082031 -3.42187,0.0625 -6.92187,0.78125 -6.87109,3.722657 0.0352,2.019531 1.84375,2.515624 4.17969,3.003906 1.27734,0.238281 7.61718,1.179687 9.07031,1.464844 3.61328,0.59375 9.73828,1.804687 9.85547,8.609374 0.17578,9.964844 -10.98828,10.527344 -15.51953,10.589844 -5.08985,0.07422 -13.02735,-0.648437 -17.15625,-8.4375 l 7.03515,-1.96875"
       style="clip-rule:nonzero;opacity:1;fill:#ffffff;fill-opacity:1;fill-rule:nonzero;stroke:none;stop-opacity:1" />
  </g>
</svg>
