<?xml version="1.0" encoding="UTF-8" standalone="no"?>
<!-- Created with Inkscape (http://www.inkscape.org/) -->

<svg
   xmlns:dc="http://purl.org/dc/elements/1.1/"
   xmlns:cc="http://creativecommons.org/ns#"
   xmlns:rdf="http://www.w3.org/1999/02/22-rdf-syntax-ns#"
   xmlns:svg="http://www.w3.org/2000/svg"
   xmlns="http://www.w3.org/2000/svg"
   xmlns:sodipodi="http://sodipodi.sourceforge.net/DTD/sodipodi-0.dtd"
   xmlns:inkscape="http://www.inkscape.org/namespaces/inkscape"
   viewBox="0 0 86.443153 15.572619"
   version="1.1"
   id="svg692"
   sodipodi:docname="logo_1.svg"
   inkscape:version="0.92.3 (2405546, 2018-03-11)">
  <defs
     id="defs686" />
  <sodipodi:namedview
     id="base"
     pagecolor="#ffffff"
     bordercolor="#666666"
     borderopacity="1.0"
     inkscape:pageopacity="0.0"
     inkscape:pageshadow="2"
     inkscape:zoom="2.8"
     inkscape:cx="64.071393"
     inkscape:cy="-37.627108"
     inkscape:document-units="mm"
     inkscape:current-layer="layer1"
     showgrid="false"
     inkscape:window-width="1853"
     inkscape:window-height="1023"
     inkscape:window-x="67"
     inkscape:window-y="27"
     inkscape:window-maximized="1"
     inkscape:snap-nodes="false" />
  <metadata
     id="metadata689">
    <rdf:RDF>
      <cc:Work
         rdf:about="">
        <dc:format>image/svg+xml</dc:format>
        <dc:type
           rdf:resource="http://purl.org/dc/dcmitype/StillImage" />
        <dc:title />
      </cc:Work>
    </rdf:RDF>
  </metadata>
  <g
     inkscape:label="Layer 1"
     inkscape:groupmode="layer"
     id="layer1"
     transform="translate(-101.65614,-33.683519)">
    <g
       id="g835"
       transform="matrix(1.0600626,0,0,1.0600626,16.66062,10.241106)"
       style="fill:#dbdbdb;fill-opacity:1">
      <path
         style="fill:#dbdbdb;fill-opacity:1;fill-rule:nonzero;stroke:none;stroke-width:0.35277778"
         d="m 146.7112,36.144824 h -1.98575 v -7.722525 h 1.98575 z m 0,0"
         id="path102"
         inkscape:connector-curvature="0" />
      <path
         style="fill:#dbdbdb;fill-opacity:1;fill-rule:nonzero;stroke:none;stroke-width:0.35277778"
         d="m 147.74335,30.549991 -1.03215,0.500228 -1.03077,-2.127691 1.03077,-0.500229 z m 0,0"
         id="path104"
         inkscape:connector-curvature="0" />
      <path
         style="fill:#dbdbdb;fill-opacity:1;fill-rule:nonzero;stroke:none;stroke-width:0.35277778"
         d="m 146.44249,27.390149 v 0.188789 c 0,0.376206 -0.30731,0.684887 -0.68351,0.684887 h -0.0799 c -0.3762,0 -0.68351,-0.308681 -0.68351,-0.684887 v -0.188789 c 0,-0.376206 0.30731,-0.684886 0.68351,-0.684886 h 0.0799 c 0.3762,0 0.68351,0.30868 0.68351,0.684886"
         id="path106"
         inkscape:connector-curvature="0" />
    </g>
    <g
       id="g847"
       transform="matrix(0.9626735,0,0,0.9626735,32.054337,13.761218)"
       style="fill:#dbdbdb;fill-opacity:1">
      <path
         style="fill:#dbdbdb;fill-opacity:1;fill-rule:nonzero;stroke:none;stroke-width:0.35277778"
         d="m 157.3662,26.957443 -0.0717,0.195682 c -0.12678,0.348643 -0.51676,0.530546 -0.86541,0.403765 l -0.0909,-0.03305 c -0.34865,-0.128158 -0.53054,-0.516764 -0.40377,-0.866786 l 0.0703,-0.194303 c 0.12816,-0.348643 0.51677,-0.530546 0.86679,-0.403765 l 0.091,0.03306 c 0.34864,0.126778 0.53054,0.516763 0.40376,0.865407"
         id="path108"
         inkscape:connector-curvature="0" />
      <path
         style="fill:#dbdbdb;fill-opacity:1;fill-rule:nonzero;stroke:none;stroke-width:0.35277778"
         d="m 156.94727,29.843055 -0.27147,0.154341 c -0.0455,0.0248 -0.10198,0.0096 -0.12816,-0.03447 l -1.1672,-2.054656 c -0.0248,-0.0441 -0.01,-0.101978 0.0358,-0.126781 l 0.27148,-0.154341 c 0.0455,-0.02618 0.10197,-0.0096 0.12678,0.03447 l 1.16719,2.053277 c 0.0262,0.04548 0.01,0.101974 -0.0344,0.128157"
         id="path110"
         inkscape:connector-curvature="0" />
      <path
         style="fill:#dbdbdb;fill-opacity:1;fill-rule:nonzero;stroke:none;stroke-width:0.35277778"
         d="m 158.62986,29.326292 0.0331,0.311436 c 0.005,0.05099 -0.0317,0.09784 -0.0827,0.103354 l -1.90031,0.202572 c -0.051,0.0055 -0.0978,-0.03168 -0.10335,-0.08268 l -0.0331,-0.311436 c -0.005,-0.05099 0.0317,-0.09784 0.0827,-0.101974 l 1.90169,-0.203951 c 0.051,-0.0055 0.0965,0.03168 0.10197,0.08268"
         id="path112"
         inkscape:connector-curvature="0" />
      <path
         style="fill:#dbdbdb;fill-opacity:1;fill-rule:nonzero;stroke:none;stroke-width:0.35277778"
         d="m 158.25917,31.452604 c 0,-0.442348 -1.11208,-0.621495 -1.60955,-0.727604 l -1.95819,-0.212217 c -0.44236,0 -0.88195,-0.198437 -1.15894,0.188793 l -1.10932,2.197968 c 0,0.442351 2.65135,0.37896 3.0937,0.37896 z m 0.5581,0.173634 h -0.5581 l -2.85668,2.056031 h -3.86126 l 1.84795,-3.578765 5.14697,0.643545 -0.0882,-1.176846 h 0.19155 z m 0,0"
         id="path114"
         inkscape:connector-curvature="0" />
      <path
         style="fill:#dbdbdb;fill-opacity:1;fill-rule:nonzero;stroke:none;stroke-width:0.35277778"
         d="m 153.88665,33.798026 c 0,1.296734 -1.05006,2.346798 -2.34542,2.346798 -1.29536,0 -2.34542,-1.050064 -2.34542,-2.346798 0,-1.295357 1.05006,-2.345422 2.34542,-2.345422 1.29536,0 2.34542,1.050065 2.34542,2.345422"
         id="path116"
         inkscape:connector-curvature="0" />
      <path
         style="fill:#dbdbdb;fill-opacity:1;fill-rule:nonzero;stroke:none;stroke-width:0.35277778"
         d="m 161.34184,33.798026 c 0,1.296734 -1.05007,2.346798 -2.34542,2.346798 -1.29536,0 -2.3468,-1.050064 -2.3468,-2.346798 0,-1.295357 1.05144,-2.345422 2.3468,-2.345422 1.29535,0 2.34542,1.050065 2.34542,2.345422"
         id="path118"
         inkscape:connector-curvature="0" />
      <path
         style="fill:#dbdbdb;fill-opacity:1;fill-rule:nonzero;stroke:none;stroke-width:0.35277778"
         d="m 155.7029,31.554578 -0.30316,0.363802 c -0.0496,0.05926 -0.13919,0.06752 -0.19982,0.01792 l -1.74046,-1.451077 c -0.0593,-0.04961 -0.0675,-0.139181 -0.0179,-0.199813 l 0.30455,-0.363802 c 0.0496,-0.05926 0.13918,-0.06753 0.19843,-0.01792 l 1.74046,1.451074 c 0.0606,0.04961 0.0675,0.139181 0.0179,0.199813"
         id="path120"
         inkscape:connector-curvature="0" />
      <path
         style="fill:#dbdbdb;fill-opacity:1;fill-rule:nonzero;stroke:none;stroke-width:0.35277778"
         d="m 153.69372,30.592708 -0.64905,-0.587043 c -0.10749,-0.09646 -0.11576,-0.261828 -0.0193,-0.369316 l 2.05741,-2.277897 c 0.0965,-0.107484 0.26183,-0.115753 0.36932,-0.0193 l 0.64905,0.587044 c 0.10749,0.09646 0.11576,0.261828 0.0193,0.367936 l -2.05741,2.279273 c -0.0965,0.107488 -0.26321,0.115757 -0.36932,0.0193"
         id="path122"
         inkscape:connector-curvature="0" />
      <path
         style="fill:#dbdbdb;fill-opacity:1;fill-rule:nonzero;stroke:none;stroke-width:0.35277778"
         d="m 155.7911,33.884841 c -0.0923,0.01101 -0.23013,-0.06477 -0.26045,-0.198437 l -0.44648,-2.00091 c -0.0303,-0.133671 0.0551,-0.267339 0.18879,-0.297656 l 0.25218,-0.0565 c 0.13367,-0.0303 0.26872,0.05512 0.29765,0.190168 l 0.1323,2.104267 c 0.008,0.150205 -0.0841,0.249424 -0.16399,0.259069"
         id="path124"
         inkscape:connector-curvature="0" />
      <path
         style="fill:#dbdbdb;fill-opacity:1;fill-rule:nonzero;stroke:none;stroke-width:0.35277778"
         d="m 154.25596,33.592699 -0.17776,0.02893 c -0.0289,0.0055 -0.0565,-0.01517 -0.062,-0.0441 l -0.54295,-3.25906 c -0.004,-0.02893 0.0152,-0.0565 0.0441,-0.06201 l 0.17915,-0.02893 c 0.0289,-0.0055 0.0565,0.01517 0.062,0.0441 l 0.54294,3.25906 c 0.004,0.02893 -0.0152,0.0565 -0.0455,0.06201"
         id="path126"
         inkscape:connector-curvature="0" />
    </g>
    <g
       id="g830"
       transform="translate(25.774593,12.412058)"
       style="fill:#dbdbdb;fill-opacity:1">
      <path
         style="fill:#dbdbdb;fill-opacity:1;fill-rule:nonzero;stroke:none;stroke-width:0.35277778"
         d="m 116.34338,28.748894 c 1.29673,-1.619194 3.44785,-2.333018 4.10655,-2.399164 5.69681,-0.56224 8.36883,-0.566374 9.86124,0.636654 0.25494,0.205328 2.42397,1.874133 2.95314,2.298567 0.20808,0.168119 1.05971,0.373446 2.16765,0.439592 2.08635,0.126782 4.51032,0.584289 5.46943,1.039044 0.47818,0.607713 1.18925,2.018824 0.95223,2.623785 -0.34451,0.184654 -0.6339,0.620116 -0.46578,1.04455 h -26.65952 c -0.21222,0 -0.15572,-0.544322 -0.15572,-0.978404 0,-0.216352 0.39549,-0.237025 0.55535,-0.237025 0,-0.438217 0.0703,-1.857594 0.0868,-2.523187 0.11851,-0.195682 0.40514,-1.041798 1.12861,-1.944412"
         id="path128"
         inkscape:connector-curvature="0" />
      <path
         style="fill:#dbdbdb;fill-opacity:1;fill-rule:nonzero;stroke:none;stroke-width:0.35277778"
         d="m 122.74161,33.869683 c 0,1.25677 -1.01837,2.275141 -2.27514,2.275141 -1.2554,0 -2.27377,-1.018371 -2.27377,-2.275141 0,-1.255392 1.01837,-2.273763 2.27377,-2.273763 1.25677,0 2.27514,1.018371 2.27514,2.273763"
         id="path130"
         inkscape:connector-curvature="0" />
      <path
         style="fill:#dbdbdb;fill-opacity:1;fill-rule:nonzero;stroke:none;stroke-width:0.35277778"
         d="m 138.25694,33.869683 c 0,1.25677 -1.01837,2.275141 -2.27376,2.275141 -1.25677,0 -2.27514,-1.018371 -2.27514,-2.275141 0,-1.255392 1.01837,-2.273763 2.27514,-2.273763 1.25539,0 2.27376,1.018371 2.27376,2.273763"
         id="path132"
         inkscape:connector-curvature="0" />
    </g>
    <g
       aria-label="DIV"
       transform="matrix(0.26458333,0,0,0.26458333,14.93006,-21.5608)"
       style="font-style:normal;font-variant:normal;font-weight:700;font-stretch:normal;font-size:74.66666412px;line-height:1.25;font-family:sans-serif;-inkscape-font-specification:'sans-serif, Normal';font-variant-ligatures:normal;font-variant-caps:normal;font-variant-numeric:normal;font-feature-settings:normal;text-align:start;letter-spacing:0px;word-spacing:0px;writing-mode:lr-tb;text-anchor:start;fill:#aa2233;fill-opacity:1;stroke:none"
       id="flowRoot1782">
      <path
         d="m 344.46289,221.1888 v 33.21354 h 5.03125 q 8.60417,0 13.125,-4.26562 4.55729,-4.26563 4.55729,-12.39584 0,-8.09375 -4.52083,-12.32291 -4.52084,-4.22917 -13.16146,-4.22917 z m -14.03646,-10.60937 h 14.80208 q 12.39584,0 18.44792,1.78645 6.08854,1.75 10.42708,5.97917 3.82813,3.68229 5.6875,8.49479 1.85938,4.8125 1.85938,10.90104 0,6.16146 -1.85938,11.01042 -1.85937,4.8125 -5.6875,8.49479 -4.375,4.22917 -10.5,6.01563 -6.125,1.75 -18.375,1.75 h -14.80208 z"
         style="font-style:normal;font-variant:normal;font-stretch:normal;font-size:74.66666412px;font-family:sans-serif;-inkscape-font-specification:'sans-serif, Normal';font-variant-ligatures:normal;font-variant-caps:normal;font-variant-numeric:normal;font-feature-settings:normal;text-align:start;writing-mode:lr-tb;text-anchor:start;fill:#aa2233;fill-opacity:1"
         id="path1790"
         inkscape:connector-curvature="0" />
      <path
         d="m 392.4056,210.57943 h 14.03645 v 54.43229 H 392.4056 Z"
         style="font-style:normal;font-variant:normal;font-stretch:normal;font-size:74.66666412px;font-family:sans-serif;-inkscape-font-specification:'sans-serif, Normal';font-variant-ligatures:normal;font-variant-caps:normal;font-variant-numeric:normal;font-feature-settings:normal;text-align:start;writing-mode:lr-tb;text-anchor:start;fill:#aa2233;fill-opacity:1"
         id="path1792"
         inkscape:connector-curvature="0" />
      <path
         d="m 413.77018,210.57943 h 14.10937 l 14.4375,40.17708 14.40104,-40.17708 h 14.10938 l -20.16146,54.43229 h -16.73438 z"
         style="font-style:normal;font-variant:normal;font-stretch:normal;font-size:74.66666412px;font-family:sans-serif;-inkscape-font-specification:'sans-serif, Normal';font-variant-ligatures:normal;font-variant-caps:normal;font-variant-numeric:normal;font-feature-settings:normal;text-align:start;writing-mode:lr-tb;text-anchor:start;fill:#aa2233;fill-opacity:1"
         id="path1794"
         inkscape:connector-curvature="0" />
    </g>
  </g>
</svg>
