<?xml version="1.0" encoding="UTF-8" standalone="no"?>
<svg
   xmlns:dc="http://purl.org/dc/elements/1.1/"
   xmlns:cc="http://creativecommons.org/ns#"
   xmlns:rdf="http://www.w3.org/1999/02/22-rdf-syntax-ns#"
   xmlns:svg="http://www.w3.org/2000/svg"
   xmlns="http://www.w3.org/2000/svg"
   xmlns:sodipodi="http://sodipodi.sourceforge.net/DTD/sodipodi-0.dtd"
   xmlns:inkscape="http://www.inkscape.org/namespaces/inkscape"
   viewBox="0 0 256.59652 192.47266"
   version="1.1"
   id="svg6382"
   inkscape:version="1.0beta1 (fe3e306, 2019-09-17)"
   sodipodi:docname="euroNCAPKnowledgeLogo.svg"
   height="auto">
  <defs
     id="defs6376">
    <marker
       inkscape:isstock="true"
       style="overflow:visible"
       id="Arrow2Send"
       refX="0"
       refY="0"
       orient="auto"
       inkscape:stockid="Arrow2Send">
      <path
         inkscape:connector-curvature="0"
         transform="matrix(-0.3,0,0,-0.3,0.69,0)"
         d="M 8.7185878,4.0337352 -2.2072895,0.01601326 8.7185884,-4.0017078 c -1.7454984,2.3720609 -1.7354408,5.6174519 -6e-7,8.035443 z"
         style="fill:#ffffff;fill-opacity:1;fill-rule:evenodd;stroke:#ffffff;stroke-width:0.625;stroke-linejoin:round;stroke-opacity:1"
         id="path8460" />
    </marker>
    <marker
       inkscape:isstock="true"
       style="overflow:visible"
       id="Arrow1Sstart"
       refX="0"
       refY="0"
       orient="auto"
       inkscape:stockid="Arrow1Sstart">
      <path
         inkscape:connector-curvature="0"
         transform="matrix(0.2,0,0,0.2,1.2,0)"
         style="fill:#000000;fill-opacity:1;fill-rule:evenodd;stroke:#000000;stroke-width:1pt;stroke-opacity:1"
         d="M 0,0 5,-5 -12.5,0 5,5 Z"
         id="path8439" />
    </marker>
    <marker
       inkscape:isstock="true"
       style="overflow:visible"
       id="Arrow1Lend"
       refX="0"
       refY="0"
       orient="auto"
       inkscape:stockid="Arrow1Lend">
      <path
         inkscape:connector-curvature="0"
         transform="matrix(-0.8,0,0,-0.8,-10,0)"
         style="fill:#ffffff;fill-opacity:1;fill-rule:evenodd;stroke:#ffffff;stroke-width:1pt;stroke-opacity:1"
         d="M 0,0 5,-5 -12.5,0 5,5 Z"
         id="path8430" />
    </marker>
    <marker
       inkscape:isstock="true"
       style="overflow:visible"
       id="Arrow1Mend"
       refX="0"
       refY="0"
       orient="auto"
       inkscape:stockid="Arrow1Mend">
      <path
         inkscape:connector-curvature="0"
         transform="matrix(-0.4,0,0,-0.4,-4,0)"
         style="fill:#ffffff;fill-opacity:1;fill-rule:evenodd;stroke:#ffffff;stroke-width:1pt;stroke-opacity:1"
         d="M 0,0 5,-5 -12.5,0 5,5 Z"
         id="path8436" />
    </marker>
    <clipPath
       clipPathUnits="userSpaceOnUse"
       id="clipPath1761-7">
      <circle
         r="106.64054"
         cy="108.0119"
         cx="123.97619"
         id="circle1763-3"
         style="opacity:1;vector-effect:none;fill:#000000;fill-opacity:0.0429184;stroke:none;stroke-width:13.717;stroke-linecap:butt;stroke-linejoin:round;stroke-miterlimit:4;stroke-dasharray:none;stroke-dashoffset:0;stroke-opacity:1;paint-order:fill markers stroke" />
    </clipPath>
  </defs>
  <sodipodi:namedview
     id="base"
     pagecolor="#ffffff"
     bordercolor="#666666"
     borderopacity="1.0"
     inkscape:pageopacity="0.0"
     inkscape:pageshadow="2"
     inkscape:zoom="1.979899"
     inkscape:cx="200.43638"
     inkscape:cy="155.14261"
     inkscape:document-units="mm"
     inkscape:current-layer="layer1"
     inkscape:document-rotation="0"
     showgrid="false"
     inkscape:window-width="1853"
     inkscape:window-height="1023"
     inkscape:window-x="67"
     inkscape:window-y="27"
     inkscape:window-maximized="1" />
  <metadata
     id="metadata6379">
    <rdf:RDF>
      <cc:Work
         rdf:about="">
        <dc:format>image/svg+xml</dc:format>
        <dc:type
           rdf:resource="http://purl.org/dc/dcmitype/StillImage" />
        <dc:title></dc:title>
      </cc:Work>
    </rdf:RDF>
  </metadata>
  <g
     inkscape:label="Layer 1"
     inkscape:groupmode="layer"
     id="layer1"
     transform="translate(1.9120552,49.561465)">
    <g
       transform="matrix(4.7197318,0,0,4.7197318,-527.34795,-349.54615)"
       id="euroNCAP">
      <path
         inkscape:connector-curvature="0"
         transform="translate(-5.2292483,53.79663)"
         d="m 143.60352,34.675781 -0.0937,0.01367 c -0.0594,0.0091 -0.2289,0.02603 -0.375,0.03711 l -0.26563,0.01953 -0.43164,0.08398 -0.43164,0.08398 -0.49024,0.16211 -0.49023,0.160156 -0.43945,0.216797 -0.43946,0.214844 -0.39843,0.261719 -0.39258,0.257812 -0.006,0.0039 -0.002,0.002 -0.29688,0.248047 -0.29883,0.25 -0.34765,0.361328 -0.34961,0.363282 -0.23633,0.314453 c -0.43521,0.579588 -0.74612,1.140306 -1.02148,1.83789 l -0.15626,0.394532 -0.11132,0.435547 -0.11133,0.4375 -0.0508,0.347656 c -0.0273,0.191745 -0.0585,0.457448 -0.0703,0.589844 L 136.27734,42 l -0.002,0.01367 h 1.34375 1.34375 l 0.0234,-0.173828 c 0.0131,-0.09587 0.0667,-0.349661 0.11914,-0.564453 l 0.0937,-0.390625 0.12109,-0.324219 c 0.24103,-0.645377 0.55207,-1.163948 0.95508,-1.621094 l 0.0586,-0.07813 0.0762,-0.07031 c 0.0331,-0.03449 0.0614,-0.07167 0.0957,-0.105469 l 0.26172,-0.257813 0.32226,-0.214843 L 141.41016,38 l 0.25195,-0.115234 c 0.13805,-0.06291 0.39406,-0.160337 0.57031,-0.216797 l 0.32227,-0.103516 0.27343,-0.04687 c 0.15128,-0.02638 0.39213,-0.05947 0.53321,-0.07227 l 0.25586,-0.02344 v -1.375 -1.371094 z m 0.64453,0.0059 v 3.666015 3.666016 h 3.66211 3.66406 l -0.0137,-0.191406 c -0.007,-0.105003 -0.0354,-0.359096 -0.0625,-0.566407 l -0.0488,-0.376953 -0.10938,-0.4375 -0.10742,-0.416015 c -0.006,-0.01741 -0.01,-0.03533 -0.0156,-0.05273 l -0.11133,-0.298828 c -0.0682,-0.182614 -0.20524,-0.496389 -0.30274,-0.697266 l -0.17578,-0.365234 -0.2207,-0.347656 c -0.42422,-0.669076 -0.9736,-1.297696 -1.57617,-1.802734 l -0.31641,-0.263672 -0.38086,-0.253907 -0.38086,-0.251953 -0.41601,-0.207031 c -0.22855,-0.113246 -0.56544,-0.260345 -0.74805,-0.328125 l -0.29883,-0.111328 c -0.0174,-0.0057 -0.0353,-0.01002 -0.0527,-0.01563 l -0.41602,-0.107422 -0.4375,-0.109375 -0.37695,-0.04883 C 144.7986,34.73677 144.5445,34.7064 144.4395,34.6973 Z m -7.97266,7.96289 v 0.0098 l 0.0215,0.230469 c 0.0118,0.132395 0.0431,0.398099 0.0703,0.589843 l 0.0488,0.34961 0.11328,0.439453 0.10742,0.417969 c 0.0211,0.06497 0.0495,0.127043 0.0723,0.191406 l 0.084,0.214844 c 0.0825,0.211056 0.23283,0.544483 0.33398,0.742187 l 0.1836,0.359375 0.22851,0.34375 c 0.12577,0.18918 0.32513,0.465238 0.44336,0.611328 l 0.21485,0.265625 0.41015,0.400391 0.41016,0.400391 0.33789,0.25 c 0.58295,0.43322 1.14358,0.744048 1.82812,1.011718 l 0.375,0.146485 0.44141,0.113281 0.44141,0.113281 0.36328,0.05078 c 0.20022,0.0283 0.42309,0.0565 0.49609,0.0625 0.073,0.0064 0.17441,0.01458 0.22461,0.01758 l 0.0918,0.0059 v -3.667969 -3.669922 h -3.67188 z m 12.63086,0 -0.0742,0.390625 -0.0723,0.390625 -0.14649,0.439453 -0.14648,0.441407 -0.14844,0.30664 -0.14648,0.304688 -0.19727,0.298828 -0.19922,0.298828 -0.0879,0.09961 -0.12305,0.140625 -0.21289,0.240235 -0.2539,0.208984 c -0.13956,0.11483 -0.37018,0.278734 -0.51368,0.365234 l -0.26171,0.15625 -0.31836,0.13086 -0.31836,0.130859 -0.3418,0.08594 -0.3418,0.08594 -0.37695,0.03906 -0.37695,0.03906 v 1.373047 1.371094 h 0.0215 l 0.20313,-0.01758 c 1.61341,-0.14314 2.98808,-0.67719 4.20117,-1.63086 l 0.23828,-0.1875 0.43555,-0.435546 0.43359,-0.435547 0.23437,-0.314453 c 0.47791,-0.639651 0.82873,-1.274931 1.08985,-1.976563 l 0.0801,-0.21875 c 0.0318,-0.09323 0.0579,-0.187327 0.0859,-0.28125 l 0.0684,-0.267578 0.10938,-0.4375 0.0488,-0.376953 c 0.027,-0.207315 0.0574,-0.461404 0.0664,-0.566406 l 0.0156,-0.191407 h -1.33789 z"
         style="opacity:1;fill:#ffe605;fill-opacity:1;stroke-width:0.0332026"
         id="path2420" />
      <path
         style="opacity:1;fill:#ffffff;fill-opacity:1;stroke-width:0.0332026"
         id="path2410"
         d="m 117.00512,100.47036 c -0.0457,-0.007 -0.18012,-0.0367 -0.29882,-0.0662 l -0.21581,-0.0537 -0.17171,-0.0962 -0.1717,-0.0962 -0.10711,-0.122 -0.10712,-0.122 -0.0927,-0.20078 -0.0927,-0.20079 -0.0351,-0.25972 -0.0351,-0.25973 v -1.70752 -1.70753 h 0.34678 0.34678 l 0.0105,1.78463 0.0105,1.78464 0.0745,0.1848 0.0746,0.18479 0.0912,0.0873 0.0912,0.0873 0.16004,0.0708 0.16004,0.0708 0.32698,0.0328 0.32698,0.0328 0.29323,-0.0342 c 0.16129,-0.0188 0.35301,-0.0513 0.42605,-0.0723 l 0.13282,-0.0381 0.15402,-0.15397 0.15404,-0.15396 0.0535,-0.18034 0.0535,-0.18033 v -1.75372 -1.75371 h 0.34863 0.34863 l -7.7e-4,1.80124 -7.6e-4,1.80124 -0.0466,0.22017 -0.0466,0.22017 -0.0823,0.16166 -0.0823,0.16166 -0.12782,0.12906 -0.12782,0.12906 -0.20198,0.0956 -0.20198,0.0956 -0.25748,0.0493 -0.25747,0.0493 -0.56982,-0.005 c -0.3134,-0.003 -0.60718,-0.0102 -0.65283,-0.017 z m 9.71175,0.003 c -0.0366,-0.008 -0.14858,-0.031 -0.24902,-0.0507 l -0.18262,-0.0359 -0.24007,-0.11409 -0.24008,-0.11409 -0.15855,-0.15855 -0.15855,-0.15856 -0.10536,-0.19767 -0.10535,-0.19767 -0.0671,-0.24186 -0.0671,-0.24186 -0.0394,-0.33895 -0.0394,-0.33895 0.0185,-0.56444 0.0185,-0.56444 0.0838,-0.32385 0.0838,-0.32385 0.10598,-0.19884 0.10598,-0.19884 0.16189,-0.16188 0.16188,-0.16189 0.20715,-0.1006 0.20715,-0.1006 0.24902,-0.0568 0.24902,-0.0568 0.44824,-0.0162 0.44823,-0.0162 0.33796,0.0517 0.33798,0.0517 0.19898,0.0808 c 0.10943,0.0445 0.2675,0.128 0.35125,0.18562 l 0.15227,0.10477 0.13563,0.17964 0.13563,0.17964 0.0964,0.24835 0.0964,0.24835 0.0539,0.34022 0.0539,0.34022 -0.0174,0.68262 -0.0173,0.68262 -0.0703,0.27893 -0.0703,0.27893 -0.10456,0.21911 -0.10457,0.21911 -0.18526,0.18292 -0.18526,0.18292 -0.18829,0.0907 c -0.10356,0.0499 -0.27538,0.11534 -0.38184,0.1454 l -0.19354,0.0547 -0.63084,0.01 c -0.34697,0.005 -0.66074,0.003 -0.69726,-0.005 z m 1.34471,-0.67504 0.21581,-0.0676 0.12565,-0.10395 0.12566,-0.10395 0.0822,-0.1621 c 0.0452,-0.0892 0.10601,-0.24826 0.13517,-0.35357 l 0.053,-0.19147 0.0173,-0.64852 0.0172,-0.64853 -0.0381,-0.28607 c -0.0209,-0.15734 -0.0605,-0.36164 -0.0879,-0.45399 l -0.0499,-0.16793 -0.10846,-0.1422 -0.10845,-0.14219 -0.11091,-0.0747 c -0.15293,-0.10306 -0.29673,-0.14018 -0.68315,-0.17637 l -0.33203,-0.0311 -0.33202,0.0316 -0.33203,0.0316 -0.16378,0.0562 -0.16377,0.0562 -0.13901,0.13902 -0.13902,0.13902 -0.0673,0.1797 -0.0673,0.17971 -0.041,0.26544 -0.041,0.26543 0.001,0.59765 10e-4,0.59764 0.0371,0.22492 0.0371,0.22491 0.0701,0.18743 0.0701,0.18742 0.12908,0.14004 0.12909,0.14005 0.16614,0.0715 0.16613,0.0715 0.19004,0.0302 0.19002,0.0302 0.41503,-0.0127 0.41504,-0.0127 z m 26.14701,0.64002 -0.23242,-0.0487 -0.2431,-0.11413 -0.2431,-0.11414 -0.17252,-0.17669 -0.17251,-0.1767 -0.1079,-0.21918 -0.10791,-0.21919 -0.0656,-0.25677 -0.0656,-0.25677 -0.038,-0.45353 -0.038,-0.45353 0.0368,-0.44654 0.0368,-0.44654 0.068,-0.26562 0.068,-0.26563 0.0886,-0.18261 0.0886,-0.18261 0.17781,-0.18701 0.17781,-0.18702 0.20619,-0.10012 0.20618,-0.10013 0.24901,-0.0561 0.24903,-0.0561 0.38183,-0.0179 0.38182,-0.0178 0.36523,0.0393 c 0.29559,0.0318 0.80545,0.12242 0.8371,0.14881 0.008,0.007 -0.15,0.58854 -0.16383,0.60236 -0.005,0.005 -0.0915,-0.012 -0.19187,-0.0381 -0.10044,-0.0261 -0.31705,-0.064 -0.4814,-0.0843 l -0.29882,-0.037 -0.38182,0.0193 -0.38184,0.0193 -0.17284,0.052 -0.17285,0.0521 -0.14258,0.10837 -0.14258,0.10836 -0.0903,0.1647 -0.0903,0.16471 -0.0592,0.24902 -0.0591,0.24902 0.003,0.73046 0.003,0.73045 0.0723,0.26562 0.0723,0.26562 0.10177,0.14945 0.10177,0.14945 0.12166,0.0865 0.12167,0.0865 0.18261,0.0628 0.18261,0.0628 0.58105,-9e-5 0.58105,-1e-4 0.26166,-0.0612 0.26166,-0.0612 0.0264,0.0427 c 0.0146,0.0235 0.0495,0.13473 0.0777,0.24719 0.0283,0.11246 0.0604,0.22813 0.0716,0.25704 l 0.0201,0.0526 -0.12718,0.0364 c -0.0699,0.02 -0.26912,0.0583 -0.4426,0.0851 l -0.31542,0.0487 -0.51465,-0.003 -0.51464,-0.003 z m -42.8811,-2.45271 v -2.40718 h 1.70992 1.70993 v 0.28222 0.28222 h -1.3613 -1.3613 v 0.69726 0.69725 h 0.96287 0.96288 v 0.29882 0.29883 h -0.96344 -0.96345 l 0.009,0.83836 0.009,0.83837 1.353,0.009 1.353,0.009 v 0.28185 0.28185 h -1.70993 -1.70993 z m 9.32992,0 v -2.40718 h 1.30986 1.30987 l 0.16417,0.0352 0.16418,0.0352 0.17642,0.1059 0.17643,0.10591 0.10648,0.14003 0.10648,0.14004 0.0747,0.19199 0.0747,0.19198 0.002,0.41504 0.002,0.41503 -0.075,0.1875 -0.075,0.18749 -0.12833,0.14579 -0.12832,0.14579 -0.18372,0.09 -0.18373,0.09 -0.25168,0.0425 -0.25167,0.0425 0.16095,0.12016 0.16096,0.12017 0.20815,0.25875 c 0.25796,0.32065 1.06445,1.52729 1.06445,1.59258 0,0.008 -0.19264,0.0149 -0.42808,0.0149 h -0.42807 l -0.20524,-0.34678 c -0.11288,-0.19073 -0.30979,-0.49788 -0.4376,-0.68257 l -0.23235,-0.3358 -0.21994,-0.23316 -0.21994,-0.23315 -0.12496,-0.0637 -0.12496,-0.0637 h -0.44956 -0.44956 v 0.97948 0.97948 h -0.33203 -0.33202 z m 2.50007,-0.19426 0.10737,-0.0449 0.10386,-0.11831 0.10388,-0.11831 0.0429,-0.12735 0.0429,-0.12736 0.002,-0.23242 0.002,-0.23242 -0.0469,-0.16216 -0.0469,-0.16216 -0.11895,-0.12469 -0.11895,-0.12469 -0.13281,-0.0367 -0.13281,-0.0367 -0.82176,-2e-4 -0.82177,-2e-4 v 0.84666 0.84667 h 0.86434 0.86432 z m 24.89203,0.19335 v -2.40809 l 0.47178,0.009 0.47179,0.009 0.29274,0.46483 c 0.45351,0.7201 1.06908,1.7539 1.5222,2.5564 l 0.41234,0.73026 0.008,-1.88405 0.008,-1.88405 h 0.34835 0.34836 v 2.40719 2.40719 h -0.42707 -0.42707 l -0.37488,-0.67236 c -0.6589,-1.18172 -1.91556,-3.2762 -1.96673,-3.27792 l -0.0249,-7.6e-4 v 1.97555 1.97556 h -0.33202 -0.33203 z m 8.86298,1.65274 c 0.46952,-1.35515 0.82661,-2.31941 1.28803,-3.47797 l 0.22479,-0.56444 0.58188,-0.009 0.58189,-0.009 0.12763,0.39086 c 0.35208,1.07828 1.03614,2.9482 1.42883,3.9058 l 0.21291,0.51919 h -0.39019 -0.3902 l -0.15231,-0.39013 c -0.0838,-0.21458 -0.19952,-0.5136 -0.25719,-0.66449 l -0.10488,-0.27435 -1.13215,0.009 -1.13216,0.009 -0.21765,0.65574 -0.21765,0.65576 h -0.35664 -0.35664 z m 2.91395,-1.24509 c -0.009,-0.0411 -0.16669,-0.51691 -0.34875,-1.05739 -0.18206,-0.54047 -0.34136,-1.02979 -0.354,-1.08738 l -0.023,-0.10471 h -0.10897 -0.10897 l -0.10095,0.24072 c -0.0998,0.23813 -0.7099,1.86455 -0.75344,2.00876 l -0.0226,0.0747 h 0.91917 0.91919 z m 2.16814,-0.40674 v -2.40718 h 1.32461 1.32461 l 0.2161,0.0667 0.2161,0.0667 0.16217,0.1458 0.16218,0.14581 0.0893,0.16417 0.0893,0.16417 0.0546,0.22922 0.0547,0.22922 0.003,0.34863 0.003,0.34863 -0.0609,0.24134 -0.0609,0.24134 -0.12746,0.19722 -0.12748,0.19721 -0.13791,0.0999 -0.13792,0.0999 -0.18037,0.0675 -0.18037,0.0675 h -0.99483 -0.99482 v 0.84667 0.84666 h -0.34863 -0.34863 z m 2.41435,0.11095 0.15279,-0.0385 0.12355,-0.12355 0.12354,-0.12355 0.0604,-0.1783 0.0604,-0.17831 -7.6e-4,-0.29882 -7.6e-4,-0.29883 -0.0617,-0.19596 -0.0617,-0.19596 -0.11837,-0.12409 -0.11837,-0.12409 -0.13282,-0.0367 -0.13281,-0.0367 -0.80516,-2.1e-4 -0.80516,-1.9e-4 v 0.99607 0.99608 h 0.78216 0.78216 z m -36.99324,-5.28934 -1.02771,-0.37363 -0.0106,-0.0318 c -0.009,-0.0272 0.50762,-1.50155 0.53626,-1.5302 0.008,-0.009 0.38395,0.1203 0.40958,0.14082 0.005,0.004 -0.0743,0.23577 -0.17586,0.5154 l -0.18455,0.50841 0.0144,0.0363 0.0144,0.0362 0.224,0.077 0.224,0.077 0.0239,-0.0271 c 0.0131,-0.0149 0.0803,-0.18404 0.14929,-0.37578 0.0689,-0.19175 0.12996,-0.35389 0.13556,-0.36031 0.009,-0.0109 0.33445,0.0873 0.38682,0.11693 l 0.0237,0.0134 -0.13591,0.38296 -0.1359,0.38296 0.0292,0.0263 c 0.016,0.0145 0.18982,0.0838 0.38612,0.15412 0.19631,0.0703 0.35693,0.13774 0.35693,0.1499 0,0.0122 -0.0355,0.11671 -0.0791,0.23234 l -0.0791,0.21024 -0.0289,0.006 c -0.0158,0.003 -0.49135,-0.16201 -1.05659,-0.36751 z m 21.57845,0.10358 -0.10125,-0.0462 -0.0917,-0.10896 c -0.11304,-0.13434 -0.25468,-0.41393 -0.34822,-0.68734 l -0.0707,-0.20644 -0.0212,-0.18013 -0.0212,-0.18013 0.0622,-0.0174 c 0.0343,-0.01 0.13107,-0.0267 0.21517,-0.0381 l 0.1529,-0.0207 0.0587,0.24204 c 0.0651,0.26819 0.19037,0.57318 0.27277,0.66423 l 0.0536,0.0592 h 0.0704 0.0705 l 0.0738,-0.0517 0.0738,-0.0517 v -0.13444 -0.13443 l -0.053,-0.20401 -0.053,-0.20401 0.0135,-0.21302 0.0135,-0.21302 0.13668,-0.1213 0.1367,-0.1213 0.13086,-0.0392 0.13085,-0.0392 h 0.18215 0.18216 l 0.11281,0.0753 0.11283,0.0753 0.13435,0.19983 0.13437,0.19984 0.0876,0.26502 c 0.0482,0.14576 0.0978,0.34201 0.11028,0.43612 l 0.0227,0.1711 -0.16164,0.0214 c -0.0889,0.0118 -0.19008,0.0242 -0.22483,0.0275 l -0.0632,0.006 -0.0414,-0.19921 c -0.0497,-0.23892 -0.15931,-0.52397 -0.25121,-0.65304 l -0.067,-0.094 h -0.095 -0.095 l -0.0522,0.0522 -0.0522,0.0522 v 0.11735 0.11734 l 0.053,0.20401 0.053,0.20401 -0.013,0.20715 -0.013,0.20716 -0.0675,0.0917 -0.0675,0.0917 -0.17407,0.0947 -0.17406,0.0947 -0.18857,0.014 -0.18858,0.014 z m -0.94957,-1.86745 c -0.0813,-0.12622 -0.15782,-0.24587 -0.16991,-0.2659 l -0.022,-0.0364 0.15269,-0.34048 0.15269,-0.34048 0.0162,-0.14384 0.0162,-0.14384 -0.0732,-0.11842 c -0.0403,-0.0651 -0.0799,-0.11841 -0.088,-0.11841 -0.008,0 -0.16562,0.0978 -0.34987,0.2174 -0.18425,0.11957 -0.33839,0.21295 -0.34251,0.20752 -0.004,-0.005 -0.0691,-0.10168 -0.14431,-0.21388 l -0.13679,-0.20399 0.40557,-0.26514 c 1.27969,-0.83661 1.48661,-0.9704 1.50076,-0.9704 0.0188,0 0.6955,1.02931 0.76491,1.16355 l 0.0491,0.0949 -1.3e-4,0.15936 -1.4e-4,0.15936 -0.0635,0.10406 -0.0635,0.10406 -0.11252,0.0858 c -0.0619,0.0472 -0.16727,0.1087 -0.23418,0.13666 l -0.12166,0.0508 h -0.11946 -0.11945 l -0.0725,-0.0373 c -0.0398,-0.0205 -0.11156,-0.0736 -0.15929,-0.11807 l -0.0868,-0.0808 -0.0216,0.13488 c -0.0244,0.15276 -0.17455,0.54485 -0.31481,0.82223 l -0.0942,0.18624 z m 1.02242,-1.24513 0.11225,-0.0694 0.0328,-0.0613 c 0.0181,-0.0337 0.0328,-0.0827 0.0328,-0.10898 v -0.0477 l -0.16994,-0.26158 c -0.0934,-0.14387 -0.17457,-0.26674 -0.18023,-0.27303 -0.008,-0.009 -0.45896,0.26774 -0.50763,0.31147 -0.0152,0.0136 0.32876,0.52388 0.37369,0.55443 0.0197,0.0134 0.0715,0.0246 0.11496,0.0249 l 0.0791,5e-4 z m -20.35522,1.26249 -0.13006,-0.0323 -0.26745,-0.14047 -0.26746,-0.14048 -0.23602,-0.23242 -0.236,-0.23241 -0.0428,-0.15645 -0.0428,-0.15644 0.0226,-0.151 0.0226,-0.15099 0.13656,-0.27361 0.13657,-0.2736 0.20167,-0.20138 0.20168,-0.20137 0.15819,-0.0438 0.15819,-0.0438 0.15648,0.0215 0.15647,0.0214 0.20588,0.0963 c 0.11323,0.053 0.2934,0.15578 0.40039,0.22843 l 0.19451,0.13209 0.12143,0.13442 c 0.0668,0.0739 0.14793,0.18386 0.1803,0.2443 l 0.0588,0.1099 7.6e-4,0.21581 7.7e-4,0.21582 -0.10311,0.21582 -0.1031,0.21581 -0.13701,0.18262 -0.13701,0.18261 -0.15801,0.10697 -0.158,0.10697 -0.18263,0.016 -0.1826,0.016 z m 0.52346,-0.62748 0.11891,-0.13162 0.0842,-0.1661 0.0842,-0.1661 v -0.0902 -0.0902 l -0.1577,-0.15161 -0.15771,-0.15161 -0.24611,-0.1458 -0.24611,-0.14579 -0.14504,-0.0164 -0.14502,-0.0164 -0.12351,0.13401 -0.1235,0.13401 -0.0913,0.18086 -0.0913,0.18086 v 0.0688 0.0688 l 0.0875,0.10395 0.0875,0.10394 0.19415,0.13184 c 0.10678,0.0725 0.26539,0.16844 0.35247,0.21318 l 0.15832,0.0813 0.12065,8.4e-4 0.12064,8.4e-4 z m 17.52942,-1.24755 -0.20579,-0.18357 0.11232,-0.26242 0.11232,-0.26241 -0.34289,-0.31752 c -0.18859,-0.17464 -0.35319,-0.31753 -0.36578,-0.31753 -0.0125,0 -0.1122,0.0523 -0.22137,0.11633 l -0.19847,0.11632 -0.0562,-0.0308 c -0.0309,-0.0169 -0.1228,-0.0992 -0.20429,-0.18286 l -0.14814,-0.1521 -0.30009,-0.14762 -0.30008,-0.14763 -0.16601,-0.12707 -0.16601,-0.12707 -0.10601,-0.15772 -0.10602,-0.15771 -0.0221,-0.14732 -0.0221,-0.14732 0.0689,-0.2253 0.0689,-0.2253 0.12558,-0.21338 0.12557,-0.21338 0.17992,-0.19553 0.1799,-0.19553 0.1352,-0.069 0.13518,-0.069 0.16634,8e-4 0.16634,8.1e-4 0.16933,0.0653 c 0.20365,0.0785 0.49101,0.26521 0.70168,0.45593 l 0.15448,0.13988 -0.16149,0.17264 -0.16148,0.17265 -0.11884,-0.11533 c -0.0653,-0.0634 -0.20761,-0.16857 -0.31611,-0.23363 l -0.19726,-0.11828 h -0.14306 -0.14307 l -0.12916,0.12915 -0.12915,0.12916 -0.13791,0.23214 -0.13792,0.23215 -0.0194,0.11958 -0.0194,0.11959 0.0416,0.10035 0.0416,0.10034 0.15831,0.11622 c 0.0871,0.0639 0.24156,0.15432 0.3433,0.2009 l 0.18498,0.0847 -0.0776,0.21395 c -0.0427,0.11767 -0.0728,0.21394 -0.067,0.21394 0.006,0 0.47837,-0.23159 1.04994,-0.51464 0.57157,-0.28305 1.06202,-0.51464 1.08989,-0.51464 h 0.0506 l 0.27406,0.2755 0.27406,0.27549 -0.31181,0.64588 c -0.1715,0.35523 -0.39797,0.84384 -0.50326,1.08581 -0.10529,0.24196 -0.19322,0.43986 -0.1954,0.43978 -0.002,-6e-5 -0.0965,-0.0828 -0.20974,-0.18372 z m 0.4368,-1.5429 0.19782,-0.39766 -0.0367,-0.0366 -0.0367,-0.0366 -0.36042,0.18561 c -0.19822,0.10209 -0.38283,0.20103 -0.41022,0.21987 l -0.0498,0.0343 0.23241,0.21402 c 0.12784,0.11771 0.23989,0.2142 0.24903,0.21441 0.009,2e-4 0.10561,-0.17856 0.21442,-0.39727 z m -17.49661,0.86296 -0.7966,-0.7974 0.53124,-0.5277 0.53124,-0.52769 0.13386,-0.0355 0.13385,-0.0355 0.11891,0.0328 0.11889,0.0328 0.13515,0.0979 0.13516,0.0979 0.0905,0.15431 0.0905,0.15431 -0.002,0.14543 -0.002,0.14542 -0.067,0.1084 -0.067,0.10839 0.22167,0.006 0.22167,0.006 0.33203,0.0721 c 0.18261,0.0397 0.35057,0.0824 0.37325,0.0949 l 0.0413,0.0227 -0.22385,0.22097 -0.22383,0.22096 -0.33203,-0.081 -0.33202,-0.081 -0.1582,-7e-5 -0.15821,-6e-5 -0.12402,0.11454 -0.12402,0.11455 0.29077,0.29308 0.29076,0.29309 -0.1756,0.17341 c -0.0965,0.0954 -0.18272,0.17342 -0.19142,0.17342 -0.008,0 -0.37428,-0.35883 -0.81241,-0.7974 z m 0.78052,-0.99031 v -0.0794 l -0.12891,-0.1289 -0.1289,-0.1289 h -0.0947 -0.0947 l -0.22418,0.24028 -0.22417,0.24028 0.20619,0.20804 0.20619,0.20804 0.2416,-0.23997 0.24158,-0.23998 z m 2.24245,-0.47608 c -0.0281,-0.0946 -0.051,-0.1888 -0.051,-0.20929 v -0.0373 l 0.25825,-0.10559 c 0.14205,-0.0581 0.32906,-0.15049 0.41557,-0.20535 l 0.15731,-0.0998 0.0384,-0.0844 0.0384,-0.0844 -0.0672,-0.0904 -0.0672,-0.0904 -0.0717,-0.0106 -0.0717,-0.0106 -0.35401,0.12223 -0.35401,0.12224 -0.14066,-0.0159 -0.14066,-0.0159 -0.10033,-0.0715 -0.10034,-0.0715 -0.10187,-0.20387 -0.10188,-0.20388 v -0.14739 -0.14739 l 0.0537,-0.11315 0.0537,-0.11314 0.17241,-0.1575 0.1724,-0.15748 0.24885,-0.1213 c 0.13686,-0.0667 0.32717,-0.14455 0.42291,-0.17298 l 0.17404,-0.0517 0.0134,0.0402 c 0.0408,0.12329 0.11498,0.40064 0.10799,0.40387 -0.004,0.002 -0.068,0.0236 -0.141,0.0479 -0.16329,0.0542 -0.49943,0.22062 -0.62247,0.30819 l -0.0912,0.0649 -0.0203,0.0811 -0.0203,0.081 0.0542,0.0828 0.0542,0.0828 0.10714,-8.1e-4 0.10714,-8e-4 0.19922,-0.085 0.19921,-0.085 0.23468,-0.0178 0.23467,-0.0178 0.10631,0.055 0.1063,0.055 0.0998,0.1378 0.0998,0.1378 0.0507,0.17451 0.0507,0.17451 -0.0358,0.13323 -0.0358,0.13322 -0.09,0.10688 -0.09,0.10688 -0.2426,0.15837 -0.2426,0.15836 -0.26317,0.1015 c -0.14474,0.0558 -0.28549,0.10149 -0.31276,0.10149 h -0.0496 z m 1.70887,-1.11456 c 2.3e-4,-0.44828 0.0535,-1.62513 0.0839,-1.85448 l 0.0181,-0.13625 0.12321,-0.038 c 0.0678,-0.0209 0.23852,-0.0741 0.37946,-0.11817 l 0.25625,-0.0802 0.23948,0.33742 c 0.30282,0.4267 0.89481,1.2178 1.06718,1.42615 0.0724,0.0875 0.12596,0.16377 0.11909,0.16956 -0.029,0.0244 -0.44502,0.15283 -0.49507,0.15283 h -0.0546 l -0.15512,-0.19975 -0.15511,-0.19975 -0.0856,0.0215 c -0.047,0.0118 -0.2523,0.0755 -0.45615,0.14165 l -0.37064,0.12018 v 0.26253 0.26254 l -0.24902,0.0772 c -0.13695,0.0424 -0.25275,0.0774 -0.25732,0.0778 -0.004,3.4e-4 -0.008,-0.18987 -0.008,-0.42271 z m 0.82813,-0.82507 c 0.15617,-0.0475 0.28986,-0.092 0.29709,-0.0989 0.007,-0.007 -0.0974,-0.1767 -0.23241,-0.37724 l -0.24557,-0.36463 -0.0581,-0.001 -0.0581,-0.001 -1.9e-4,0.19092 c -1e-4,0.105 -0.0103,0.31418 -0.0216,0.46483 l -0.0214,0.27392 h 0.0281 c 0.0154,0 0.15587,-0.0388 0.31204,-0.0863 z m 7.29269,1.11894 -0.29582,-0.0883 -0.0784,-0.29787 -0.0784,-0.29788 -0.0907,-0.1813 -0.0907,-0.18131 -0.14319,-0.0463 c -0.0788,-0.0254 -0.14977,-0.0397 -0.15782,-0.0316 -0.008,0.008 -0.0608,0.17022 -0.11727,0.36038 -0.0565,0.19017 -0.11421,0.35798 -0.12834,0.37293 l -0.0257,0.0272 -0.23129,-0.0702 -0.23129,-0.0703 0.32751,-1.08403 c 0.18014,-0.59621 0.33082,-1.08658 0.33484,-1.08971 0.004,-0.003 0.29686,0.0817 0.65072,0.18854 l 0.64339,0.19424 0.10355,0.0605 0.10356,0.0605 0.0776,0.11442 0.0777,0.11441 -0.0119,0.21816 -0.0119,0.21815 -0.0832,0.16368 -0.0832,0.16367 -0.14851,0.0765 -0.14851,0.0765 -0.12451,-0.0109 c -0.0685,-0.006 -0.12451,-0.009 -0.12451,-0.006 0,0.003 0.0367,0.0707 0.0815,0.15094 l 0.0815,0.14594 0.1183,0.41097 c 0.0651,0.22603 0.11425,0.41444 0.10935,0.41869 -0.005,0.004 -0.14207,-0.032 -0.30476,-0.0805 z m -0.0545,-1.42931 0.0647,-0.0647 0.0361,-0.13442 0.0361,-0.13443 -0.0389,-0.0748 c -0.0214,-0.0412 -0.0419,-0.0786 -0.0455,-0.0831 -0.003,-0.004 -0.1492,-0.0511 -0.3236,-0.10344 l -0.31708,-0.0952 -0.0858,0.28445 c -0.0471,0.15645 -0.0826,0.28745 -0.0787,0.2911 0.0239,0.0223 0.55158,0.17417 0.61308,0.17643 l 0.0748,0.003 z m -5.63873,-0.27165 c -0.0601,-0.62153 -0.10419,-1.13392 -0.0981,-1.13866 0.006,-0.005 0.36692,-0.0429 0.8018,-0.0848 l 0.79067,-0.0762 0.0273,0.0294 0.0273,0.0294 0.0145,0.18761 0.0145,0.1876 -0.11866,0.0177 c -0.0652,0.01 -0.31866,0.0362 -0.56308,0.0588 l -0.44443,0.0411 0.0204,0.2648 c 0.0112,0.14564 0.0244,0.26849 0.0294,0.27301 0.005,0.005 0.19307,-0.009 0.4181,-0.031 l 0.40913,-0.0392 0.0108,0.0178 c 0.006,0.01 0.016,0.10748 0.0225,0.21705 l 0.0117,0.19922 -0.24902,0.0235 c -0.13696,0.0129 -0.32454,0.0323 -0.41684,0.0431 l -0.16783,0.0196 0.0253,0.25574 c 0.0139,0.14066 0.0325,0.32618 0.0416,0.41227 l 0.0163,0.15653 -0.10621,0.016 c -0.0584,0.009 -0.17413,0.0236 -0.25714,0.0328 l -0.15094,0.0168 z m 2.58585,1.0373 -0.64746,-0.0535 0.003,-0.11621 c 0.001,-0.0639 0.0376,-0.56444 0.0799,-1.11228 l 0.0769,-0.99608 0.0212,-0.0247 0.0212,-0.0247 0.79542,0.0661 c 0.43747,0.0364 0.80661,0.0662 0.82031,0.0662 l 0.0249,4e-5 v 0.20025 0.20026 l -0.0514,0.0197 -0.0515,0.0197 -0.53169,-0.0408 c -0.29244,-0.0224 -0.5382,-0.0343 -0.54614,-0.0264 -0.008,0.008 -0.0239,0.10499 -0.0354,0.21566 l -0.0211,0.20124 0.42299,0.0244 0.42298,0.0244 -0.0134,0.21034 c -0.007,0.11568 -0.0202,0.21582 -0.0285,0.22251 -0.008,0.007 -0.19166,-0.002 -0.40742,-0.0187 l -0.39233,-0.0309 -0.0188,0.0188 c -0.0104,0.0103 -0.0262,0.12226 -0.0352,0.24874 l -0.0164,0.22998 0.12871,0.0186 c 0.0708,0.0103 0.24825,0.0271 0.39433,0.0375 0.1461,0.0104 0.35154,0.0275 0.45654,0.0381 l 0.19091,0.0192 -3.6e-4,0.088 c -2e-4,0.0484 -0.009,0.14408 -0.0209,0.21256 l -0.0205,0.1245 -0.18657,-0.004 c -0.10259,-0.002 -0.47792,-0.0286 -0.83402,-0.0581 z"
         inkscape:connector-curvature="0"
         sodipodi:nodetypes="cccccccccccccccccccccccccccccccccccccccccccccccccccccccccccccccccccccccccccccccccccccccccccccccccccccccccccccccccscccccccccccccccccccccccccccccccccccccccccccccccccccccccccccssccccccccccccccccccccccccccccccccccccccccccccccccccccccccccccccccccccccccccccccccccccccssccccccccccccccccccccccccccccccccccccccccccccccccccccccccccccscccccccccsccccccccccccccccccccccccccccccccccccccccccccccccccccccccccccccccccccccccccccccccccccccccccsccccccccccccccccccccccccccccccccccccccccccccccccccccccccccccccccccccccccscscccscccccccccccccccccccccsccccccccccccccccccccccccccccccccccccccccccccccccccccccccccccccccccccccccccscccccccccccccccccccccccccccccccccccccccccccccscscccccccccccccccccccccccccccccccccccccccccccccccccccsccccccccccccccccscccccccccccccccccccccccccscccccccccccccccccccccccccccccscccccccccccsccccccccsccccccccccccsccccccccccccccccccccccccccccccsccccccccccccccsccccccsccccccccccccccccccscccsccccccccccccccccccccccccccccccscccccccc" />
      <path
         sodipodi:nodetypes="ccccccccccccccccccccccsccccccccccsccsccccccccccccccccccccccccccccccscccccccccccccccccccccccccccccccccccccccccccccccccccsccccccccccsccccccccccscccccccccccccccccccccccccccccscccccc"
         inkscape:connector-curvature="0"
         d="m 137.63242,104.29215 c -0.18707,-0.0264 -0.51577,-0.0858 -0.73046,-0.13207 l -0.39034,-0.0841 -0.44822,-0.15028 -0.44824,-0.15027 -0.46484,-0.22506 c -0.5475,-0.26508 -0.96737,-0.51962 -1.42639,-0.86472 l -0.33334,-0.25061 -0.41079,-0.39881 -0.41078,-0.39881 -0.2678,-0.33202 c -0.1473,-0.18262 -0.37088,-0.48891 -0.49684,-0.68065 l -0.22905,-0.34863 -0.26087,-0.531241 -0.26088,-0.531248 -0.1492,-0.44823 -0.14919,-0.44824 -0.0839,-0.38182 c -0.0461,-0.21001 -0.10758,-0.56113 -0.13655,-0.78026 l -0.0527,-0.39843 v -0.63085 -0.630852 l 0.0528,-0.397118 c 0.21058,-1.583288 0.81057,-2.976217 1.80559,-4.191886 l 0.29317,-0.358176 0.36185,-0.348778 0.36185,-0.348778 0.38183,-0.285659 c 1.13521,-0.849287 2.30173,-1.342543 3.73529,-1.579434 l 0.36523,-0.06036 0.87986,7.28e-4 0.87987,7.26e-4 0.41345,0.0744 c 1.56664,0.281923 2.78879,0.842379 3.97569,1.823192 l 0.32933,0.272143 0.28069,0.2923 c 0.38184,0.397631 0.65684,0.741138 0.97635,1.219587 l 0.26913,0.403015 0.22045,0.447135 c 0.43924,0.890959 0.71697,1.836361 0.82106,2.794907 l 0.035,0.322418 v 0.55046 0.55045 l -0.0354,0.32242 c -0.0195,0.17733 -0.0729,0.51665 -0.11882,0.75405 l -0.0834,0.43163 -0.18045,0.54785 -0.18045,0.54784 -0.23032,0.466528 -0.23032,0.466541 -0.29689,0.44653 -0.29687,0.44654 -0.26571,0.31687 -0.26571,0.31688 -0.35579,0.33969 -0.3558,0.3397 -0.36986,0.27765 c -0.63075,0.4735 -1.21192,0.79976 -1.94698,1.09303 l -0.38184,0.15234 -0.41929,0.11488 c -0.23062,0.0632 -0.60414,0.14802 -0.83007,0.18852 l -0.41076,0.0736 -0.84667,0.0104 -0.84667,0.0104 z m 0.78835,-4.2006 v -3.683519 h -3.67995 c -2.02397,0 -3.68672,0.007 -3.69499,0.015 -0.008,0.008 -0.003,0.16889 0.0113,0.35693 l 0.0263,0.34188 0.0673,0.36523 c 0.22195,1.2044 0.73229,2.355958 1.46631,3.308659 l 0.23917,0.31042 0.35021,0.36072 0.3502,0.36072 0.33202,0.26805 c 0.18262,0.14742 0.4665,0.3559 0.63086,0.46328 l 0.29881,0.19524 0.48353,0.24092 0.48354,0.24091 0.47631,0.1585 0.47631,0.1585 0.36827,0.0772 c 0.45448,0.0952 1.21653,0.1872 1.28963,0.15565 l 0.025,-0.0108 z m 1.32193,3.63705 0.36132,-0.0504 0.39517,-0.0969 c 0.21735,-0.0533 0.55205,-0.15111 0.7438,-0.21741 l 0.34863,-0.12055 0.46655,-0.22683 0.46656,-0.22683 0.39671,-0.26586 0.39671,-0.26586 0.31824,-0.26641 0.31823,-0.26642 0.30758,-0.325 0.30758,-0.325 0.23942,-0.31784 c 0.89389,-1.186659 1.44424,-2.629239 1.53575,-4.025549 l 0.0213,-0.32451 -1.35608,0.009 -1.35607,0.009 -0.0558,0.31542 c -0.15695,0.88761 -0.45834,1.6505 -0.93156,2.35797 l -0.20929,0.31288 -0.2835,0.285518 -0.2835,0.28552 -0.24903,0.175091 -0.24901,0.17509 -0.32759,0.16515 -0.32758,0.16517 -0.28666,0.0929 c -0.35576,0.11528 -0.75987,0.195 -1.14994,0.22686 l -0.29882,0.0244 -0.008,1.3862 -0.008,1.38621 h 0.19844 c 0.10914,0 0.36103,-0.0227 0.55977,-0.0504 z m -5.93345,-8.250265 c 0.0728,-0.428978 0.19032,-0.839233 0.36961,-1.290096 l 0.13672,-0.343823 0.16322,-0.287026 0.16323,-0.287026 0.23152,-0.306124 0.23152,-0.306125 0.22842,-0.211476 c 0.59459,-0.550508 1.29762,-0.906266 2.14101,-1.083451 l 0.33203,-0.06975 0.29882,-0.02421 0.29882,-0.02422 0.008,-1.386206 0.008,-1.386208 -0.19128,1.67e-4 -0.19129,1.65e-4 -0.44259,0.06512 -0.4426,0.06512 -0.37757,0.100765 c -0.20767,0.05543 -0.52397,0.153319 -0.7029,0.217553 l -0.32531,0.116788 -0.43164,0.211778 -0.43163,0.211779 -0.31543,0.207486 c -0.4697,0.308979 -0.77466,0.549736 -1.15795,0.914201 l -0.34449,0.327572 -0.27332,0.33299 c -0.15034,0.183144 -0.37368,0.482402 -0.49631,0.665016 l -0.22297,0.332026 -0.24271,0.487544 -0.24273,0.487545 -0.16662,0.508532 -0.16663,0.508534 -0.0685,0.348627 c -0.0974,0.495675 -0.16111,1.058039 -0.14019,1.237169 l 0.003,0.0253 1.35016,-0.009 1.35015,-0.009 z m 12.53568,0.04109 c -0.0602,-0.918461 -0.32293,-1.866893 -0.77134,-2.784478 l -0.21297,-0.435804 -0.24512,-0.366886 c -0.32308,-0.483554 -0.59365,-0.814004 -0.99925,-1.220375 l -0.33326,-0.333905 -0.31543,-0.251799 c -0.17348,-0.13849 -0.45737,-0.34377 -0.63084,-0.456179 l -0.31543,-0.20438 -0.43164,-0.211707 c -0.90939,-0.446036 -1.862,-0.709882 -2.7803,-0.770062 l -0.32413,-0.02125 v 3.690476 3.690475 h 3.69047 3.69048 z"
         id="path2410-3"
         style="opacity:1;fill:#000000;fill-opacity:1;stroke-width:0.0332026" />
    </g>
    <path
       inkscape:connector-curvature="0"
       id="path10631"
       d="M 126.3281,-49.561465 V 14.994521"
       style="fill:none;stroke:#ffffff;stroke-width:12.0955;stroke-linecap:butt;stroke-linejoin:miter;stroke-miterlimit:4;stroke-dasharray:none;stroke-opacity:1;marker-end:url(#Arrow2Send)" />
  </g>
</svg>
