<?xml version="1.0" encoding="UTF-8" standalone="no"?>
<svg
   xmlns:dc="http://purl.org/dc/elements/1.1/"
   xmlns:cc="http://creativecommons.org/ns#"
   xmlns:rdf="http://www.w3.org/1999/02/22-rdf-syntax-ns#"
   xmlns:svg="http://www.w3.org/2000/svg"
   xmlns="http://www.w3.org/2000/svg"
   id="svg229"
   height="185.92999mm"
   width="251.07001mm"
   version="1.0">
  <metadata
     id="metadata233">
    <rdf:RDF>
      <cc:Work
         rdf:about="">
        <dc:format>image/svg+xml</dc:format>
        <dc:type
           rdf:resource="http://purl.org/dc/dcmitype/StillImage" />
      </cc:Work>
    </rdf:RDF>
  </metadata>
  <defs
     id="defs3">
    <pattern
       y="0"
       x="0"
       height="6"
       width="6"
       patternUnits="userSpaceOnUse"
       id="EMFhbasepattern" />
  </defs>
  <path
     id="path5"
     d="  M 98.727516,588.64213   L 98.727516,15.029747   L 835.04725,15.029747   L 835.04725,588.64213   z "
     style="fill:#ffffff;fill-rule:evenodd;fill-opacity:1;stroke:none;" />
  <path
     id="path7"
     d="  M 98.727516,588.64213   L 98.727516,15.029747   L 835.04725,15.029747   L 835.04725,588.64213   L 98.727516,588.64213  "
     style="fill:none;stroke:#ffffff;stroke-width:1.378876px;stroke-linecap:round;stroke-linejoin:round;stroke-miterlimit:4;stroke-dasharray:none;stroke-opacity:1;" />
  <path
     id="path9"
     d="  M 98.727516,588.64213   L 835.04725,588.64213  "
     style="fill:none;stroke:#000000;stroke-width:1.378876px;stroke-linecap:round;stroke-linejoin:round;stroke-miterlimit:4;stroke-dasharray:none;stroke-opacity:1;" />
  <path
     id="path11"
     d="  M 98.727516,588.64213   L 98.727516,15.029747  "
     style="fill:none;stroke:#000000;stroke-width:1.378876px;stroke-linecap:round;stroke-linejoin:round;stroke-miterlimit:4;stroke-dasharray:none;stroke-opacity:1;" />
  <path
     id="path13"
     d="  M 98.727516,588.64213   L 98.727516,580.36887  "
     style="fill:none;stroke:#000000;stroke-width:1.378876px;stroke-linecap:round;stroke-linejoin:round;stroke-miterlimit:4;stroke-dasharray:none;stroke-opacity:1;" />
  <text
     id="text19"
     y="21.642563"
     x="0.000000"
     transform="matrix(1.000000,-0.000000,0.000000,1.000000,87.696508,594.157632)"
     style="font-size:31.687500px;font-style:normal;font-variant:normal;font-weight:400;font-stretch:Normal;line-height:125.000000%;letter-spacing:0px;word-spacing:0px;fill:#000000;fill-opacity:1;stroke:none;font-family:Times;text-align:start;text-anchor:start;"
     xml:space="preserve"><tspan
       id="tspan17"
       y="21.642563"
       x="0.000000"><tspan
         id="tspan15"
         style="fill:#000000;font-size:31.687500px;font-style:normal;font-variant:normal;font-weight:400;font-stretch:Normal;font-family:Times;"
         dy="0.000000"
         dx="0.000000">0 </tspan></tspan></text>
  <path
     id="path21"
     d="  M 87.696508,621.73515   M 244.88836,588.64213   L 244.88836,580.36887  "
     style="fill:none;stroke:#000000;stroke-width:1.378876px;stroke-linecap:round;stroke-linejoin:round;stroke-miterlimit:4;stroke-dasharray:none;stroke-opacity:1;" />
  <text
     id="text27"
     y="21.642563"
     x="0.000000"
     transform="matrix(1.000000,-0.000000,0.000000,1.000000,233.857355,594.157632)"
     style="font-size:31.687500px;font-style:normal;font-variant:normal;font-weight:400;font-stretch:Normal;line-height:125.000000%;letter-spacing:0px;word-spacing:0px;fill:#000000;fill-opacity:1;stroke:none;font-family:Times;text-align:start;text-anchor:start;"
     xml:space="preserve"><tspan
       id="tspan25"
       y="21.642563"
       x="0.000000"><tspan
         id="tspan23"
         style="fill:#000000;font-size:31.687500px;font-style:normal;font-variant:normal;font-weight:400;font-stretch:Normal;font-family:Times;"
         dy="0.000000"
         dx="0.000000">5 </tspan></tspan></text>
  <path
     id="path29"
     d="  M 233.85736,621.73515   M 392.42809,588.64213   L 392.42809,580.36887  "
     style="fill:none;stroke:#000000;stroke-width:1.378876px;stroke-linecap:round;stroke-linejoin:round;stroke-miterlimit:4;stroke-dasharray:none;stroke-opacity:1;" />
  <text
     id="text35"
     y="21.642563"
     x="0.000000"
     transform="matrix(1.000000,-0.000000,0.000000,1.000000,377.260451,594.157632)"
     style="font-size:31.687500px;font-style:normal;font-variant:normal;font-weight:400;font-stretch:Normal;line-height:125.000000%;letter-spacing:0px;word-spacing:0px;fill:#000000;fill-opacity:1;stroke:none;font-family:Times;text-align:start;text-anchor:start;"
     xml:space="preserve"><tspan
       id="tspan33"
       y="21.642563"
       x="0.000000"><tspan
         id="tspan31"
         style="fill:#000000;font-size:31.687500px;font-style:normal;font-variant:normal;font-weight:400;font-stretch:Normal;font-family:Times;"
         dy="0.000000"
         dx="0.000000">10</tspan></tspan></text>
  <path
     id="path37"
     d="  M 377.26045,621.73515   M 539.96781,588.64213   L 539.96781,580.36887  "
     style="fill:none;stroke:#000000;stroke-width:1.378876px;stroke-linecap:round;stroke-linejoin:round;stroke-miterlimit:4;stroke-dasharray:none;stroke-opacity:1;" />
  <text
     id="text43"
     y="21.642563"
     x="0.000000"
     transform="matrix(1.000000,-0.000000,0.000000,1.000000,524.800174,594.157632)"
     style="font-size:31.687500px;font-style:normal;font-variant:normal;font-weight:400;font-stretch:Normal;line-height:125.000000%;letter-spacing:0px;word-spacing:0px;fill:#000000;fill-opacity:1;stroke:none;font-family:Times;text-align:start;text-anchor:start;"
     xml:space="preserve"><tspan
       id="tspan41"
       y="21.642563"
       x="0.000000"><tspan
         id="tspan39"
         style="fill:#000000;font-size:31.687500px;font-style:normal;font-variant:normal;font-weight:400;font-stretch:Normal;font-family:Times;"
         dy="0.000000"
         dx="0.000000">15</tspan></tspan></text>
  <path
     id="path45"
     d="  M 524.80017,621.73515   M 687.50753,588.64213   L 687.50753,580.36887  "
     style="fill:none;stroke:#000000;stroke-width:1.378876px;stroke-linecap:round;stroke-linejoin:round;stroke-miterlimit:4;stroke-dasharray:none;stroke-opacity:1;" />
  <text
     id="text51"
     y="21.642563"
     x="0.000000"
     transform="matrix(1.000000,-0.000000,0.000000,1.000000,672.339897,594.157632)"
     style="font-size:31.687500px;font-style:normal;font-variant:normal;font-weight:400;font-stretch:Normal;line-height:125.000000%;letter-spacing:0px;word-spacing:0px;fill:#000000;fill-opacity:1;stroke:none;font-family:Times;text-align:start;text-anchor:start;"
     xml:space="preserve"><tspan
       id="tspan49"
       y="21.642563"
       x="0.000000"><tspan
         id="tspan47"
         style="fill:#000000;font-size:31.687500px;font-style:normal;font-variant:normal;font-weight:400;font-stretch:Normal;font-family:Times;"
         dy="0.000000"
         dx="0.000000">20</tspan></tspan></text>
  <path
     id="path53"
     d="  M 672.3399,621.73515   M 835.04725,588.64213   L 835.04725,580.36887  "
     style="fill:none;stroke:#000000;stroke-width:1.378876px;stroke-linecap:round;stroke-linejoin:round;stroke-miterlimit:4;stroke-dasharray:none;stroke-opacity:1;" />
  <text
     id="text59"
     y="21.642563"
     x="0.000000"
     transform="matrix(1.000000,-0.000000,0.000000,1.000000,819.879620,594.157632)"
     style="font-size:31.687500px;font-style:normal;font-variant:normal;font-weight:400;font-stretch:Normal;line-height:125.000000%;letter-spacing:0px;word-spacing:0px;fill:#000000;fill-opacity:1;stroke:none;font-family:Times;text-align:start;text-anchor:start;"
     xml:space="preserve"><tspan
       id="tspan57"
       y="21.642563"
       x="0.000000"><tspan
         id="tspan55"
         style="fill:#000000;font-size:31.687500px;font-style:normal;font-variant:normal;font-weight:400;font-stretch:Normal;font-family:Times;"
         dy="0.000000"
         dx="0.000000">25</tspan></tspan></text>
  <path
     id="path61"
     d="  M 819.87962,621.73515   M 98.727516,588.64213   L 105.6219,588.64213  "
     style="fill:none;stroke:#000000;stroke-width:1.378876px;stroke-linecap:round;stroke-linejoin:round;stroke-miterlimit:4;stroke-dasharray:none;stroke-opacity:1;" />
  <text
     id="text67"
     y="21.642563"
     x="0.000000"
     transform="matrix(1.000000,-0.000000,0.000000,1.000000,60.118990,572.095618)"
     style="font-size:31.687500px;font-style:normal;font-variant:normal;font-weight:400;font-stretch:Normal;line-height:125.000000%;letter-spacing:0px;word-spacing:0px;fill:#000000;fill-opacity:1;stroke:none;font-family:Times;text-align:start;text-anchor:start;"
     xml:space="preserve"><tspan
       id="tspan65"
       y="21.642563"
       x="0.000000"><tspan
         id="tspan63"
         style="fill:#000000;font-size:31.687500px;font-style:normal;font-variant:normal;font-weight:400;font-stretch:Normal;font-family:Times;"
         dy="0.000000"
         dx="0.000000">0  </tspan></tspan></text>
  <path
     id="path69"
     d="  M 60.11899,599.67314   M 98.727516,301.83594   L 105.6219,301.83594  "
     style="fill:none;stroke:#000000;stroke-width:1.378876px;stroke-linecap:round;stroke-linejoin:round;stroke-miterlimit:4;stroke-dasharray:none;stroke-opacity:1;" />
  <text
     id="text75"
     y="21.642563"
     x="0.000000"
     transform="matrix(1.000000,-0.000000,0.000000,1.000000,53.224610,285.289427)"
     style="font-size:31.687500px;font-style:normal;font-variant:normal;font-weight:400;font-stretch:Normal;line-height:125.000000%;letter-spacing:0px;word-spacing:0px;fill:#000000;fill-opacity:1;stroke:none;font-family:Times;text-align:start;text-anchor:start;"
     xml:space="preserve"><tspan
       id="tspan73"
       y="21.642563"
       x="0.000000"><tspan
         id="tspan71"
         style="fill:#000000;font-size:31.687500px;font-style:normal;font-variant:normal;font-weight:400;font-stretch:Normal;font-family:Times;"
         dy="0.000000"
         dx="0.000000">50 </tspan></tspan></text>
  <path
     id="path77"
     d="  M 53.22461,312.86695   M 98.727516,16.408623   L 105.6219,16.408623  "
     style="fill:none;stroke:#000000;stroke-width:1.378876px;stroke-linecap:round;stroke-linejoin:round;stroke-miterlimit:4;stroke-dasharray:none;stroke-opacity:1;" />
  <text
     id="text83"
     y="21.642563"
     x="0.000000"
     transform="matrix(1.000000,-0.000000,0.000000,1.000000,46.330231,-0.137888)"
     style="font-size:31.687500px;font-style:normal;font-variant:normal;font-weight:400;font-stretch:Normal;line-height:125.000000%;letter-spacing:0px;word-spacing:0px;fill:#000000;fill-opacity:1;stroke:none;font-family:Times;text-align:start;text-anchor:start;"
     xml:space="preserve"><tspan
       id="tspan81"
       y="21.642563"
       x="0.000000"><tspan
         id="tspan79"
         style="fill:#000000;font-size:31.687500px;font-style:normal;font-variant:normal;font-weight:400;font-stretch:Normal;font-family:Times;"
         dy="0.000000"
         dx="0.000000">100</tspan></tspan></text>
  <path
     id="path85"
     d="  M 46.330231,27.439631   M 98.727516,588.64213   L 98.727516,492.12081   L 105.6219,490.74194   L 108.37965,490.74194   L 115.27403,489.36306   L 119.41065,489.36306   L 119.41065,486.60531   L 122.16841,486.60531   L 122.16841,485.22643   L 127.68391,485.22643   L 127.68391,483.84756   L 131.82054,482.46868   L 133.19941,482.46868   L 134.57829,481.08981   L 134.57829,479.71093   L 135.95717,478.33206   L 137.33604,476.95318   L 141.47267,475.5743   L 140.09379,475.5743   L 141.47267,475.5743   L 145.6093,472.81655   L 145.6093,471.43768   L 146.98817,470.0588   L 146.98817,450.75454   L 148.36705,449.37566   L 152.50368,447.99679   L 152.50368,446.61791   L 153.88255,445.23903   L 155.26143,443.86016   L 156.6403,442.48128   L 159.39806,442.48128   L 162.15581,441.10241   L 163.53468,439.72353   L 163.53468,438.34465   L 166.29244,438.34465   L 166.29244,435.5869   L 167.67131,435.5869   L 170.42906,432.82915   L 169.05019,432.82915   L 170.42906,432.82915   L 171.80794,431.45027   L 173.18682,430.0714   L 174.56569,430.0714   L 175.94457,428.69252   L 175.94457,427.31365   L 180.08119,425.93477   L 180.08119,421.79814   L 181.46007,421.79814   L 184.21782,420.41927   L 185.5967,419.04039   L 189.73333,417.66152   L 189.73333,412.14601   L 192.49108,409.38826   L 192.49108,408.00938   L 193.86995,408.00938   L 195.24883,406.63051   L 195.24883,385.94737   L 196.62771,384.56849   L 196.62771,376.29524   L 198.00658,376.29524   L 199.38546,374.91636   L 199.38546,369.40086   L 200.76433,369.40086   L 202.14321,368.02198   L 203.52209,366.64311   L 204.90096,366.64311   L 206.27984,365.26423   L 206.27984,354.23322   L 207.65871,352.85435   L 209.03759,351.47547   L 210.41646,351.47547   L 214.55309,350.0966   L 214.55309,340.44446   L 215.93197,339.06559   L 217.31084,337.68671   L 218.68972,336.30784   L 220.0686,336.30784   L 221.44747,334.92896   L 221.44747,333.55008   L 226.96298,332.17121   L 225.5841,332.17121   L 226.96298,332.17121   L 229.72073,329.41346   L 229.72073,328.03458   L 231.0996,326.6557   L 232.47848,325.27683   L 235.23623,325.27683   L 236.61511,323.89795   L 236.61511,322.51908   L 239.37286,321.1402   L 239.37286,319.76133   L 242.13061,318.38245   L 243.50949,317.00357   L 243.50949,314.24582   L 244.88836,312.86695   L 244.88836,310.10919   L 246.26724,308.73032   L 247.64611,307.35144   L 249.02499,305.97257   L 249.02499,301.83594   L 250.40387,300.45706   L 250.40387,296.32043   L 253.16162,294.94156   L 253.16162,293.56268   L 254.54049,292.18381   L 257.29825,289.42605   L 257.29825,288.04718   L 258.67712,288.04718   L 260.056,286.6683   L 260.056,283.91055   L 261.43487,283.91055   L 262.81375,282.53168   L 264.19263,281.1528   L 265.5715,281.1528   L 266.95038,279.77392   L 269.70813,277.01617   L 268.32925,277.01617   L 269.70813,277.01617   L 271.08701,275.6373   L 273.84476,272.87954   L 273.84476,270.12179   L 275.22363,270.12179   L 277.98138,267.36404   L 277.98138,265.98516   L 280.73914,263.22741   L 280.73914,259.09078   L 283.49689,259.09078   L 283.49689,256.33303  "
     style="fill:none;stroke:#ff0000;stroke-width:5.5155039px;stroke-linecap:butt;stroke-linejoin:round;stroke-miterlimit:4;stroke-dasharray:none;stroke-opacity:1;" />
  <path
     id="path87"
     d="  M 283.49689,256.33303   L 284.87576,254.95416   L 286.25464,254.95416   L 287.63352,253.57528   L 289.01239,253.57528   L 290.39127,252.19641   L 290.39127,250.81753   L 293.14902,250.81753   L 294.5279,249.43865   L 295.90677,248.05978   L 295.90677,241.1654   L 297.28565,239.78652   L 297.28565,235.64989   L 298.66452,234.27102   L 300.0434,234.27102   L 301.42228,232.89214   L 301.42228,210.83013   L 302.80115,209.45125   L 304.18003,209.45125   L 306.93778,206.6935   L 305.5589,206.6935   L 306.93778,206.6935   L 308.31665,205.31462   L 309.69553,203.93575   L 309.69553,201.178   L 311.07441,199.79912   L 312.45328,199.79912   L 313.83216,199.79912   L 315.21103,198.42024   L 315.21103,191.52586   L 317.96879,190.14699   L 320.72654,188.76811   L 320.72654,186.01036   L 322.10541,184.63149   L 322.10541,159.81172   L 324.86317,157.05397   L 323.48429,157.05397   L 324.86317,157.05397   L 326.24204,157.05397   L 328.99979,154.29622   L 328.99979,152.91734   L 331.75755,150.15959   L 330.37867,150.15959   L 331.75755,150.15959   L 333.13642,148.78071   L 335.89417,147.40184   L 337.27305,147.40184   L 338.65193,146.02296   L 342.78855,146.02296   L 344.16743,144.64408   L 344.16743,143.26521   L 348.30406,143.26521   L 348.30406,137.7497   L 349.68293,136.37083   L 353.81956,136.37083   L 353.81956,134.99195   L 355.19844,133.61308   L 357.95619,132.2342   L 360.71394,130.85532   L 363.47169,130.85532   L 363.47169,129.47645   L 364.85057,128.09757   L 367.60832,125.33982   L 366.22944,125.33982   L 367.60832,125.33982   L 370.36607,125.33982   L 370.36607,123.96094   L 373.12382,123.96094   L 373.12382,122.58207   L 374.5027,121.20319   L 377.26045,118.44544   L 375.88157,118.44544   L 377.26045,118.44544   L 378.63933,117.06657   L 378.63933,114.30881   L 381.39708,111.55106   L 380.0182,111.55106   L 381.39708,111.55106   L 382.77595,110.17219   L 385.53371,110.17219   L 388.29146,107.41443   L 388.29146,106.03556   L 389.67033,104.65668   L 389.67033,88.110171   L 391.04921,86.731295   L 392.42809,86.731295   L 395.18584,86.731295   L 395.18584,85.352419   L 397.94359,85.352419   L 399.32247,83.973543   L 402.08022,82.594667   L 404.83797,82.594667   L 407.59572,82.594667   L 408.9746,81.215791   L 410.35347,81.215791   L 411.73235,79.836916   L 411.73235,78.45804   L 414.4901,78.45804   L 417.24785,77.079164   L 417.24785,74.321412   L 421.38448,74.321412   L 424.14223,72.942536   L 425.52111,71.56366   L 431.03661,71.56366   L 432.41549,70.184784   L 435.17324,68.805908   L 436.55212,68.805908   L 437.93099,67.427032   L 442.06762,67.427032   L 442.06762,41.22839   L 447.58312,41.22839   L 450.34087,39.849514   L 450.34087,37.091762   L 453.09863,35.712886   L 454.4775,34.33401   L 457.23525,32.955134   L 465.50851,32.955134   L 472.40289,32.955134   L 482.05502,31.576258   L 486.19165,30.197383   L 484.81277,30.197383   L 486.19165,30.197383   L 488.9494,30.197383   L 498.60153,28.818507   L 505.49591,28.818507   L 511.01141,27.439631   L 517.90579,27.439631   L 517.90579,26.060755  "
     style="fill:none;stroke:#ff0000;stroke-width:5.5155039px;stroke-linecap:butt;stroke-linejoin:round;stroke-miterlimit:4;stroke-dasharray:none;stroke-opacity:1;" />
  <path
     id="path89"
     d="  M 517.90579,26.060755   L 531.69455,26.060755   L 535.83118,26.060755   L 537.21006,24.681879   L 538.58893,23.303003   L 538.58893,16.408623   L 607.53273,16.408623  "
     style="fill:none;stroke:#ff0000;stroke-width:5.5155039px;stroke-linecap:butt;stroke-linejoin:round;stroke-miterlimit:4;stroke-dasharray:none;stroke-opacity:1;" />
  <path
     id="path91"
     d="  M 98.727516,588.64213   L 98.727516,350.0966   L 104.24302,348.71772   L 109.75852,347.33884   L 109.75852,344.58109   L 111.1374,343.20222   L 111.1374,339.06559   L 113.89515,336.30784   L 113.89515,333.55008   L 115.27403,332.17121   L 115.27403,326.6557   L 119.41065,326.6557   L 119.41065,322.51908   L 120.78953,321.1402   L 120.78953,314.24582   L 122.16841,312.86695   L 123.54728,311.48807   L 123.54728,300.45706   L 124.92616,299.07819   L 124.92616,297.69931   L 129.06279,296.32043   L 131.82054,296.32043   L 131.82054,293.56268   L 134.57829,293.56268   L 135.95717,292.18381   L 137.33604,290.80493   L 137.33604,289.42605   L 146.98817,286.6683   L 146.98817,283.91055   L 151.1248,282.53168   L 152.50368,281.1528   L 152.50368,270.12179   L 156.6403,270.12179   L 156.6403,265.98516   L 164.91356,264.60629   L 169.05019,263.22741   L 169.05019,261.84854   L 173.18682,261.84854   L 175.94457,260.46966   L 177.32344,259.09078   L 177.32344,243.92315   L 178.70232,242.54427   L 178.70232,239.78652   L 182.83895,239.78652   L 182.83895,230.13439   L 189.73333,230.13439   L 189.73333,225.99776   L 192.49108,225.99776   L 195.24883,224.61889   L 195.24883,221.86113   L 196.62771,220.48226   L 198.00658,219.10338   L 198.00658,209.45125   L 199.38546,208.07238   L 203.52209,208.07238   L 204.90096,206.6935   L 204.90096,202.55687   L 206.27984,202.55687   L 213.17422,201.178   L 217.31084,201.178   L 217.31084,197.04137   L 222.82635,197.04137   L 222.82635,192.90474   L 224.20522,191.52586   L 224.20522,188.76811   L 226.96298,188.76811   L 226.96298,176.35823   L 249.02499,174.97935   L 249.02499,158.43284   L 253.16162,157.05397   L 253.16162,147.40184   L 254.54049,147.40184   L 261.43487,146.02296   L 261.43487,143.26521   L 262.81375,141.88633   L 262.81375,133.61308   L 266.95038,132.2342   L 266.95038,128.09757   L 271.08701,126.7187   L 271.08701,123.96094   L 273.84476,122.58207   L 273.84476,119.82432   L 275.22363,118.44544   L 275.22363,114.30881   L 294.5279,114.30881   L 294.5279,110.17219   L 306.93778,110.17219   L 306.93778,106.03556   L 312.45328,106.03556   L 312.45328,101.89893   L 316.58991,101.89893   L 328.99979,100.52005   L 328.99979,85.352419   L 341.40968,85.352419   L 341.40968,79.836916   L 342.78855,78.45804   L 342.78855,75.700288   L 345.5463,75.700288   L 345.5463,71.56366   L 346.92518,70.184784   L 346.92518,67.427032   L 353.81956,67.427032   L 353.81956,55.017149   L 377.26045,55.017149   L 377.26045,45.365018   L 378.63933,43.986142   L 378.63933,41.22839   L 380.0182,39.849514   L 380.0182,37.091762   L 385.53371,35.712886   L 385.53371,32.955134   L 433.79436,31.576258   L 433.79436,28.818507   L 436.55212,27.439631   L 436.55212,24.681879   L 461.37188,23.303003   L 461.37188,20.545251   L 472.40289,19.166375   L 472.40289,16.408623  "
     style="fill:none;stroke:#00ff00;stroke-width:5.5155039px;stroke-linecap:butt;stroke-linejoin:round;stroke-miterlimit:4;stroke-dasharray:none;stroke-opacity:1;" />
  <path
     id="path93"
     d="  M 98.727516,588.64213   L 98.727516,150.15959   L 104.24302,150.15959   L 109.75852,150.15959   L 109.75852,146.02296   L 112.51627,143.26521   L 112.51627,140.50746   L 113.89515,139.12858   L 113.89515,134.99195   L 115.27403,133.61308   L 115.27403,129.47645   L 119.41065,129.47645   L 119.41065,125.33982   L 120.78953,123.96094   L 120.78953,121.20319   L 123.54728,118.44544   L 123.54728,114.30881   L 124.92616,112.92994   L 129.06279,112.92994   L 129.06279,111.55106   L 131.82054,111.55106   L 133.19941,110.17219   L 137.33604,108.79331   L 137.33604,107.41443   L 144.23042,106.03556   L 146.98817,103.27781   L 145.6093,103.27781   L 146.98817,103.27781   L 151.1248,103.27781   L 152.50368,101.89893   L 152.50368,99.141178   L 162.15581,99.141178   L 164.91356,99.141178   L 169.05019,99.141178   L 169.05019,97.762302   L 175.94457,96.383427   L 174.56569,96.383427   L 175.94457,96.383427   L 177.32344,95.004551   L 177.32344,90.867923   L 178.70232,90.867923   L 184.21782,88.110171   L 182.83895,88.110171   L 184.21782,88.110171   L 185.5967,86.731295   L 189.73333,86.731295   L 192.49108,85.352419   L 195.24883,85.352419   L 196.62771,83.973543   L 198.00658,82.594667   L 198.00658,81.215791   L 206.27984,79.836916   L 206.27984,78.45804   L 209.03759,78.45804   L 210.41646,78.45804   L 213.17422,77.079164   L 217.31084,75.700288   L 222.82635,74.321412   L 222.82635,72.942536   L 224.20522,72.942536   L 225.5841,71.56366   L 226.96298,70.184784   L 226.96298,67.427032   L 233.85736,67.427032   L 249.02499,67.427032   L 249.02499,61.911529   L 251.78274,61.911529   L 253.16162,60.532653   L 253.16162,57.774901   L 254.54049,57.774901   L 255.91937,56.396025   L 260.056,56.396025   L 261.43487,56.396025   L 262.81375,55.017149   L 262.81375,53.638273   L 265.5715,53.638273   L 266.95038,52.259397   L 269.70813,52.259397   L 271.08701,50.880521   L 275.22363,49.501645   L 275.22363,48.122769   L 279.36026,48.122769   L 286.25464,46.743894   L 294.5279,45.365018   L 295.90677,43.986142   L 297.28565,43.986142   L 298.66452,43.986142   L 304.18003,43.986142   L 308.31665,42.607266   L 308.31665,41.22839   L 312.45328,41.22839   L 312.45328,39.849514   L 316.58991,39.849514   L 328.99979,39.849514   L 328.99979,35.712886   L 331.75755,35.712886   L 341.40968,34.33401   L 342.78855,32.955134   L 344.16743,32.955134   L 345.5463,31.576258   L 346.92518,31.576258   L 353.81956,31.576258   L 353.81956,27.439631   L 360.71394,27.439631   L 377.26045,27.439631   L 377.26045,24.681879   L 378.63933,23.303003   L 380.0182,21.924127   L 382.77595,21.924127   L 385.53371,21.924127   L 385.53371,20.545251   L 391.04921,20.545251   L 393.80696,20.545251   L 433.79436,20.545251   L 433.79436,19.166375   L 436.55212,19.166375   L 436.55212,17.787499   L 461.37188,17.787499   L 461.37188,16.408623   L 472.40289,16.408623  "
     style="fill:none;stroke:#0000ff;stroke-width:5.5155039px;stroke-linecap:butt;stroke-linejoin:round;stroke-miterlimit:4;stroke-dasharray:none;stroke-opacity:1;" />
  <path
     id="path95"
     d="  M 98.727516,588.64213   L 98.727516,194.28362   L 102.86414,194.28362   L 104.24302,192.90474   L 109.75852,192.90474   L 109.75852,190.14699   L 111.1374,188.76811   L 111.1374,187.38924   L 112.51627,186.01036   L 112.51627,183.25261   L 115.27403,180.49486   L 115.27403,174.97935   L 119.41065,174.97935   L 119.41065,172.2216   L 120.78953,170.84273   L 120.78953,166.7061   L 123.54728,163.94835   L 123.54728,158.43284   L 124.92616,157.05397   L 124.92616,155.67509   L 129.06279,155.67509   L 130.44166,155.67509   L 131.82054,154.29622   L 134.57829,154.29622   L 135.95717,152.91734   L 137.33604,151.53846   L 137.33604,150.15959   L 142.85154,150.15959   L 144.23042,148.78071   L 145.6093,148.78071   L 148.36705,148.78071   L 151.1248,147.40184   L 152.50368,146.02296   L 152.50368,141.88633   L 155.26143,141.88633   L 156.6403,141.88633   L 160.77693,140.50746   L 162.15581,139.12858   L 164.91356,139.12858   L 170.42906,137.7497   L 169.05019,137.7497   L 170.42906,137.7497   L 175.94457,136.37083   L 174.56569,136.37083   L 175.94457,136.37083   L 177.32344,134.99195   L 177.32344,129.47645   L 178.70232,128.09757   L 178.70232,126.7187   L 182.83895,126.7187   L 182.83895,122.58207   L 184.21782,122.58207   L 185.5967,121.20319   L 189.73333,119.82432   L 192.49108,119.82432   L 193.86995,118.44544   L 196.62771,118.44544   L 198.00658,117.06657   L 198.00658,112.92994   L 199.38546,112.92994   L 204.90096,111.55106   L 204.90096,110.17219   L 206.27984,108.79331   L 209.03759,108.79331   L 213.17422,107.41443   L 213.17422,106.03556   L 217.31084,106.03556   L 217.31084,104.65668   L 224.20522,103.27781   L 224.20522,100.52005   L 226.96298,100.52005   L 226.96298,93.625675   L 246.26724,93.625675   L 249.02499,92.246799   L 249.02499,85.352419   L 253.16162,85.352419   L 253.16162,79.836916   L 254.54049,78.45804   L 262.81375,78.45804   L 262.81375,74.321412   L 266.95038,74.321412   L 266.95038,71.56366   L 271.08701,70.184784   L 271.08701,67.427032   L 272.46588,67.427032   L 275.22363,64.66928   L 275.22363,63.290405   L 279.36026,63.290405   L 280.73914,63.290405   L 286.25464,61.911529   L 291.77014,61.911529   L 294.5279,61.911529   L 294.5279,60.532653   L 297.28565,60.532653   L 298.66452,59.153777   L 305.5589,59.153777   L 306.93778,57.774901   L 308.31665,56.396025   L 312.45328,56.396025   L 312.45328,55.017149   L 316.58991,55.017149   L 328.99979,55.017149   L 328.99979,48.122769   L 342.78855,45.365018   L 342.78855,43.986142   L 345.5463,42.607266   L 345.5463,41.22839   L 352.44068,41.22839   L 353.81956,39.849514   L 353.81956,35.712886   L 356.57731,35.712886   L 360.71394,35.712886   L 360.71394,34.33401   L 374.5027,34.33401   L 377.26045,34.33401   L 377.26045,30.197383   L 380.0182,27.439631   L 380.0182,26.060755   L 382.77595,26.060755   L 385.53371,24.681879   L 385.53371,23.303003   L 393.80696,23.303003   L 433.79436,23.303003   L 433.79436,21.924127   L 436.55212,20.545251   L 436.55212,19.166375   L 461.37188,19.166375   L 461.37188,17.787499  "
     style="fill:none;stroke:#ff00ff;stroke-width:5.5155039px;stroke-linecap:butt;stroke-linejoin:round;stroke-miterlimit:4;stroke-dasharray:none;stroke-opacity:1;" />
  <path
     id="path97"
     d="  M 461.37188,17.787499   L 472.40289,17.787499   L 472.40289,16.408623  "
     style="fill:none;stroke:#ff00ff;stroke-width:5.5155039px;stroke-linecap:butt;stroke-linejoin:round;stroke-miterlimit:4;stroke-dasharray:none;stroke-opacity:1;" />
  <path
     id="path99"
     d="  M 98.727516,588.64213   L 98.727516,201.178   L 104.24302,199.79912   L 109.75852,199.79912   L 109.75852,197.04137   L 111.1374,195.66249   L 111.1374,192.90474   L 112.51627,191.52586   L 112.51627,188.76811   L 113.89515,187.38924   L 113.89515,184.63149   L 115.27403,183.25261   L 115.27403,177.73711   L 119.41065,177.73711   L 119.41065,174.97935   L 122.16841,172.2216   L 122.16841,169.46385   L 123.54728,168.08497   L 123.54728,162.56947   L 124.92616,161.19059   L 126.30503,159.81172   L 130.44166,159.81172   L 131.82054,158.43284   L 133.19941,158.43284   L 134.57829,158.43284   L 135.95717,158.43284   L 137.33604,157.05397   L 137.33604,155.67509   L 142.85154,155.67509   L 144.23042,154.29622   L 145.6093,154.29622   L 146.98817,152.91734   L 152.50368,152.91734   L 152.50368,147.40184   L 155.26143,147.40184   L 162.15581,146.02296   L 169.05019,146.02296   L 173.18682,146.02296   L 174.56569,144.64408   L 175.94457,144.64408   L 177.32344,143.26521   L 177.32344,136.37083   L 178.70232,134.99195   L 182.83895,133.61308   L 182.83895,129.47645   L 184.21782,128.09757   L 185.5967,126.7187   L 189.73333,126.7187   L 192.49108,125.33982   L 193.86995,125.33982   L 196.62771,125.33982   L 198.00658,123.96094   L 198.00658,119.82432   L 199.38546,118.44544   L 204.90096,118.44544   L 204.90096,117.06657   L 206.27984,115.68769   L 209.03759,114.30881   L 210.41646,114.30881   L 213.17422,114.30881   L 213.17422,112.92994   L 217.31084,112.92994   L 217.31084,111.55106   L 224.20522,108.79331   L 224.20522,106.03556   L 226.96298,106.03556   L 226.96298,99.141178   L 235.23623,99.141178   L 235.23623,97.762302   L 249.02499,97.762302   L 249.02499,89.489047   L 251.78274,89.489047   L 253.16162,88.110171   L 253.16162,83.973543   L 255.91937,83.973543   L 262.81375,82.594667   L 262.81375,78.45804   L 266.95038,78.45804   L 266.95038,75.700288   L 271.08701,74.321412   L 271.08701,71.56366   L 273.84476,71.56366   L 273.84476,68.805908   L 275.22363,67.427032   L 280.73914,67.427032   L 286.25464,66.048156   L 294.5279,64.66928   L 294.5279,63.290405   L 298.66452,63.290405   L 306.93778,63.290405   L 306.93778,60.532653   L 312.45328,60.532653   L 312.45328,59.153777   L 316.58991,59.153777   L 328.99979,57.774901   L 328.99979,50.880521   L 331.75755,50.880521   L 342.78855,48.122769   L 342.78855,45.365018   L 345.5463,45.365018   L 345.5463,43.986142   L 353.81956,43.986142   L 353.81956,37.091762   L 359.33506,37.091762   L 366.22944,37.091762   L 366.22944,35.712886   L 377.26045,35.712886   L 377.26045,31.576258   L 380.0182,28.818507   L 380.0182,26.060755   L 382.77595,26.060755   L 385.53371,26.060755   L 385.53371,23.303003   L 433.79436,23.303003   L 433.79436,21.924127   L 436.55212,21.924127   L 436.55212,19.166375   L 461.37188,19.166375   L 461.37188,17.787499   L 472.40289,17.787499   L 472.40289,16.408623  "
     style="fill:none;stroke:#000000;stroke-width:5.5155039px;stroke-linecap:butt;stroke-linejoin:round;stroke-miterlimit:4;stroke-dasharray:none;stroke-opacity:1;" />
  <path
     id="path101"
     d="  M 98.727516,588.64213   L 98.727516,234.27102   L 104.24302,232.89214   L 112.51627,231.51327   L 113.89515,231.51327   L 122.16841,230.13439   L 126.30503,230.13439   L 133.19941,228.75551   L 134.57829,228.75551   L 137.33604,228.75551   L 137.33604,225.99776   L 142.85154,224.61889   L 144.23042,223.24001   L 145.6093,223.24001   L 146.98817,221.86113   L 152.50368,221.86113   L 152.50368,212.209   L 155.26143,212.209   L 162.15581,210.83013   L 169.05019,210.83013   L 174.56569,209.45125   L 174.56569,208.07238   L 175.94457,208.07238   L 177.32344,206.6935   L 177.32344,195.66249   L 178.70232,194.28362   L 178.70232,192.90474   L 185.5967,190.14699   L 185.5967,188.76811   L 189.73333,187.38924   L 192.49108,187.38924   L 193.86995,186.01036   L 196.62771,186.01036   L 198.00658,184.63149   L 198.00658,177.73711   L 199.38546,176.35823   L 204.90096,176.35823   L 204.90096,173.60048   L 206.27984,172.2216   L 206.27984,170.84273   L 209.03759,170.84273   L 210.41646,169.46385   L 213.17422,169.46385   L 213.17422,168.08497   L 217.31084,168.08497   L 217.31084,163.94835   L 222.82635,163.94835   L 222.82635,161.19059   L 224.20522,159.81172   L 224.20522,157.05397   L 226.96298,155.67509   L 226.96298,144.64408   L 235.23623,144.64408   L 235.23623,143.26521   L 249.02499,143.26521   L 249.02499,130.85532   L 251.78274,130.85532   L 251.78274,128.09757   L 253.16162,126.7187   L 253.16162,119.82432   L 255.91937,118.44544   L 262.81375,118.44544   L 262.81375,111.55106   L 266.95038,110.17219   L 266.95038,107.41443   L 271.08701,104.65668   L 271.08701,103.27781   L 273.84476,101.89893   L 273.84476,99.141178   L 275.22363,97.762302   L 275.22363,96.383427   L 280.73914,96.383427   L 286.25464,95.004551   L 286.25464,93.625675   L 294.5279,93.625675   L 294.5279,90.867923   L 298.66452,90.867923   L 304.18003,89.489047   L 304.18003,86.731295   L 306.93778,86.731295   L 306.93778,83.973543   L 316.58991,83.973543   L 328.99979,82.594667   L 328.99979,70.184784   L 331.75755,70.184784   L 341.40968,70.184784   L 341.40968,66.048156   L 342.78855,64.66928   L 342.78855,63.290405   L 345.5463,61.911529   L 345.5463,60.532653   L 353.81956,59.153777   L 353.81956,50.880521   L 359.33506,49.501645   L 366.22944,49.501645   L 366.22944,48.122769   L 377.26045,48.122769   L 377.26045,41.22839   L 378.63933,39.849514   L 378.63933,37.091762   L 380.0182,35.712886   L 380.0182,32.955134   L 382.77595,31.576258   L 385.53371,31.576258   L 385.53371,28.818507   L 433.79436,28.818507   L 433.79436,26.060755   L 436.55212,24.681879   L 436.55212,21.924127   L 461.37188,21.924127   L 461.37188,19.166375   L 472.40289,17.787499   L 472.40289,16.408623  "
     style="fill:none;stroke:#4cb299;stroke-width:4.1366277px;stroke-linecap:butt;stroke-linejoin:round;stroke-miterlimit:4;stroke-dasharray:none;stroke-opacity:1;" />
  <path
     id="path103"
     d="  M 119.41065,588.64213   L 119.41065,570.71674   L 146.98817,570.71674   L 146.98817,551.41248   L 148.36705,550.0336   L 148.36705,534.86597   L 195.24883,534.86597   L 195.24883,516.94058   L 196.62771,515.56171   L 196.62771,501.77295   L 206.27984,501.77295   L 206.27984,485.22643   L 214.55309,483.84756   L 214.55309,468.67992   L 243.50949,468.67992   L 243.50949,453.51229   L 250.40387,453.51229   L 250.40387,436.96578   L 273.84476,436.96578   L 273.84476,423.17702   L 279.36026,423.17702   L 279.36026,409.38826   L 295.90677,408.00938   L 295.90677,391.46287   L 297.28565,390.084   L 297.28565,373.53749   L 300.0434,373.53749   L 300.0434,354.23322   L 301.42228,352.85435   L 301.42228,340.44446   L 309.69553,339.06559   L 309.69553,326.6557   L 315.21103,325.27683   L 315.21103,310.10919   L 322.10541,310.10919   L 322.10541,290.80493   L 323.48429,289.42605   L 323.48429,271.50067   L 348.30406,271.50067   L 348.30406,252.19641   L 366.22944,250.81753   L 366.22944,232.89214   L 374.5027,231.51327   L 374.5027,217.72451   L 378.63933,216.34563   L 378.63933,199.79912   L 389.67033,199.79912   L 389.67033,181.87373   L 395.18584,180.49486   L 395.18584,168.08497   L 417.24785,168.08497   L 417.24785,152.91734   L 424.14223,151.53846   L 424.14223,134.99195   L 432.41549,134.99195   L 432.41549,118.44544   L 442.06762,118.44544   L 442.06762,103.27781   L 450.34087,101.89893   L 450.34087,83.973543   L 453.09863,83.973543   L 453.09863,66.048156   L 517.90579,66.048156   L 517.90579,50.880521   L 538.58893,50.880521   L 538.58893,32.955134   L 607.53273,31.576258   L 607.53273,16.408623  "
     style="fill:none;stroke:#cc1966;stroke-width:4.1366277px;stroke-linecap:butt;stroke-linejoin:round;stroke-miterlimit:4;stroke-dasharray:none;stroke-opacity:1;" />
  <path
     id="path105"
     d="  M 107.00077,588.64213   L 107.00077,570.71674   L 123.54728,570.71674   L 123.54728,533.48709   L 134.57829,533.48709   L 134.57829,514.18283   L 137.33604,512.80395   L 137.33604,494.87857   L 138.71492,493.49969   L 138.71492,464.5433   L 142.85154,464.5433   L 142.85154,450.75454   L 148.36705,449.37566   L 148.36705,398.35725   L 153.88255,398.35725   L 153.88255,381.81074   L 156.6403,381.81074   L 156.6403,365.26423   L 159.39806,365.26423   L 159.39806,347.33884   L 160.77693,345.95997   L 160.77693,311.48807   L 163.53468,311.48807   L 163.53468,293.56268   L 175.94457,293.56268   L 175.94457,275.6373   L 181.46007,274.25842   L 181.46007,259.09078   L 184.21782,257.71191   L 184.21782,223.24001   L 185.5967,221.86113   L 185.5967,208.07238   L 188.35445,208.07238   L 188.35445,192.90474   L 191.1122,192.90474   L 191.1122,177.73711   L 193.86995,177.73711   L 193.86995,162.56947   L 195.24883,161.19059   L 195.24883,146.02296   L 199.38546,146.02296   L 199.38546,128.09757   L 204.90096,126.7187   L 204.90096,108.79331   L 214.55309,108.79331   L 214.55309,95.004551   L 215.93197,93.625675   L 215.93197,78.45804   L 228.34185,78.45804   L 228.34185,60.532653   L 233.85736,59.153777   L 233.85736,46.743894   L 247.64611,45.365018   L 247.64611,32.955134   L 271.08701,32.955134   L 271.08701,16.408623  "
     style="fill:none;stroke:#e599cc;stroke-width:4.1366277px;stroke-linecap:butt;stroke-linejoin:round;stroke-miterlimit:4;stroke-dasharray:none;stroke-opacity:1;" />
  <path
     id="path107"
     d="  M 180.08119,587.26325   L 196.62771,585.88438   L 213.17422,584.5055   L 228.34185,581.74775   L 244.88836,572.09562   L 261.43487,561.06461   L 277.98138,543.13922   L 294.5279,515.56171   L 311.07441,481.08981   L 327.62092,441.10241   L 344.16743,410.76714   L 359.33506,372.15861   L 375.88157,337.68671   L 392.42809,300.45706   L 408.9746,271.50067   L 425.52111,232.89214   L 442.06762,209.45125   L 458.61413,186.01036   L 473.78176,168.08497   L 490.32828,151.53846   L 506.87479,137.7497   L 523.4213,119.82432   L 539.96781,111.55106   L 556.51432,101.89893   L 573.06083,86.731295   L 589.60734,74.321412   L 604.77498,68.805908   L 621.32149,63.290405   L 637.868,59.153777   L 654.41451,56.396025   L 670.96102,49.501645   L 687.50753,45.365018   L 704.05404,43.986142   L 719.22168,39.849514   L 735.76819,35.712886   L 752.3147,34.33401   L 768.86121,30.197383   L 785.40772,30.197383   L 801.95423,28.818507   L 818.50074,27.439631   L 835.04725,26.060755   L 836.42613,26.060755  "
     style="fill:none;stroke:#b2e5e5;stroke-width:4.1366277px;stroke-linecap:butt;stroke-linejoin:round;stroke-miterlimit:4;stroke-dasharray:none;stroke-opacity:1;" />
  <text
     id="text113"
     y="23.100188"
     x="0.000000"
     transform="matrix(1.000000,-0.000000,0.000000,1.000000,334.515297,628.629530)"
     style="font-size:31.687500px;font-style:normal;font-variant:normal;font-weight:400;font-stretch:Normal;line-height:125.000000%;letter-spacing:0px;word-spacing:0px;fill:#000000;fill-opacity:1;stroke:none;font-family:Helvetica;text-align:start;text-anchor:start;"
     xml:space="preserve"><tspan
       id="tspan111"
       y="23.100188"
       x="0.000000"><tspan
         id="tspan109"
         style="fill:#000000;font-size:31.687500px;font-style:normal;font-variant:normal;font-weight:400;font-stretch:Normal;font-family:Helvetica;"
         dy="0.000000"
         dx="0.000000">Impact speed [m/s]</tspan></tspan></text>
  <text
     id="text119"
     y="23.100188"
     x="0.000000"
     transform="matrix(0.000000,-1.000000,1.000000,0.000000,-0.551550,453.512289)"
     style="font-size:31.687500px;font-style:normal;font-variant:normal;font-weight:400;font-stretch:Normal;line-height:125.000000%;letter-spacing:0px;word-spacing:0px;fill:#000000;fill-opacity:1;stroke:none;font-family:Helvetica;text-align:start;text-anchor:start;"
     xml:space="preserve"><tspan
       id="tspan117"
       y="23.100188"
       x="0.000000"><tspan
         id="tspan115"
         style="fill:#000000;font-size:31.687500px;font-style:normal;font-variant:normal;font-weight:400;font-stretch:Normal;font-family:Helvetica;"
         dy="0.000000"
         dx="0.000000">Cumulative frequency</tspan></tspan></text>
  <text
     id="text125"
     y="16.083563"
     x="0.000000"
     transform="matrix(1.000000,-0.000000,0.000000,1.000000,95.969764,577.611121)"
     style="font-size:22.062500px;font-style:normal;font-variant:normal;font-weight:400;font-stretch:Normal;line-height:125.000000%;letter-spacing:0px;word-spacing:0px;fill:#000000;fill-opacity:1;stroke:none;font-family:Helvetica;text-align:start;text-anchor:start;"
     xml:space="preserve"><tspan
       id="tspan123"
       y="16.083563"
       x="0.000000"><tspan
         id="tspan121"
         style="fill:#000000;font-size:22.062500px;font-style:normal;font-variant:normal;font-weight:400;font-stretch:Normal;font-family:Helvetica;"
         dy="0.000000"
         dx="0.000000" /></tspan></text>
  <text
     id="text131"
     y="16.083563"
     x="0.000000"
     transform="matrix(1.000000,-0.000000,0.000000,1.000000,833.668379,3.998740)"
     style="font-size:22.062500px;font-style:normal;font-variant:normal;font-weight:400;font-stretch:Normal;line-height:125.000000%;letter-spacing:0px;word-spacing:0px;fill:#000000;fill-opacity:1;stroke:none;font-family:Helvetica;text-align:start;text-anchor:start;"
     xml:space="preserve"><tspan
       id="tspan129"
       y="16.083563"
       x="0.000000"><tspan
         id="tspan127"
         style="fill:#000000;font-size:22.062500px;font-style:normal;font-variant:normal;font-weight:400;font-stretch:Normal;font-family:Helvetica;"
         dy="0.000000"
         dx="0.000000" /></tspan></text>
  <path
     id="path133"
     d="  M 334.5153,657.58592   M 28.404844,453.51229   M 95.969764,598.29426   M 833.66838,24.681879   M 451.71975,578.99   L 451.71975,213.58788   L 825.39512,213.58788   L 825.39512,578.99   z "
     style="fill:#ffffff;fill-rule:evenodd;fill-opacity:1;stroke:none;" />
  <path
     id="path135"
     d="  M 451.71975,578.99   L 451.71975,213.58788   L 825.39512,213.58788   L 825.39512,578.99   L 451.71975,578.99  "
     style="fill:none;stroke:#ffffff;stroke-width:1.378876px;stroke-linecap:round;stroke-linejoin:round;stroke-miterlimit:4;stroke-dasharray:none;stroke-opacity:1;" />
  <path
     id="path137"
     d="  M 451.71975,213.58788   L 825.39512,213.58788  "
     style="fill:none;stroke:#000000;stroke-width:1.378876px;stroke-linecap:round;stroke-linejoin:round;stroke-miterlimit:4;stroke-dasharray:none;stroke-opacity:1;" />
  <path
     id="path139"
     d="  M 451.71975,578.99   L 825.39512,578.99  "
     style="fill:none;stroke:#000000;stroke-width:1.378876px;stroke-linecap:round;stroke-linejoin:round;stroke-miterlimit:4;stroke-dasharray:none;stroke-opacity:1;" />
  <path
     id="path141"
     d="  M 825.39512,578.99   L 825.39512,213.58788  "
     style="fill:none;stroke:#000000;stroke-width:1.378876px;stroke-linecap:round;stroke-linejoin:round;stroke-miterlimit:4;stroke-dasharray:none;stroke-opacity:1;" />
  <path
     id="path143"
     d="  M 451.71975,578.99   L 451.71975,213.58788  "
     style="fill:none;stroke:#000000;stroke-width:1.378876px;stroke-linecap:round;stroke-linejoin:round;stroke-miterlimit:4;stroke-dasharray:none;stroke-opacity:1;" />
  <path
     id="path145"
     d="  M 451.71975,578.99   L 825.39512,578.99  "
     style="fill:none;stroke:#000000;stroke-width:1.378876px;stroke-linecap:round;stroke-linejoin:round;stroke-miterlimit:4;stroke-dasharray:none;stroke-opacity:1;" />
  <path
     id="path147"
     d="  M 451.71975,578.99   L 451.71975,213.58788  "
     style="fill:none;stroke:#000000;stroke-width:1.378876px;stroke-linecap:round;stroke-linejoin:round;stroke-miterlimit:4;stroke-dasharray:none;stroke-opacity:1;" />
  <path
     id="path149"
     d="  M 451.71975,213.58788   L 825.39512,213.58788  "
     style="fill:none;stroke:#000000;stroke-width:1.378876px;stroke-linecap:round;stroke-linejoin:round;stroke-miterlimit:4;stroke-dasharray:none;stroke-opacity:1;" />
  <path
     id="path151"
     d="  M 451.71975,578.99   L 825.39512,578.99  "
     style="fill:none;stroke:#000000;stroke-width:1.378876px;stroke-linecap:round;stroke-linejoin:round;stroke-miterlimit:4;stroke-dasharray:none;stroke-opacity:1;" />
  <path
     id="path153"
     d="  M 825.39512,578.99   L 825.39512,213.58788  "
     style="fill:none;stroke:#000000;stroke-width:1.378876px;stroke-linecap:round;stroke-linejoin:round;stroke-miterlimit:4;stroke-dasharray:none;stroke-opacity:1;" />
  <path
     id="path155"
     d="  M 451.71975,578.99   L 451.71975,213.58788  "
     style="fill:none;stroke:#000000;stroke-width:1.378876px;stroke-linecap:round;stroke-linejoin:round;stroke-miterlimit:4;stroke-dasharray:none;stroke-opacity:1;" />
  <text
     id="text161"
     y="21.642563"
     x="0.000000"
     transform="matrix(1.000000,-0.000000,0.000000,1.000000,538.588933,219.103383)"
     style="font-size:31.687500px;font-style:normal;font-variant:normal;font-weight:400;font-stretch:Normal;line-height:125.000000%;letter-spacing:0px;word-spacing:0px;fill:#000000;fill-opacity:1;stroke:none;font-family:Times;text-align:start;text-anchor:start;"
     xml:space="preserve"><tspan
       id="tspan159"
       y="21.642563"
       x="0.000000"><tspan
         id="tspan157"
         style="fill:#000000;font-size:31.687500px;font-style:normal;font-variant:normal;font-weight:400;font-stretch:Normal;font-family:Times;"
         dy="0.000000"
         dx="0.000000">A</tspan></tspan></text>
  <path
     id="path163"
     d="  M 538.58893,246.6809   M 464.12963,237.02877   L 531.69455,237.02877  "
     style="fill:none;stroke:#ff0000;stroke-width:5.5155039px;stroke-linecap:butt;stroke-linejoin:round;stroke-miterlimit:4;stroke-dasharray:none;stroke-opacity:1;" />
  <text
     id="text169"
     y="21.642563"
     x="0.000000"
     transform="matrix(1.000000,-0.000000,0.000000,1.000000,538.588933,259.090785)"
     style="font-size:31.687500px;font-style:normal;font-variant:normal;font-weight:400;font-stretch:Normal;line-height:125.000000%;letter-spacing:0px;word-spacing:0px;fill:#000000;fill-opacity:1;stroke:none;font-family:Times;text-align:start;text-anchor:start;"
     xml:space="preserve"><tspan
       id="tspan167"
       y="21.642563"
       x="0.000000"><tspan
         id="tspan165"
         style="fill:#000000;font-size:31.687500px;font-style:normal;font-variant:normal;font-weight:400;font-stretch:Normal;font-family:Times;"
         dy="0.000000"
         dx="0.000000">B</tspan></tspan></text>
  <path
     id="path171"
     d="  M 497.22266,237.02877   M 538.58893,286.6683   M 464.12963,277.01617   L 531.69455,277.01617  "
     style="fill:none;stroke:#00ff00;stroke-width:5.5155039px;stroke-linecap:butt;stroke-linejoin:round;stroke-miterlimit:4;stroke-dasharray:none;stroke-opacity:1;" />
  <text
     id="text177"
     y="21.642563"
     x="0.000000"
     transform="matrix(1.000000,-0.000000,0.000000,1.000000,538.588933,299.078186)"
     style="font-size:31.687500px;font-style:normal;font-variant:normal;font-weight:400;font-stretch:Normal;line-height:125.000000%;letter-spacing:0px;word-spacing:0px;fill:#000000;fill-opacity:1;stroke:none;font-family:Times;text-align:start;text-anchor:start;"
     xml:space="preserve"><tspan
       id="tspan175"
       y="21.642563"
       x="0.000000"><tspan
         id="tspan173"
         style="fill:#000000;font-size:31.687500px;font-style:normal;font-variant:normal;font-weight:400;font-stretch:Normal;font-family:Times;"
         dy="0.000000"
         dx="0.000000">C</tspan></tspan></text>
  <path
     id="path179"
     d="  M 497.22266,277.01617   M 538.58893,326.6557   M 464.12963,315.6247   L 531.69455,315.6247  "
     style="fill:none;stroke:#0000ff;stroke-width:5.5155039px;stroke-linecap:butt;stroke-linejoin:round;stroke-miterlimit:4;stroke-dasharray:none;stroke-opacity:1;" />
  <text
     id="text185"
     y="21.642563"
     x="0.000000"
     transform="matrix(1.000000,-0.000000,0.000000,1.000000,538.588933,339.065588)"
     style="font-size:31.687500px;font-style:normal;font-variant:normal;font-weight:400;font-stretch:Normal;line-height:125.000000%;letter-spacing:0px;word-spacing:0px;fill:#000000;fill-opacity:1;stroke:none;font-family:Times;text-align:start;text-anchor:start;"
     xml:space="preserve"><tspan
       id="tspan183"
       y="21.642563"
       x="0.000000"><tspan
         id="tspan181"
         style="fill:#000000;font-size:31.687500px;font-style:normal;font-variant:normal;font-weight:400;font-stretch:Normal;font-family:Times;"
         dy="0.000000"
         dx="0.000000">D</tspan></tspan></text>
  <path
     id="path187"
     d="  M 497.22266,315.6247   M 538.58893,366.64311   M 464.12963,355.6121   L 531.69455,355.6121  "
     style="fill:none;stroke:#ff00ff;stroke-width:5.5155039px;stroke-linecap:butt;stroke-linejoin:round;stroke-miterlimit:4;stroke-dasharray:none;stroke-opacity:1;" />
  <text
     id="text193"
     y="21.642563"
     x="0.000000"
     transform="matrix(1.000000,-0.000000,0.000000,1.000000,538.588933,379.052989)"
     style="font-size:31.687500px;font-style:normal;font-variant:normal;font-weight:400;font-stretch:Normal;line-height:125.000000%;letter-spacing:0px;word-spacing:0px;fill:#000000;fill-opacity:1;stroke:none;font-family:Times;text-align:start;text-anchor:start;"
     xml:space="preserve"><tspan
       id="tspan191"
       y="21.642563"
       x="0.000000"><tspan
         id="tspan189"
         style="fill:#000000;font-size:31.687500px;font-style:normal;font-variant:normal;font-weight:400;font-stretch:Normal;font-family:Times;"
         dy="0.000000"
         dx="0.000000">E</tspan></tspan></text>
  <path
     id="path195"
     d="  M 497.22266,355.6121   M 538.58893,406.63051   M 464.12963,395.5995   L 531.69455,395.5995  "
     style="fill:none;stroke:#000000;stroke-width:5.5155039px;stroke-linecap:butt;stroke-linejoin:round;stroke-miterlimit:4;stroke-dasharray:none;stroke-opacity:1;" />
  <text
     id="text201"
     y="21.642563"
     x="0.000000"
     transform="matrix(1.000000,-0.000000,0.000000,1.000000,538.588933,419.040391)"
     style="font-size:31.687500px;font-style:normal;font-variant:normal;font-weight:400;font-stretch:Normal;line-height:125.000000%;letter-spacing:0px;word-spacing:0px;fill:#000000;fill-opacity:1;stroke:none;font-family:Times;text-align:start;text-anchor:start;"
     xml:space="preserve"><tspan
       id="tspan199"
       y="21.642563"
       x="0.000000"><tspan
         id="tspan197"
         style="fill:#000000;font-size:31.687500px;font-style:normal;font-variant:normal;font-weight:400;font-stretch:Normal;font-family:Times;"
         dy="0.000000"
         dx="0.000000">F</tspan></tspan></text>
  <path
     id="path203"
     d="  M 497.22266,395.5995   M 538.58893,446.61791   M 464.12963,435.5869   L 531.69455,435.5869  "
     style="fill:none;stroke:#4cb299;stroke-width:4.1366277px;stroke-linecap:butt;stroke-linejoin:round;stroke-miterlimit:4;stroke-dasharray:none;stroke-opacity:1;" />
  <text
     id="text209"
     y="21.642563"
     x="0.000000"
     transform="matrix(1.000000,-0.000000,0.000000,1.000000,538.588933,459.027793)"
     style="font-size:31.687500px;font-style:normal;font-variant:normal;font-weight:400;font-stretch:Normal;line-height:125.000000%;letter-spacing:0px;word-spacing:0px;fill:#000000;fill-opacity:1;stroke:none;font-family:Times;text-align:start;text-anchor:start;"
     xml:space="preserve"><tspan
       id="tspan207"
       y="21.642563"
       x="0.000000"><tspan
         id="tspan205"
         style="fill:#000000;font-size:31.687500px;font-style:normal;font-variant:normal;font-weight:400;font-stretch:Normal;font-family:Times;"
         dy="0.000000"
         dx="0.000000">E no EM</tspan></tspan></text>
  <path
     id="path211"
     d="  M 497.22266,435.5869   M 538.58893,486.60531   M 464.12963,475.5743   L 531.69455,475.5743  "
     style="fill:none;stroke:#cc1966;stroke-width:4.1366277px;stroke-linecap:butt;stroke-linejoin:round;stroke-miterlimit:4;stroke-dasharray:none;stroke-opacity:1;" />
  <text
     id="text217"
     y="21.642563"
     x="0.000000"
     transform="matrix(1.000000,-0.000000,0.000000,1.000000,538.588933,499.015194)"
     style="font-size:31.687500px;font-style:normal;font-variant:normal;font-weight:400;font-stretch:Normal;line-height:125.000000%;letter-spacing:0px;word-spacing:0px;fill:#000000;fill-opacity:1;stroke:none;font-family:Times;text-align:start;text-anchor:start;"
     xml:space="preserve"><tspan
       id="tspan215"
       y="21.642563"
       x="0.000000"><tspan
         id="tspan213"
         style="fill:#000000;font-size:31.687500px;font-style:normal;font-variant:normal;font-weight:400;font-stretch:Normal;font-family:Times;"
         dy="0.000000"
         dx="0.000000">Original crashes</tspan></tspan></text>
  <path
     id="path219"
     d="  M 497.22266,475.5743   M 538.58893,526.59271   M 464.12963,514.18283   L 531.69455,514.18283  "
     style="fill:none;stroke:#e599cc;stroke-width:4.1366277px;stroke-linecap:butt;stroke-linejoin:round;stroke-miterlimit:4;stroke-dasharray:none;stroke-opacity:1;" />
  <text
     id="text225"
     y="21.642563"
     x="0.000000"
     transform="matrix(1.000000,-0.000000,0.000000,1.000000,538.588933,539.002596)"
     style="font-size:31.687500px;font-style:normal;font-variant:normal;font-weight:400;font-stretch:Normal;line-height:125.000000%;letter-spacing:0px;word-spacing:0px;fill:#000000;fill-opacity:1;stroke:none;font-family:Times;text-align:start;text-anchor:start;"
     xml:space="preserve"><tspan
       id="tspan223"
       y="21.642563"
       x="0.000000"><tspan
         id="tspan221"
         style="fill:#000000;font-size:31.687500px;font-style:normal;font-variant:normal;font-weight:400;font-stretch:Normal;font-family:Times;"
         dy="0.000000"
         dx="0.000000">NASS/CDS DeltaV*2</tspan></tspan></text>
  <path
     id="path227"
     d="  M 497.22266,514.18283   M 538.58893,566.58011   M 464.12963,554.17023   L 531.69455,554.17023  "
     style="fill:none;stroke:#b2e5e5;stroke-width:4.1366277px;stroke-linecap:butt;stroke-linejoin:round;stroke-miterlimit:4;stroke-dasharray:none;stroke-opacity:1;" />
</svg>
