<?xml version="1.0" encoding="UTF-8" standalone="no"?>
<svg
   xmlns:dc="http://purl.org/dc/elements/1.1/"
   xmlns:cc="http://creativecommons.org/ns#"
   xmlns:rdf="http://www.w3.org/1999/02/22-rdf-syntax-ns#"
   xmlns:svg="http://www.w3.org/2000/svg"
   xmlns="http://www.w3.org/2000/svg"
   xmlns:sodipodi="http://sodipodi.sourceforge.net/DTD/sodipodi-0.dtd"
   xmlns:inkscape="http://www.inkscape.org/namespaces/inkscape"
   width="100%"
   sodipodi:docname="ISS_driverModel.svg"
   inkscape:version="1.0beta1 (fe3e306, 2019-09-17)"
   id="ISSDriverModel"
   version="1.1"
   viewBox="0 0 127.17028 82.871376">
  <defs
     id="defs1038">
    <clipPath
       id="clipPath1761-7"
       clipPathUnits="userSpaceOnUse">
      <circle
         style="opacity:1;vector-effect:none;fill:#000000;fill-opacity:0.0429184;stroke:none;stroke-width:13.717;stroke-linecap:butt;stroke-linejoin:round;stroke-miterlimit:4;stroke-dasharray:none;stroke-dashoffset:0;stroke-opacity:1;paint-order:fill markers stroke"
         id="circle1763-3"
         cx="123.97619"
         cy="108.0119"
         r="106.64054" />
    </clipPath>
    <clipPath
       id="clipPath930-3"
       clipPathUnits="userSpaceOnUse">
      <rect
         y="-90.425591"
         x="438.45236"
         height="155.34822"
         width="68.791664"
         id="rect932-92"
         style="opacity:1;vector-effect:none;fill:#000000;fill-opacity:1;stroke:none;stroke-width:2.117;stroke-linecap:butt;stroke-linejoin:round;stroke-miterlimit:4;stroke-dasharray:none;stroke-dashoffset:0;stroke-opacity:1;paint-order:fill markers stroke" />
    </clipPath>
    <clipPath
       id="clipPath952-4"
       clipPathUnits="userSpaceOnUse">
      <rect
         transform="scale(-1,1)"
         style="opacity:1;vector-effect:none;fill:#000000;fill-opacity:1;stroke:none;stroke-width:2.47122;stroke-linecap:butt;stroke-linejoin:round;stroke-miterlimit:4;stroke-dasharray:none;stroke-dashoffset:0;stroke-opacity:1;paint-order:fill markers stroke"
         id="rect954-4"
         width="93.738098"
         height="155.34822"
         x="-438.45236"
         y="-90.425591" />
    </clipPath>
  </defs>
  <sodipodi:namedview
     inkscape:window-maximized="1"
     inkscape:window-y="27"
     inkscape:window-x="67"
     inkscape:window-height="1023"
     inkscape:window-width="1853"
     inkscape:snap-global="true"
     showgrid="false"
     inkscape:document-rotation="0"
     inkscape:current-layer="layer1"
     inkscape:document-units="mm"
     inkscape:cy="26.987322"
     inkscape:cx="-14.803716"
     inkscape:zoom="5.6"
     inkscape:pageshadow="2"
     inkscape:pageopacity="0.0"
     borderopacity="1.0"
     bordercolor="#666666"
     pagecolor="#ffffff"
     id="base"
     inkscape:object-paths="true" />
  <metadata
     id="metadata1041">
    <rdf:RDF>
      <cc:Work
         rdf:about="">
        <dc:format>image/svg+xml</dc:format>
        <dc:type
           rdf:resource="http://purl.org/dc/dcmitype/StillImage" />
        <dc:title />
      </cc:Work>
    </rdf:RDF>
  </metadata>
  <g
     transform="translate(-13.30608,-65.349548)"
     id="layer1"
     inkscape:groupmode="layer"
     inkscape:label="Layer 1">
    <path
       class="connector"
       style="fill:none;stroke:#ffffff;stroke-width:0.808819;stroke-linecap:butt;stroke-linejoin:miter;stroke-miterlimit:4;stroke-dasharray:none;stroke-opacity:1"
       d="M 38.598868,91.128026 C 88.922657,90.586958 97.476389,69.324044 115.22114,83.860735"
       id="connector1"
       inkscape:connector-curvature="0"
       sodipodi:nodetypes="cc" />
    <path
       class="connector"
       sodipodi:nodetypes="csc"
       inkscape:connector-curvature="0"
       id="connector2"
       d="m 114.42734,100.01854 c -3.5173,5.1997 -9.82512,14.63226 -23.75646,8.60714 -12.457584,-5.38774 -20.728221,-4.6667 -20.244542,4.07188"
       style="fill:none;stroke:#ffffff;stroke-width:0.808819;stroke-linecap:butt;stroke-linejoin:miter;stroke-miterlimit:4;stroke-dasharray:none;stroke-opacity:1" />
    <g
       id="ISS">
      <path
         d="m 108.8107,127.27324 c -5.3e-4,-0.67986 -1.25301,-2.86017 -1.68515,-3.28657 -1.32379,-1.36003 -12.276846,-3.28658 -12.276846,-3.28658 0,0 -6.74031,-5.77504 -8.22263,-6.80103 -0.82028,-1.026 -25.84007,-2.05199 -30.895248,-0.1125 -0.842432,0.5717 -2.185492,3.08144 -3.008932,4.9867 -1.02485,2.37164 -2.26807,5.24794 -1.32407,8.15991 0.73051,2.2531 3.24975,3.56998 3.24975,3.56998 l 2.63404,-0.004 c 0,8e-4 0,0.001 0,0.004 0,2.26865 1.95302,4.10771 4.36235,4.10771 2.40933,0 4.36264,-1.83906 4.36264,-4.10771 0,-0.004 -7.9e-4,-0.008 -7.9e-4,-0.0127 l 26.62785,-0.0284 c -2.6e-4,0.0138 -0.003,0.0271 -0.003,0.0406 0,2.26865 1.95331,4.10772 4.36264,4.10772 2.40935,0 4.362356,-1.83907 4.362356,-4.10772 0,-0.0167 -0.003,-0.0331 -0.003,-0.0497 l 6.25351,-0.006 c 0.90257,-1.01996 1.2041,-2.49335 1.20352,-3.17322 z"
         style="opacity:1;fill:#c7d9a4;fill-opacity:1;stroke:#326163;stroke-width:1.29187;stroke-linecap:butt;stroke-linejoin:round;stroke-miterlimit:10;stroke-dasharray:none;stroke-opacity:1;stop-opacity:1"
         id="path2384"
         inkscape:connector-curvature="0" />
      <g
         aria-label="Intelligent "
         transform="matrix(0.26458333,0,0,0.26458333,-24.181684,-6.106609)"
         style="font-style:normal;font-variant:normal;font-weight:500;font-stretch:normal;font-size:21.3333px;line-height:1.25;font-family:Ubuntu;-inkscape-font-specification:'Ubuntu, Medium';font-variant-ligatures:normal;font-variant-caps:normal;font-variant-numeric:normal;font-feature-settings:normal;text-align:start;letter-spacing:0px;word-spacing:0px;writing-mode:lr-tb;text-anchor:start;opacity:1;fill:#ffffff;fill-opacity:1;stroke:none;stop-opacity:1"
         id="flowRoot1038">
        <path
           d="m 308.09879,465.2205 h 2.688 v 14.784 h -2.688 z"
           id="path2948"
           inkscape:connector-curvature="0" />
        <path
           d="m 314.22079,469.20983 q 0.74667,-0.21333 1.94134,-0.40533 1.19466,-0.192 2.64533,-0.192 1.36533,0 2.28267,0.384 0.91733,0.36266 1.45066,1.04533 0.55467,0.66133 0.768,1.62133 0.23467,0.93867 0.23467,2.06934 v 6.272 h -2.58133 v -5.86667 q 0,-0.896 -0.128,-1.51467 -0.10667,-0.64 -0.384,-1.024 -0.256,-0.40533 -0.72534,-0.576 -0.448,-0.192 -1.10933,-0.192 -0.49067,0 -1.024,0.064 -0.53333,0.064 -0.78933,0.10667 v 9.00267 h -2.58134 z"
           id="path2950"
           inkscape:connector-curvature="0" />
        <path
           d="m 326.59279,465.90316 2.58134,-0.42666 v 3.37066 h 3.968 v 2.15467 h -3.968 v 4.544 q 0,1.344 0.42666,1.92 0.42667,0.576 1.45067,0.576 0.704,0 1.23733,-0.14933 0.55467,-0.14934 0.87467,-0.27734 l 0.42667,2.048 q -0.448,0.192 -1.17334,0.384 -0.72533,0.21334 -1.70666,0.21334 -1.19467,0 -2.00534,-0.32 -0.78933,-0.32 -1.25866,-0.91734 -0.46934,-0.61866 -0.66134,-1.472 -0.192,-0.87466 -0.192,-1.984 z"
           id="path2952"
           inkscape:connector-curvature="0" />
        <path
           d="m 334.81046,474.47916 q 0,-1.472 0.42667,-2.58133 0.448,-1.10933 1.17333,-1.83467 0.72533,-0.74666 1.664,-1.10933 0.93867,-0.384 1.92,-0.384 2.304,0 3.584,1.42933 1.30133,1.42934 1.30133,4.26667 0,0.21333 -0.0213,0.49067 0,0.256 -0.0213,0.46933 h -7.36 q 0.10666,1.344 0.93866,2.09067 0.85334,0.72533 2.45334,0.72533 0.93866,0 1.70666,-0.17067 0.78934,-0.17066 1.23734,-0.36266 l 0.34133,2.112 q -0.21333,0.10666 -0.59733,0.23466 -0.36267,0.10667 -0.85334,0.192 -0.46933,0.10667 -1.024,0.17067 -0.55466,0.064 -1.13066,0.064 -1.472,0 -2.56,-0.42667 -1.088,-0.448 -1.792,-1.216 -0.704,-0.78933 -1.04534,-1.83466 -0.34133,-1.06667 -0.34133,-2.32534 z m 7.488,-1.152 q 0,-0.53333 -0.14933,-1.00266 -0.14934,-0.49067 -0.448,-0.832 -0.27734,-0.36267 -0.704,-0.55467 -0.40534,-0.21333 -0.98134,-0.21333 -0.59733,0 -1.04533,0.23466 -0.448,0.21334 -0.768,0.576 -0.29867,0.36267 -0.46933,0.832 -0.17067,0.46934 -0.23467,0.96 z"
           id="path2954"
           inkscape:connector-curvature="0" />
        <path
           d="m 351.47846,480.21783 q -1.152,-0.0213 -1.92,-0.256 -0.74667,-0.23467 -1.19467,-0.66133 -0.448,-0.448 -0.64,-1.088 -0.17066,-0.66134 -0.17066,-1.49334 V 463.8765 l 2.58133,-0.42667 v 12.77867 q 0,0.46933 0.064,0.78933 0.0853,0.32 0.27733,0.55467 0.192,0.21333 0.512,0.34133 0.34134,0.10667 0.85334,0.17067 z"
           id="path2956"
           inkscape:connector-curvature="0" />
        <path
           d="m 357.81179,480.21783 q -1.152,-0.0213 -1.92,-0.256 -0.74666,-0.23467 -1.19466,-0.66133 -0.448,-0.448 -0.64,-1.088 -0.17067,-0.66134 -0.17067,-1.49334 V 463.8765 l 2.58133,-0.42667 v 12.77867 q 0,0.46933 0.064,0.78933 0.0853,0.32 0.27734,0.55467 0.192,0.21333 0.512,0.34133 0.34133,0.10667 0.85333,0.17067 z"
           id="path2958"
           inkscape:connector-curvature="0" />
        <path
           d="m 362.86513,480.0045 h -2.58134 v -11.15734 h 2.58134 z m 0.27733,-14.42134 q 0,0.72534 -0.46933,1.152 -0.46934,0.42667 -1.10934,0.42667 -0.66133,0 -1.13066,-0.42667 -0.46934,-0.42666 -0.46934,-1.152 0,-0.74666 0.46934,-1.17333 0.46933,-0.42667 1.13066,-0.42667 0.64,0 1.10934,0.42667 0.46933,0.42667 0.46933,1.17333 z"
           id="path2960"
           inkscape:connector-curvature="0" />
        <path
           d="m 368.16413,474.13783 q 0,1.64267 0.704,2.41067 0.72533,0.74666 1.856,0.74666 0.61866,0 1.152,-0.17066 0.55466,-0.17067 0.896,-0.40534 v -5.78133 q -0.27734,-0.064 -0.68267,-0.10667 -0.40533,-0.064 -1.024,-0.064 -1.408,0 -2.15467,0.93867 -0.74666,0.91733 -0.74666,2.432 z m 7.18933,4.736 q 0,2.66667 -1.36533,3.904 -1.344,1.23733 -4.13867,1.23733 -1.024,0 -2.00533,-0.17066 -0.96,-0.17067 -1.74934,-0.448 l 0.46934,-2.19734 q 0.66133,0.27734 1.49333,0.448 0.85333,0.17067 1.83467,0.17067 1.55733,0 2.21866,-0.64 0.66134,-0.64 0.66134,-1.89867 v -0.42666 q -0.384,0.192 -1.024,0.384 -0.61867,0.192 -1.42934,0.192 -1.06666,0 -1.96266,-0.34134 -0.87467,-0.34133 -1.51467,-1.00266 -0.61867,-0.66134 -0.98133,-1.64267 -0.34134,-1.00267 -0.34134,-2.304 0,-1.216 0.36267,-2.24 0.384,-1.024 1.088,-1.74933 0.72533,-0.72534 1.74933,-1.13067 1.024,-0.40533 2.32534,-0.40533 1.25866,0 2.38933,0.192 1.13067,0.192 1.92,0.40533 z"
           id="path2962"
           inkscape:connector-curvature="0" />
        <path
           d="m 378.0188,474.47916 q 0,-1.472 0.42666,-2.58133 0.448,-1.10933 1.17334,-1.83467 0.72533,-0.74666 1.664,-1.10933 0.93866,-0.384 1.92,-0.384 2.304,0 3.584,1.42933 1.30133,1.42934 1.30133,4.26667 0,0.21333 -0.0213,0.49067 0,0.256 -0.0213,0.46933 h -7.36 q 0.10667,1.344 0.93867,2.09067 0.85333,0.72533 2.45333,0.72533 0.93867,0 1.70667,-0.17067 0.78933,-0.17066 1.23733,-0.36266 l 0.34134,2.112 q -0.21334,0.10666 -0.59734,0.23466 -0.36266,0.10667 -0.85333,0.192 -0.46933,0.10667 -1.024,0.17067 -0.55467,0.064 -1.13067,0.064 -1.472,0 -2.56,-0.42667 -1.088,-0.448 -1.792,-1.216 -0.704,-0.78933 -1.04533,-1.83466 -0.34133,-1.06667 -0.34133,-2.32534 z m 7.488,-1.152 q 0,-0.53333 -0.14934,-1.00266 -0.14933,-0.49067 -0.448,-0.832 -0.27733,-0.36267 -0.704,-0.55467 -0.40533,-0.21333 -0.98133,-0.21333 -0.59733,0 -1.04533,0.23466 -0.448,0.21334 -0.768,0.576 -0.29867,0.36267 -0.46934,0.832 -0.17066,0.46934 -0.23466,0.96 z"
           id="path2964"
           inkscape:connector-curvature="0" />
        <path
           d="m 390.80413,469.20983 q 0.74666,-0.21333 1.94133,-0.40533 1.19467,-0.192 2.64533,-0.192 1.36534,0 2.28267,0.384 0.91733,0.36266 1.45067,1.04533 0.55466,0.66133 0.768,1.62133 0.23466,0.93867 0.23466,2.06934 v 6.272 h -2.58133 v -5.86667 q 0,-0.896 -0.128,-1.51467 -0.10667,-0.64 -0.384,-1.024 -0.256,-0.40533 -0.72533,-0.576 -0.448,-0.192 -1.10934,-0.192 -0.49066,0 -1.024,0.064 -0.53333,0.064 -0.78933,0.10667 v 9.00267 h -2.58133 z"
           id="path2966"
           inkscape:connector-curvature="0" />
        <path
           d="m 403.17613,465.90316 2.58133,-0.42666 v 3.37066 h 3.968 v 2.15467 h -3.968 v 4.544 q 0,1.344 0.42667,1.92 0.42666,0.576 1.45066,0.576 0.704,0 1.23734,-0.14933 0.55466,-0.14934 0.87466,-0.27734 l 0.42667,2.048 q -0.448,0.192 -1.17333,0.384 -0.72534,0.21334 -1.70667,0.21334 -1.19467,0 -2.00533,-0.32 -0.78934,-0.32 -1.25867,-0.91734 -0.46933,-0.61866 -0.66133,-1.472 -0.192,-0.87466 -0.192,-1.984 z"
           id="path2968"
           inkscape:connector-curvature="0" />
      </g>
      <g
         aria-label="safety system"
         transform="matrix(0.26458333,0,0,0.26458333,-23.986951,-0.247978)"
         style="font-style:normal;font-variant:normal;font-weight:500;font-stretch:normal;font-size:21.3333px;line-height:1.25;font-family:Ubuntu;-inkscape-font-specification:'Ubuntu, Medium';font-variant-ligatures:normal;font-variant-caps:normal;font-variant-numeric:normal;font-feature-settings:normal;text-align:start;letter-spacing:0px;word-spacing:0px;writing-mode:lr-tb;text-anchor:start;opacity:1;fill:#ffffff;fill-opacity:1;stroke:none;stop-opacity:1"
         id="flowRoot1920">
        <path
           d="m 310.76546,478.1485 q 1.024,0 1.49333,-0.23467 0.46934,-0.256 0.46934,-0.85333 0,-0.55467 -0.512,-0.91734 -0.49067,-0.36266 -1.64267,-0.78933 -0.704,-0.256 -1.30133,-0.53333 -0.576,-0.29867 -1.00267,-0.68267 -0.42667,-0.384 -0.68267,-0.91733 -0.23466,-0.55467 -0.23466,-1.344 0,-1.536 1.13066,-2.41067 1.13067,-0.896 3.072,-0.896 0.98134,0 1.87734,0.192 0.896,0.17067 1.344,0.34133 l -0.46934,2.09067 q -0.42666,-0.192 -1.088,-0.34133 -0.66133,-0.17067 -1.536,-0.17067 -0.78933,0 -1.28,0.27733 -0.49066,0.256 -0.49066,0.81067 0,0.27733 0.0853,0.49067 0.10667,0.21333 0.34133,0.40533 0.23467,0.17067 0.61867,0.36267 0.384,0.17066 0.93867,0.36266 0.91733,0.34134 1.55733,0.68267 0.64,0.32 1.04533,0.74667 0.42667,0.40533 0.61867,0.93866 0.192,0.53334 0.192,1.28 0,1.6 -1.19467,2.432 -1.17333,0.81067 -3.37066,0.81067 -1.472,0 -2.368,-0.256 -0.896,-0.23467 -1.25867,-0.384 l 0.448,-2.15467 q 0.576,0.23467 1.36533,0.448 0.81067,0.21334 1.83467,0.21334 z"
           id="path2923"
           inkscape:connector-curvature="0" />
        <path
           d="m 321.64613,478.19116 q 1.19466,0 1.81333,-0.128 v -2.85866 q -0.21333,-0.064 -0.61867,-0.128 -0.40533,-0.064 -0.896,-0.064 -0.42666,0 -0.87466,0.064 -0.42667,0.064 -0.78934,0.23466 -0.34133,0.17067 -0.55466,0.49067 -0.21334,0.29867 -0.21334,0.768 0,0.91733 0.576,1.28 0.576,0.34133 1.55734,0.34133 z m -0.21334,-9.62133 q 1.28,0 2.15467,0.32 0.87467,0.32 1.38667,0.896 0.53333,0.576 0.74666,1.408 0.23467,0.81067 0.23467,1.792 v 6.76267 q -0.59733,0.128 -1.81333,0.29866 -1.19467,0.192 -2.70934,0.192 -1.00266,0 -1.83466,-0.192 -0.832,-0.192 -1.42934,-0.61866 -0.576,-0.42667 -0.91733,-1.10934 -0.32,-0.68266 -0.32,-1.68533 0,-0.96 0.36267,-1.62133 0.384,-0.66134 1.024,-1.06667 0.64,-0.42667 1.472,-0.59733 0.85333,-0.192 1.77066,-0.192 0.42667,0 0.896,0.064 0.46934,0.0427 1.00267,0.17066 v -0.42666 q 0,-0.448 -0.10667,-0.85334 -0.10666,-0.40533 -0.384,-0.704 -0.256,-0.32 -0.704,-0.49066 -0.42666,-0.17067 -1.088,-0.17067 -0.896,0 -1.64266,0.128 -0.74667,0.128 -1.216,0.29867 l -0.32,-2.09067 q 0.49066,-0.17067 1.42933,-0.34133 0.93867,-0.17067 2.00533,-0.17067 z"
           id="path2925"
           inkscape:connector-curvature="0" />
        <path
           d="m 333.63979,463.44983 q 0.896,0 1.57867,0.17067 0.68267,0.14933 1.024,0.27733 l -0.49067,2.13333 q -0.36266,-0.17066 -0.85333,-0.27733 -0.46933,-0.10667 -1.024,-0.10667 -0.61867,0 -1.04533,0.192 -0.42667,0.17067 -0.68267,0.49067 -0.256,0.32 -0.36267,0.78933 -0.10666,0.448 -0.10666,0.98134 v 0.74666 h 4.05333 v 2.15467 h -4.05333 v 9.00267 h -2.58134 v -11.94667 q 0,-2.15467 1.13067,-3.37067 1.13067,-1.23733 3.41333,-1.23733 z"
           id="path2927"
           inkscape:connector-curvature="0" />
        <path
           d="m 336.81046,474.47916 q 0,-1.472 0.42667,-2.58133 0.448,-1.10933 1.17333,-1.83467 0.72533,-0.74666 1.664,-1.10933 0.93867,-0.384 1.92,-0.384 2.304,0 3.584,1.42933 1.30133,1.42934 1.30133,4.26667 0,0.21333 -0.0213,0.49067 0,0.256 -0.0213,0.46933 h -7.36 q 0.10666,1.344 0.93866,2.09067 0.85334,0.72533 2.45334,0.72533 0.93866,0 1.70666,-0.17067 0.78934,-0.17066 1.23734,-0.36266 l 0.34133,2.112 q -0.21333,0.10666 -0.59733,0.23466 -0.36267,0.10667 -0.85334,0.192 -0.46933,0.10667 -1.024,0.17067 -0.55466,0.064 -1.13066,0.064 -1.472,0 -2.56,-0.42667 -1.088,-0.448 -1.792,-1.216 -0.704,-0.78933 -1.04534,-1.83466 -0.34133,-1.06667 -0.34133,-2.32534 z m 7.488,-1.152 q 0,-0.53333 -0.14933,-1.00266 -0.14934,-0.49067 -0.448,-0.832 -0.27734,-0.36267 -0.704,-0.55467 -0.40534,-0.21333 -0.98134,-0.21333 -0.59733,0 -1.04533,0.23466 -0.448,0.21334 -0.768,0.576 -0.29867,0.36267 -0.46933,0.832 -0.17067,0.46934 -0.23467,0.96 z"
           id="path2929"
           inkscape:connector-curvature="0" />
        <path
           d="m 349.46779,465.90316 2.58134,-0.42666 v 3.37066 h 3.968 v 2.15467 h -3.968 v 4.544 q 0,1.344 0.42666,1.92 0.42667,0.576 1.45067,0.576 0.704,0 1.23733,-0.14933 0.55467,-0.14934 0.87467,-0.27734 l 0.42667,2.048 q -0.448,0.192 -1.17334,0.384 -0.72533,0.21334 -1.70666,0.21334 -1.19467,0 -2.00534,-0.32 -0.78933,-0.32 -1.25866,-0.91734 -0.46934,-0.61866 -0.66134,-1.472 -0.192,-0.87466 -0.192,-1.984 z"
           id="path2931"
           inkscape:connector-curvature="0" />
        <path
           d="m 367.62179,468.84716 q -1.728,6.35734 -4.01066,11.52 -0.42667,0.96 -0.87467,1.64267 -0.448,0.68267 -1.00267,1.13067 -0.55466,0.448 -1.23733,0.64 -0.68267,0.21333 -1.57867,0.21333 -0.59733,0 -1.19466,-0.128 -0.576,-0.128 -0.87467,-0.27733 l 0.46933,-2.06934 q 0.768,0.29867 1.51467,0.29867 1.00267,0 1.55733,-0.49067 0.576,-0.46933 1.00267,-1.472 -1.216,-2.34666 -2.34667,-5.12 -1.10933,-2.77333 -1.984,-5.888 h 2.752 q 0.21334,0.896 0.512,1.94134 0.32,1.04533 0.68267,2.13333 0.36267,1.06667 0.768,2.13333 0.40533,1.06667 0.81067,1.984 0.68266,-1.89866 1.28,-4.032 0.59733,-2.15466 1.088,-4.16 z"
           id="path2933"
           inkscape:connector-curvature="0" />
        <path
           d="m 377.34879,478.1485 q 1.024,0 1.49334,-0.23467 0.46933,-0.256 0.46933,-0.85333 0,-0.55467 -0.512,-0.91734 -0.49067,-0.36266 -1.64267,-0.78933 -0.704,-0.256 -1.30133,-0.53333 -0.576,-0.29867 -1.00267,-0.68267 -0.42666,-0.384 -0.68266,-0.91733 -0.23467,-0.55467 -0.23467,-1.344 0,-1.536 1.13067,-2.41067 1.13066,-0.896 3.072,-0.896 0.98133,0 1.87733,0.192 0.896,0.17067 1.344,0.34133 l -0.46933,2.09067 q -0.42667,-0.192 -1.088,-0.34133 -0.66134,-0.17067 -1.536,-0.17067 -0.78934,0 -1.28,0.27733 -0.49067,0.256 -0.49067,0.81067 0,0.27733 0.0853,0.49067 0.10667,0.21333 0.34134,0.40533 0.23466,0.17067 0.61866,0.36267 0.384,0.17066 0.93867,0.36266 0.91733,0.34134 1.55733,0.68267 0.64,0.32 1.04534,0.74667 0.42666,0.40533 0.61866,0.93866 0.192,0.53334 0.192,1.28 0,1.6 -1.19466,2.432 -1.17334,0.81067 -3.37067,0.81067 -1.472,0 -2.368,-0.256 -0.896,-0.23467 -1.25867,-0.384 l 0.448,-2.15467 q 0.576,0.23467 1.36534,0.448 0.81066,0.21334 1.83466,0.21334 z"
           id="path2935"
           inkscape:connector-curvature="0" />
        <path
           d="m 393.41346,468.84716 q -1.728,6.35734 -4.01067,11.52 -0.42666,0.96 -0.87466,1.64267 -0.448,0.68267 -1.00267,1.13067 -0.55467,0.448 -1.23733,0.64 -0.68267,0.21333 -1.57867,0.21333 -0.59733,0 -1.19467,-0.128 -0.576,-0.128 -0.87466,-0.27733 l 0.46933,-2.06934 q 0.768,0.29867 1.51467,0.29867 1.00266,0 1.55733,-0.49067 0.576,-0.46933 1.00267,-1.472 -1.216,-2.34666 -2.34667,-5.12 -1.10933,-2.77333 -1.984,-5.888 h 2.752 q 0.21333,0.896 0.512,1.94134 0.32,1.04533 0.68267,2.13333 0.36266,1.06667 0.768,2.13333 0.40533,1.06667 0.81066,1.984 0.68267,-1.89866 1.28,-4.032 0.59734,-2.15466 1.088,-4.16 z"
           id="path2937"
           inkscape:connector-curvature="0" />
        <path
           d="m 398.18213,478.1485 q 1.024,0 1.49333,-0.23467 0.46934,-0.256 0.46934,-0.85333 0,-0.55467 -0.512,-0.91734 -0.49067,-0.36266 -1.64267,-0.78933 -0.704,-0.256 -1.30133,-0.53333 -0.576,-0.29867 -1.00267,-0.68267 -0.42667,-0.384 -0.68267,-0.91733 -0.23466,-0.55467 -0.23466,-1.344 0,-1.536 1.13066,-2.41067 1.13067,-0.896 3.072,-0.896 0.98134,0 1.87734,0.192 0.896,0.17067 1.344,0.34133 l -0.46934,2.09067 q -0.42666,-0.192 -1.088,-0.34133 -0.66133,-0.17067 -1.536,-0.17067 -0.78933,0 -1.28,0.27733 -0.49066,0.256 -0.49066,0.81067 0,0.27733 0.0853,0.49067 0.10667,0.21333 0.34133,0.40533 0.23467,0.17067 0.61867,0.36267 0.384,0.17066 0.93867,0.36266 0.91733,0.34134 1.55733,0.68267 0.64,0.32 1.04533,0.74667 0.42667,0.40533 0.61867,0.93866 0.192,0.53334 0.192,1.28 0,1.6 -1.19467,2.432 -1.17333,0.81067 -3.37066,0.81067 -1.472,0 -2.368,-0.256 -0.896,-0.23467 -1.25867,-0.384 l 0.448,-2.15467 q 0.576,0.23467 1.36533,0.448 0.81067,0.21334 1.83467,0.21334 z"
           id="path2939"
           inkscape:connector-curvature="0" />
        <path
           d="m 405.00946,465.90316 2.58134,-0.42666 v 3.37066 h 3.968 v 2.15467 h -3.968 v 4.544 q 0,1.344 0.42666,1.92 0.42667,0.576 1.45067,0.576 0.704,0 1.23733,-0.14933 0.55467,-0.14934 0.87467,-0.27734 l 0.42667,2.048 q -0.448,0.192 -1.17334,0.384 -0.72533,0.21334 -1.70666,0.21334 -1.19467,0 -2.00534,-0.32 -0.78933,-0.32 -1.25866,-0.91734 -0.46934,-0.61866 -0.66134,-1.472 -0.192,-0.87466 -0.192,-1.984 z"
           id="path2941"
           inkscape:connector-curvature="0" />
        <path
           d="m 413.22713,474.47916 q 0,-1.472 0.42666,-2.58133 0.448,-1.10933 1.17334,-1.83467 0.72533,-0.74666 1.664,-1.10933 0.93866,-0.384 1.92,-0.384 2.304,0 3.584,1.42933 1.30133,1.42934 1.30133,4.26667 0,0.21333 -0.0213,0.49067 0,0.256 -0.0213,0.46933 h -7.36 q 0.10667,1.344 0.93867,2.09067 0.85333,0.72533 2.45333,0.72533 0.93867,0 1.70667,-0.17067 0.78933,-0.17066 1.23733,-0.36266 l 0.34134,2.112 q -0.21334,0.10666 -0.59734,0.23466 -0.36266,0.10667 -0.85333,0.192 -0.46933,0.10667 -1.024,0.17067 -0.55467,0.064 -1.13067,0.064 -1.472,0 -2.56,-0.42667 -1.088,-0.448 -1.792,-1.216 -0.704,-0.78933 -1.04533,-1.83466 -0.34133,-1.06667 -0.34133,-2.32534 z m 7.488,-1.152 q 0,-0.53333 -0.14934,-1.00266 -0.14933,-0.49067 -0.448,-0.832 -0.27733,-0.36267 -0.704,-0.55467 -0.40533,-0.21333 -0.98133,-0.21333 -0.59733,0 -1.04533,0.23466 -0.448,0.21334 -0.768,0.576 -0.29867,0.36267 -0.46934,0.832 -0.17066,0.46934 -0.23466,0.96 z"
           id="path2943"
           inkscape:connector-curvature="0" />
        <path
           d="m 432.3698,474.13783 q 0,-1.74933 -0.448,-2.51733 -0.42667,-0.78934 -1.62134,-0.78934 -0.42666,0 -0.93866,0.064 -0.512,0.064 -0.768,0.10667 v 9.00267 h -2.58134 v -10.79467 q 0.74667,-0.21333 1.94134,-0.40533 1.216,-0.192 2.56,-0.192 1.152,0 1.87733,0.29866 0.74667,0.29867 1.23733,0.78934 0.23467,-0.17067 0.59734,-0.36267 0.36266,-0.192 0.81066,-0.34133 0.448,-0.17067 0.93867,-0.27734 0.512,-0.10666 1.024,-0.10666 1.30133,0 2.13333,0.384 0.85334,0.36266 1.32267,1.04533 0.49067,0.66133 0.66133,1.62133 0.192,0.93867 0.192,2.06934 v 6.272 h -2.58133 v -5.86667 q 0,-1.74933 -0.42667,-2.51733 -0.42666,-0.78934 -1.64266,-0.78934 -0.61867,0 -1.17334,0.21334 -0.55466,0.192 -0.832,0.384 0.17067,0.53333 0.23467,1.13066 0.064,0.59734 0.064,1.28 v 6.16534 h -2.58133 z"
           id="path2945"
           inkscape:connector-curvature="0" />
      </g>
    </g>
    <g
       id="driverModel">
      <g
         id="g984">
        <path
           id="path979"
           style="opacity:1;vector-effect:none;fill:#9FB673;fill-opacity:1;stroke:none;stroke-width:0.390148;stroke-linecap:butt;stroke-linejoin:miter;stroke-miterlimit:4;stroke-dasharray:none;stroke-dashoffset:0;stroke-opacity:1;paint-order:fill markers stroke;stop-opacity:1"
           d="m 120.25397,94.765756 a 2.6207809,2.6207809 0 0 0 0.48808,0.01807 0.54189081,1.2611278 7.6717238 0 0 0.1292,-0.541349 0.54189081,1.2611278 7.6717238 0 0 0.0197,-0.205521 1.8916913,1.8916913 0 0 0 0.8406,-0.349921 1.2611278,0.54189081 37.671724 0 0 0.16263,0.135325 1.2611278,0.54189081 37.671724 0 0 0.47235,0.294627 2.6207811,2.6207811 0 0 0 0.33452,-0.356255 2.6207811,2.6207811 0 0 0 0.25969,-0.41365 1.2611278,0.54189081 37.671724 0 0 -0.40423,-0.382569 1.2611278,0.54189081 37.671724 0 0 -0.1839,-0.130415 1.8916913,1.8916913 0 0 0 0.106,-0.413121 1.8916913,1.8916913 0 0 0 0.003,-0.471708 0.54189081,1.2611278 67.671724 0 0 0.2229,-0.08067 0.54189081,1.2611278 67.671724 0 0 0.49133,-0.261762 2.6207811,2.6207811 0 0 0 -0.14126,-0.467831 2.6207811,2.6207811 0 0 0 -0.22839,-0.431715 0.54189081,1.2611278 67.671724 0 0 -0.53342,0.158781 0.54189081,1.2611278 67.671724 0 0 -0.22716,0.104926 1.8916913,1.8916913 0 0 0 -0.69375,-0.530116 0.54189081,1.2611278 7.6717238 0 0 0.0456,-0.250621 0.54189081,1.2611278 7.6717238 0 0 0.019,-0.556389 2.6207811,2.6207811 0 0 0 -0.47579,-0.111577 2.6207811,2.6207811 0 0 0 -0.48807,-0.01806 0.54189081,1.2611278 7.6717238 0 0 -0.1292,0.541348 0.54189081,1.2611278 7.6717238 0 0 -0.0228,0.25369 1.8916913,1.8916913 0 0 0 -0.80988,0.327447 1.2611278,0.54189081 37.671724 0 0 -0.19019,-0.161018 1.2611278,0.54189081 37.671724 0 0 -0.47236,-0.294628 2.6207811,2.6207811 0 0 0 -0.33452,0.356255 2.6207811,2.6207811 0 0 0 -0.25969,0.413649 1.2611278,0.54189081 37.671724 0 0 0.40423,0.382569 1.2611278,0.54189081 37.671724 0 0 0.19424,0.137373 1.8916913,1.8916913 0 0 0 -0.12292,0.454995 1.8916913,1.8916913 0 0 0 -0.007,0.426067 0.54189081,1.2611278 67.671724 0 0 -0.21233,0.07749 0.54189081,1.2611278 67.671724 0 0 -0.49134,0.261769 2.6207811,2.6207811 0 0 0 0.14126,0.467823 2.6207811,2.6207811 0 0 0 0.22839,0.431714 0.54189081,1.2611278 67.671724 0 0 0.53343,-0.158779 0.54189081,1.2611278 67.671724 0 0 0.19386,-0.08866 1.8916913,1.8916913 0 0 0 0.71636,0.561032 0.54189081,1.2611278 7.6717238 0 0 -0.0349,0.203439 0.54189081,1.2611278 7.6717238 0 0 -0.019,0.556389 2.6207809,2.6207809 0 0 0 0.47578,0.111577 z m 0.3137,-2.328808 a 0.29557682,0.29557682 0 0 1 -0.25347,-0.33239 0.29557682,0.29557682 0 0 1 0.33239,-0.253465 0.29557682,0.29557682 0 0 1 0.25347,0.332382 0.29557682,0.29557682 0 0 1 -0.33239,0.253473 z"
           inkscape:connector-curvature="0"
           class="cog" />
        <path
           id="path977"
           style="opacity:1;vector-effect:none;fill:#C7D9A4;fill-opacity:1;stroke:none;stroke-width:0.390148;stroke-linecap:butt;stroke-linejoin:miter;stroke-miterlimit:4;stroke-dasharray:none;stroke-dashoffset:0;stroke-opacity:1;paint-order:fill markers stroke;stop-opacity:1"
           d="m 119.49555,90.131528 a 2.6207809,2.6207809 0 0 0 0.48807,0.01806 0.54189081,1.2611278 7.6717238 0 0 0.12921,-0.541348 0.54189081,1.2611278 7.6717238 0 0 0.0197,-0.205522 1.8916913,1.8916913 0 0 0 0.8406,-0.34992 1.2611278,0.54189081 37.671724 0 0 0.16262,0.135324 1.2611278,0.54189081 37.671724 0 0 0.47236,0.294628 2.6207811,2.6207811 0 0 0 0.33452,-0.356255 2.6207811,2.6207811 0 0 0 0.25968,-0.41365 1.2611278,0.54189081 37.671724 0 0 -0.40422,-0.382569 1.2611278,0.54189081 37.671724 0 0 -0.1839,-0.130415 1.8916913,1.8916913 0 0 0 0.106,-0.413121 1.8916913,1.8916913 0 0 0 0.003,-0.471709 0.54189081,1.2611278 67.671724 0 0 0.22291,-0.08067 0.54189081,1.2611278 67.671724 0 0 0.49133,-0.261762 2.6207811,2.6207811 0 0 0 -0.14127,-0.467831 2.6207811,2.6207811 0 0 0 -0.22838,-0.431715 0.54189081,1.2611278 67.671724 0 0 -0.53343,0.158781 0.54189081,1.2611278 67.671724 0 0 -0.22715,0.104926 1.8916913,1.8916913 0 0 0 -0.69376,-0.530116 0.54189081,1.2611278 7.6717238 0 0 0.0456,-0.250621 0.54189081,1.2611278 7.6717238 0 0 0.019,-0.55639 2.6207811,2.6207811 0 0 0 -0.47579,-0.111577 2.6207811,2.6207811 0 0 0 -0.48807,-0.01806 0.54189081,1.2611278 7.6717238 0 0 -0.1292,0.541348 0.54189081,1.2611278 7.6717238 0 0 -0.0228,0.25369 1.8916913,1.8916913 0 0 0 -0.80988,0.327446 1.2611278,0.54189081 37.671724 0 0 -0.19019,-0.161017 1.2611278,0.54189081 37.671724 0 0 -0.47236,-0.294629 2.6207811,2.6207811 0 0 0 -0.33452,0.356255 2.6207811,2.6207811 0 0 0 -0.25969,0.41365 1.2611278,0.54189081 37.671724 0 0 0.40423,0.382569 1.2611278,0.54189081 37.671724 0 0 0.19423,0.137373 1.8916913,1.8916913 0 0 0 -0.12291,0.454995 1.8916913,1.8916913 0 0 0 -0.007,0.426067 0.54189081,1.2611278 67.671724 0 0 -0.21233,0.07748 0.54189081,1.2611278 67.671724 0 0 -0.49134,0.26177 2.6207811,2.6207811 0 0 0 0.14126,0.467822 2.6207811,2.6207811 0 0 0 0.22839,0.431715 0.54189081,1.2611278 67.671724 0 0 0.53343,-0.158779 0.54189081,1.2611278 67.671724 0 0 0.19386,-0.08866 1.8916913,1.8916913 0 0 0 0.71636,0.561032 0.54189081,1.2611278 7.6717238 0 0 -0.0349,0.203438 0.54189081,1.2611278 7.6717238 0 0 -0.019,0.55639 2.6207809,2.6207809 0 0 0 0.47578,0.111577 z m 0.3137,-2.328808 a 0.29557682,0.29557682 0 0 1 -0.25347,-0.332391 0.29557682,0.29557682 0 0 1 0.33239,-0.253464 0.29557682,0.29557682 0 0 1 0.25347,0.332382 0.29557682,0.29557682 0 0 1 -0.33239,0.253473 z"
           inkscape:connector-curvature="0"
           class="cog" />
        <path
           id="path975"
           inkscape:connector-curvature="0"
           d="m 121.36757,85.928442 a 2.6207809,2.6207809 0 0 0 0.48807,0.01806 0.54189081,1.2611278 7.6717238 0 0 0.12921,-0.541348 0.54189081,1.2611278 7.6717238 0 0 0.0197,-0.205522 1.8916913,1.8916913 0 0 0 0.84061,-0.34992 1.2611278,0.54189081 37.671724 0 0 0.16262,0.135324 1.2611278,0.54189081 37.671724 0 0 0.47236,0.294628 2.6207811,2.6207811 0 0 0 0.33452,-0.356255 2.6207811,2.6207811 0 0 0 0.25968,-0.41365 1.2611278,0.54189081 37.671724 0 0 -0.40423,-0.382569 1.2611278,0.54189081 37.671724 0 0 -0.18389,-0.130415 1.8916913,1.8916913 0 0 0 0.106,-0.413122 1.8916913,1.8916913 0 0 0 0.003,-0.471707 0.54189081,1.2611278 67.671724 0 0 0.22291,-0.08067 0.54189081,1.2611278 67.671724 0 0 0.49132,-0.261762 2.6207811,2.6207811 0 0 0 -0.14126,-0.467831 2.6207811,2.6207811 0 0 0 -0.22839,-0.431715 0.54189081,1.2611278 67.671724 0 0 -0.53342,0.158781 0.54189081,1.2611278 67.671724 0 0 -0.22715,0.104926 1.8916913,1.8916913 0 0 0 -0.69376,-0.530116 0.54189081,1.2611278 7.6717238 0 0 0.0456,-0.250622 0.54189081,1.2611278 7.6717238 0 0 0.019,-0.556388 2.6207811,2.6207811 0 0 0 -0.47578,-0.111578 2.6207811,2.6207811 0 0 0 -0.48807,-0.01806 0.54189081,1.2611278 7.6717238 0 0 -0.1292,0.541348 0.54189081,1.2611278 7.6717238 0 0 -0.0228,0.25369 1.8916913,1.8916913 0 0 0 -0.80988,0.327447 1.2611278,0.54189081 37.671724 0 0 -0.19018,-0.161018 1.2611278,0.54189081 37.671724 0 0 -0.47237,-0.294628 2.6207811,2.6207811 0 0 0 -0.33452,0.356254 2.6207811,2.6207811 0 0 0 -0.25968,0.41365 1.2611278,0.54189081 37.671724 0 0 0.40423,0.382569 1.2611278,0.54189081 37.671724 0 0 0.19423,0.137373 1.8916913,1.8916913 0 0 0 -0.12291,0.454995 1.8916913,1.8916913 0 0 0 -0.007,0.426067 0.54189081,1.2611278 67.671724 0 0 -0.21234,0.07748 0.54189081,1.2611278 67.671724 0 0 -0.49134,0.26177 2.6207811,2.6207811 0 0 0 0.14127,0.467822 2.6207811,2.6207811 0 0 0 0.22839,0.431715 0.54189081,1.2611278 67.671724 0 0 0.53343,-0.158779 0.54189081,1.2611278 67.671724 0 0 0.19386,-0.08866 1.8916913,1.8916913 0 0 0 0.71636,0.561032 0.54189081,1.2611278 7.6717238 0 0 -0.0349,0.203438 0.54189081,1.2611278 7.6717238 0 0 -0.019,0.55639 2.6207809,2.6207809 0 0 0 0.47578,0.111577 z m 0.3137,-2.328808 a 0.29557682,0.29557682 0 0 1 -0.25348,-0.332391 0.29557682,0.29557682 0 0 1 0.33239,-0.253464 0.29557682,0.29557682 0 0 1 0.25348,0.332382 0.29557682,0.29557682 0 0 1 -0.33239,0.253473 z"
           style="opacity:1;vector-effect:none;fill:#E7F1D3;fill-opacity:1;stroke:none;stroke-width:0.390148;stroke-linecap:butt;stroke-linejoin:miter;stroke-miterlimit:4;stroke-dasharray:none;stroke-dashoffset:0;stroke-opacity:1;paint-order:fill markers stroke;stop-opacity:1"
           class="cog" />
      </g>
      <g
         style="opacity:1;stop-opacity:1"
         transform="matrix(0.16794375,0,0,0.16794375,45.814638,92.197891)"
         id="driverLeft"
         clip-path="url(#clipPath952-4)">
        <path
           sodipodi:nodetypes="cscscc"
           inkscape:connector-curvature="0"
           id="path934"
           d="m 390.43927,50.29856 c 0,0 -6.37823,-43.8510047 -1.43292,-52.7315728 7.38688,-13.2650282 47.53309,-4.8668024 48.23825,-5.4451105 0.70516,0.5783081 40.85137,-7.8199177 48.23825,5.4451105 4.94531,8.8805681 -1.43293,52.7315728 -1.43293,52.7315728 -31.20425,0.417106 -62.4063,0.193821 -93.61065,0 z"
           style="fill:#d9bb8d;fill-opacity:1;stroke:none;stroke-width:0.200609px;stroke-linecap:butt;stroke-linejoin:miter;stroke-opacity:1" />
        <g
           transform="matrix(0.75820826,0,0,0.75820826,372.32953,-76.538081)"
           id="g944">
          <path
             style="opacity:1;vector-effect:none;fill:#fbe6b4;fill-opacity:1;stroke:none;stroke-width:1.74749;stroke-linecap:butt;stroke-linejoin:round;stroke-miterlimit:4;stroke-dasharray:none;stroke-dashoffset:0;stroke-opacity:1;paint-order:fill markers stroke"
             d="M 122.30525,56.04837 A 36.900558,45.362144 0 0 1 85.404694,101.41051 36.900558,45.362144 0 0 1 48.504135,56.04837 36.900558,45.362144 0 0 1 85.404694,10.686226 36.900558,45.362144 0 0 1 122.30525,56.04837 Z"
             id="path936"
             inkscape:connector-curvature="0" />
          <path
             style="fill:#733818;fill-opacity:1;stroke:none;stroke-width:0.404811px;stroke-linecap:butt;stroke-linejoin:miter;stroke-opacity:1"
             d="M 69.568069,41.172827 C 59.964096,45.625131 54.001581,35.489282 54.001581,35.489282 l 1.53713,31.497347 -3.263247,-0.447888 -2.9136,-15.601794 -2.211199,-6.355482 c 0,0 -7.208567,-37.6133126 37.917506,-39.2725771 46.229799,1.6617049 38.842299,39.2718701 38.842299,39.2718701 l -2.26608,6.354951 -2.98593,15.600488 -3.34425,0.447851 1.52962,-31.96909 c 0,0 -15.156,-8.732523 -47.275761,6.157869 z"
             id="path938"
             inkscape:connector-curvature="0"
             sodipodi:nodetypes="scccccccccccs" />
          <path
             transform="rotate(-7.7180788)"
             style="opacity:1;vector-effect:none;fill:#fbe6b4;fill-opacity:1;stroke:none;stroke-width:2.117;stroke-linecap:butt;stroke-linejoin:round;stroke-miterlimit:4;stroke-dasharray:none;stroke-dashoffset:0;stroke-opacity:1;paint-order:fill markers stroke"
             d="M 43.95155,62.383984 A 4.4412203,11.055803 0 0 1 39.51033,73.439787 4.4412203,11.055803 0 0 1 35.06911,62.383984 4.4412203,11.055803 0 0 1 39.51033,51.32818 4.4412203,11.055803 0 0 1 43.95155,62.383984 Z"
             id="path940"
             inkscape:connector-curvature="0" />
          <path
             transform="matrix(-0.99094087,-0.13429887,-0.13429887,0.99094087,0,0)"
             style="opacity:1;vector-effect:none;fill:#fbe6b4;fill-opacity:1;stroke:none;stroke-width:2.117;stroke-linecap:butt;stroke-linejoin:round;stroke-miterlimit:4;stroke-dasharray:none;stroke-dashoffset:0;stroke-opacity:1;paint-order:fill markers stroke"
             d="m -125.73004,39.387608 a 4.4412203,11.055803 0 0 1 -4.44122,11.055803 4.4412203,11.055803 0 0 1 -4.44122,-11.055803 4.4412203,11.055803 0 0 1 4.44122,-11.055804 4.4412203,11.055803 0 0 1 4.44122,11.055804 z"
             id="path942"
             inkscape:connector-curvature="0" />
        </g>
        <path
           inkscape:connector-curvature="0"
           id="path946"
           d="m 486.06865,-24.160785 -73.65226,75.018622 12.03655,-0.185253 61.61571,-69.101676 z"
           style="fill:#606060;fill-opacity:1;stroke:none;stroke-width:0.200609px;stroke-linecap:butt;stroke-linejoin:miter;stroke-opacity:1"
           sodipodi:nodetypes="ccccc" />
      </g>
      <g
         style="opacity:1;stop-opacity:1"
         inkscape:transform-center-y="-10.189778"
         inkscape:transform-center-x="-8.0149116"
         id="driverRight"
         transform="matrix(0.16794368,1.4635004e-4,-1.4635004e-4,0.16794368,45.807122,92.135266)"
         clip-path="url(#clipPath930-3)">
        <path
           style="fill:#d9bb8d;fill-opacity:1;stroke:none;stroke-width:0.200609px;stroke-linecap:butt;stroke-linejoin:miter;stroke-opacity:1"
           d="m 390.43927,50.29856 c 0,0 -6.37823,-43.8510047 -1.43292,-52.7315728 7.38688,-13.2650282 47.53309,-4.8668024 48.23825,-5.4451105 0.70516,0.5783081 40.85137,-7.8199177 48.23825,5.4451105 4.94531,8.8805681 -1.43293,52.7315728 -1.43293,52.7315728 -31.20425,0.417106 -62.4063,0.193821 -93.61065,0 z"
           id="driverShirt"
           inkscape:connector-curvature="0"
           sodipodi:nodetypes="cscscc" />
        <g
           id="driverHead"
           transform="matrix(0.75820826,0,0,0.75820826,372.32953,-76.538081)">
          <path
             inkscape:connector-curvature="0"
             id="path1424"
             d="M 122.30525,56.04837 A 36.900558,45.362144 0 0 1 85.404694,101.41051 36.900558,45.362144 0 0 1 48.504135,56.04837 36.900558,45.362144 0 0 1 85.404694,10.686226 36.900558,45.362144 0 0 1 122.30525,56.04837 Z"
             style="opacity:1;vector-effect:none;fill:#fbe6b4;fill-opacity:1;stroke:none;stroke-width:1.74749;stroke-linecap:butt;stroke-linejoin:round;stroke-miterlimit:4;stroke-dasharray:none;stroke-dashoffset:0;stroke-opacity:1;paint-order:fill markers stroke" />
          <path
             sodipodi:nodetypes="scccccccccccs"
             inkscape:connector-curvature="0"
             id="path1428"
             d="M 69.568069,41.172827 C 59.964096,45.625131 54.001581,35.489282 54.001581,35.489282 l 1.53713,31.497347 -3.263247,-0.447888 -2.9136,-15.601794 -2.211199,-6.355482 c 0,0 -7.208567,-37.6133126 37.917506,-39.2725771 46.229799,1.6617049 38.842299,39.2718701 38.842299,39.2718701 l -2.26608,6.354951 -2.98593,15.600488 -3.34425,0.447851 1.52962,-31.96909 c 0,0 -15.156,-8.732523 -47.275761,6.157869 z"
             style="fill:#733818;fill-opacity:1;stroke:none;stroke-width:0.404811px;stroke-linecap:butt;stroke-linejoin:miter;stroke-opacity:1" />
          <path
             inkscape:connector-curvature="0"
             id="path1430"
             d="M 43.95155,62.383984 A 4.4412203,11.055803 0 0 1 39.51033,73.439787 4.4412203,11.055803 0 0 1 35.06911,62.383984 4.4412203,11.055803 0 0 1 39.51033,51.32818 4.4412203,11.055803 0 0 1 43.95155,62.383984 Z"
             style="opacity:1;vector-effect:none;fill:#fbe6b4;fill-opacity:1;stroke:none;stroke-width:2.117;stroke-linecap:butt;stroke-linejoin:round;stroke-miterlimit:4;stroke-dasharray:none;stroke-dashoffset:0;stroke-opacity:1;paint-order:fill markers stroke"
             transform="rotate(-7.7180788)" />
          <path
             inkscape:connector-curvature="0"
             id="ellipse1437"
             d="m -125.73004,39.387608 a 4.4412203,11.055803 0 0 1 -4.44122,11.055803 4.4412203,11.055803 0 0 1 -4.44122,-11.055803 4.4412203,11.055803 0 0 1 4.44122,-11.055804 4.4412203,11.055803 0 0 1 4.44122,11.055804 z"
             style="opacity:1;vector-effect:none;fill:#fbe6b4;fill-opacity:1;stroke:none;stroke-width:2.117;stroke-linecap:butt;stroke-linejoin:round;stroke-miterlimit:4;stroke-dasharray:none;stroke-dashoffset:0;stroke-opacity:1;paint-order:fill markers stroke"
             transform="matrix(-0.99094087,-0.13429887,-0.13429887,0.99094087,0,0)" />
        </g>
        <path
           sodipodi:nodetypes="ccccc"
           style="fill:#606060;fill-opacity:1;stroke:none;stroke-width:0.200609px;stroke-linecap:butt;stroke-linejoin:miter;stroke-opacity:1"
           d="m 486.06865,-24.160785 -73.65226,75.018622 12.03655,-0.185253 61.61571,-69.101676 z"
           id="seatBelt"
           inkscape:connector-curvature="0" />
      </g>
      <g
         clip-path="none"
         transform="matrix(0.16794368,1.4635004e-4,-1.4635004e-4,0.16794368,45.807122,92.135266)"
         id="fulldriver"
         inkscape:transform-center-x="-8.0149116"
         inkscape:transform-center-y="-10.189778"
         style="opacity:1;stop-opacity:1">
        <path
           sodipodi:nodetypes="cscscc"
           inkscape:connector-curvature="0"
           id="path957"
           d="m 390.43927,50.29856 c 0,0 -6.37823,-43.8510047 -1.43292,-52.7315728 7.38688,-13.2650282 47.53309,-4.8668024 48.23825,-5.4451105 0.70516,0.5783081 40.85137,-7.8199177 48.23825,5.4451105 4.94531,8.8805681 -1.43293,52.7315728 -1.43293,52.7315728 -31.20425,0.417106 -62.4063,0.193821 -93.61065,0 z"
           style="fill:#d9bb8d;fill-opacity:1;stroke:none;stroke-width:0.200609px;stroke-linecap:butt;stroke-linejoin:miter;stroke-opacity:1" />
        <g
           transform="matrix(0.75820826,0,0,0.75820826,372.32953,-76.538081)"
           id="g967">
          <path
             style="opacity:1;vector-effect:none;fill:#fbe6b4;fill-opacity:1;stroke:none;stroke-width:1.74749;stroke-linecap:butt;stroke-linejoin:round;stroke-miterlimit:4;stroke-dasharray:none;stroke-dashoffset:0;stroke-opacity:1;paint-order:fill markers stroke"
             d="M 122.30525,56.04837 A 36.900558,45.362144 0 0 1 85.404694,101.41051 36.900558,45.362144 0 0 1 48.504135,56.04837 36.900558,45.362144 0 0 1 85.404694,10.686226 36.900558,45.362144 0 0 1 122.30525,56.04837 Z"
             id="path959"
             inkscape:connector-curvature="0" />
          <path
             style="fill:#733818;fill-opacity:1;stroke:none;stroke-width:0.404811px;stroke-linecap:butt;stroke-linejoin:miter;stroke-opacity:1"
             d="M 69.568069,41.172827 C 59.964096,45.625131 54.001581,35.489282 54.001581,35.489282 l 1.53713,31.497347 -3.263247,-0.447888 -2.9136,-15.601794 -2.211199,-6.355482 c 0,0 -7.208567,-37.6133126 37.917506,-39.2725771 46.229799,1.6617049 38.842299,39.2718701 38.842299,39.2718701 l -2.26608,6.354951 -2.98593,15.600488 -3.34425,0.447851 1.52962,-31.96909 c 0,0 -15.156,-8.732523 -47.275761,6.157869 z"
             id="path961"
             inkscape:connector-curvature="0"
             sodipodi:nodetypes="scccccccccccs" />
          <path
             transform="rotate(-7.7180788)"
             style="opacity:1;vector-effect:none;fill:#fbe6b4;fill-opacity:1;stroke:none;stroke-width:2.117;stroke-linecap:butt;stroke-linejoin:round;stroke-miterlimit:4;stroke-dasharray:none;stroke-dashoffset:0;stroke-opacity:1;paint-order:fill markers stroke"
             d="M 43.95155,62.383984 A 4.4412203,11.055803 0 0 1 39.51033,73.439787 4.4412203,11.055803 0 0 1 35.06911,62.383984 4.4412203,11.055803 0 0 1 39.51033,51.32818 4.4412203,11.055803 0 0 1 43.95155,62.383984 Z"
             id="path963"
             inkscape:connector-curvature="0" />
          <path
             transform="matrix(-0.99094087,-0.13429887,-0.13429887,0.99094087,0,0)"
             style="opacity:1;vector-effect:none;fill:#fbe6b4;fill-opacity:1;stroke:none;stroke-width:2.117;stroke-linecap:butt;stroke-linejoin:round;stroke-miterlimit:4;stroke-dasharray:none;stroke-dashoffset:0;stroke-opacity:1;paint-order:fill markers stroke"
             d="m -125.73004,39.387608 a 4.4412203,11.055803 0 0 1 -4.44122,11.055803 4.4412203,11.055803 0 0 1 -4.44122,-11.055803 4.4412203,11.055803 0 0 1 4.44122,-11.055804 4.4412203,11.055803 0 0 1 4.44122,11.055804 z"
             id="path965"
             inkscape:connector-curvature="0" />
        </g>
        <path
           inkscape:connector-curvature="0"
           id="path969"
           d="m 486.06865,-24.160785 -73.65226,75.018622 12.03655,-0.185253 61.61571,-69.101676 z"
           style="fill:#606060;fill-opacity:1;stroke:none;stroke-width:0.200609px;stroke-linecap:butt;stroke-linejoin:miter;stroke-opacity:1"
           sodipodi:nodetypes="ccccc" />
      </g>
    </g>
    <g
       id="driverAnalyses">
      <g
         id="magnifier">
        <circle
           id="circle210"
           r="9.5658588"
           cy="89.463409"
           cx="29.117659"
           style="opacity:1;vector-effect:none;fill:#c7d9a4;fill-opacity:1;stroke:none;stroke-width:0.189899;stroke-linecap:butt;stroke-linejoin:round;stroke-miterlimit:4;stroke-dasharray:none;stroke-dashoffset:0;stroke-opacity:1;paint-order:fill markers stroke;stop-opacity:1" />
        <circle
           r="9.5658588"
           cy="94.120979"
           cx="-7.6240954"
           id="circle1694"
           style="opacity:1;vector-effect:none;fill:none;fill-opacity:1;stroke:#326163;stroke-width:1.89869;stroke-linecap:butt;stroke-linejoin:round;stroke-miterlimit:4;stroke-dasharray:none;stroke-dashoffset:0;stroke-opacity:1;paint-order:fill markers stroke;stop-opacity:1"
           transform="rotate(-22.593849)" />
        <rect
           style="opacity:1;vector-effect:none;fill:#326163;fill-opacity:1;stroke:#326163;stroke-width:0.853693;stroke-linecap:butt;stroke-linejoin:miter;stroke-miterlimit:4;stroke-dasharray:none;stroke-dashoffset:0;stroke-opacity:1;paint-order:fill markers stroke;stop-opacity:1"
           id="rect1696"
           width="3.5962529"
           height="12.332956"
           x="-48.644562"
           y="92.699379"
           transform="rotate(-47.157257)" />
        <rect
           transform="rotate(-47.157257)"
           y="93.115532"
           x="-46.794342"
           height="11.486933"
           width="1.3283638"
           id="rect1765"
           style="opacity:1;vector-effect:none;fill:#ffffff;fill-opacity:0.0643777;stroke:none;stroke-width:0.853693;stroke-linecap:butt;stroke-linejoin:miter;stroke-miterlimit:4;stroke-dasharray:none;stroke-dashoffset:0;stroke-opacity:0.128755;paint-order:fill markers stroke;stop-opacity:1" />
        <path
           inkscape:connector-curvature="0"
           id="path1700"
           d="m 44.921571,103.25685 -1.411014,1.57642"
           style="opacity:1;fill:none;stroke:#326163;stroke-width:0.687565;stroke-linecap:butt;stroke-linejoin:miter;stroke-miterlimit:4;stroke-dasharray:none;stroke-opacity:1;stop-opacity:1"
           sodipodi:nodetypes="cc" />
        <path
           sodipodi:nodetypes="cccc"
           inkscape:connector-curvature="0"
           id="circle1767"
           d="m 25.446801,80.994791 c 4.877609,-2.029738 10.477122,0.278918 12.50686,5.156527 M 25.475752,98.67017 c -2.263297,-0.933147 -4.170609,-2.729713 -5.185478,-5.168518"
           style="opacity:1;vector-effect:none;fill:none;fill-opacity:1;stroke:#ffffff;stroke-width:0.237336;stroke-linecap:butt;stroke-linejoin:round;stroke-miterlimit:4;stroke-dasharray:none;stroke-dashoffset:0;stroke-opacity:1;paint-order:fill markers stroke;stop-opacity:1" />
      </g>
      <g
         id="driver">
        <path
           style="opacity:1;fill:#d9bb8d;fill-opacity:1;stroke:none;stroke-width:0.017995px;stroke-linecap:butt;stroke-linejoin:miter;stroke-opacity:1;stop-opacity:1"
           d="m 24.919132,94.946534 c 0,0 -0.57214,-3.933518 -0.128536,-4.730122 0.662617,-1.189898 4.263808,-0.436561 4.327062,-0.488436 0.06325,0.05187 3.664446,-0.701462 4.327063,0.488436 0.443604,0.796604 -0.128536,4.730122 -0.128536,4.730122 -2.799081,0.03742 -5.597964,0.01739 -8.397053,0 z"
           id="driverShirt-8"
           inkscape:connector-curvature="0"
           sodipodi:nodetypes="cscscc" />
        <g
           id="driverHead-8"
           transform="matrix(0.06801272,0,0,0.06801272,23.294653,83.569047)"
           style="opacity:1;stop-opacity:1">
          <ellipse
             ry="45.362144"
             rx="36.900558"
             cy="56.04837"
             cx="85.404694"
             id="path1424-9"
             style="opacity:1;vector-effect:none;fill:#fbe6b4;fill-opacity:1;stroke:none;stroke-width:1.74749;stroke-linecap:butt;stroke-linejoin:round;stroke-miterlimit:4;stroke-dasharray:none;stroke-dashoffset:0;stroke-opacity:1;paint-order:fill markers stroke" />
          <path
             sodipodi:nodetypes="scccccccccccs"
             inkscape:connector-curvature="0"
             id="path1428-2"
             d="M 69.568069,41.172827 C 59.964096,45.625131 54.001581,35.489282 54.001581,35.489282 l 1.53713,31.497347 -3.263247,-0.447888 -2.9136,-15.601794 -2.211199,-6.355482 c 0,0 -7.208567,-37.6133126 37.917506,-39.2725771 46.229799,1.6617049 38.842299,39.2718701 38.842299,39.2718701 l -2.26608,6.354951 -2.98593,15.600488 -3.34425,0.447851 1.52962,-31.96909 c 0,0 -15.156,-8.732523 -47.275761,6.157869 z"
             style="fill:#733818;fill-opacity:1;stroke:none;stroke-width:0.404811px;stroke-linecap:butt;stroke-linejoin:miter;stroke-opacity:1" />
          <ellipse
             transform="rotate(-7.7180788)"
             ry="11.055803"
             rx="4.4412203"
             cy="62.383984"
             cx="39.51033"
             id="path1430-8"
             style="opacity:1;vector-effect:none;fill:#fbe6b4;fill-opacity:1;stroke:none;stroke-width:2.117;stroke-linecap:butt;stroke-linejoin:round;stroke-miterlimit:4;stroke-dasharray:none;stroke-dashoffset:0;stroke-opacity:1;paint-order:fill markers stroke" />
          <ellipse
             style="opacity:1;vector-effect:none;fill:#fbe6b4;fill-opacity:1;stroke:none;stroke-width:2.117;stroke-linecap:butt;stroke-linejoin:round;stroke-miterlimit:4;stroke-dasharray:none;stroke-dashoffset:0;stroke-opacity:1;paint-order:fill markers stroke"
             id="ellipse1437-8"
             cx="-130.17126"
             cy="39.387608"
             rx="4.4412203"
             ry="11.055803"
             transform="matrix(-0.99094087,-0.13429887,-0.13429887,0.99094087,0,0)" />
        </g>
        <path
           sodipodi:nodetypes="ccccc"
           style="opacity:1;fill:#606060;fill-opacity:1;stroke:none;stroke-width:0.017995px;stroke-linecap:butt;stroke-linejoin:miter;stroke-opacity:1;stop-opacity:1"
           d="m 33.497268,88.26739 -6.606747,6.729313 1.079701,-0.01662 5.527046,-6.198551 z"
           id="seatBelt-8"
           inkscape:connector-curvature="0" />
      </g>
      <g
         id="glassReflect">
        <path
           transform="matrix(0.0897019,0,0,0.0897019,17.969478,80.059672)"
           style="opacity:1;fill:#000000;fill-opacity:0.0429184;stroke:none;stroke-width:0.264583px;stroke-linecap:butt;stroke-linejoin:miter;stroke-opacity:1;stop-opacity:1"
           d="m 122.46429,7.4702386 0.75595,201.8392814 176.89285,-31.75 z"
           id="path1708"
           inkscape:connector-curvature="0"
           sodipodi:nodetypes="cccc"
           clip-path="url(#clipPath1761-7)" />
        <path
           sodipodi:nodetypes="cccc"
           inkscape:connector-curvature="0"
           id="path1710"
           d="m 27.461551,82.123988 -6.437215,7.032193 1.856707,-4.661355 z"
           style="opacity:1;fill:#ffffff;fill-opacity:0.354916;stroke:none;stroke-width:0.0237336px;stroke-linecap:butt;stroke-linejoin:miter;stroke-opacity:1;stop-opacity:1" />
      </g>
    </g>
  </g>
</svg>
