<?xml version="1.0" encoding="UTF-8" standalone="no"?>
<svg
   xmlns:dc="http://purl.org/dc/elements/1.1/"
   xmlns:cc="http://creativecommons.org/ns#"
   xmlns:rdf="http://www.w3.org/1999/02/22-rdf-syntax-ns#"
   xmlns:svg="http://www.w3.org/2000/svg"
   xmlns="http://www.w3.org/2000/svg"
   xmlns:sodipodi="http://sodipodi.sourceforge.net/DTD/sodipodi-0.dtd"
   xmlns:inkscape="http://www.inkscape.org/namespaces/inkscape"
   sodipodi:docname="sleepingDriver.svg"
   inkscape:version="1.0beta1 (fe3e306, 2019-09-17)"
   id="driver"
   version="1.1"
   viewBox="0 0 20.476518 20.476518"
   width="100%">
  <defs
     id="defs974">
    <clipPath
       id="clipPath3626"
       clipPathUnits="userSpaceOnUse">
      <circle
         style="fill:#a6966f;fill-opacity:1;stroke:#000000;stroke-width:0.0978682;stroke-linecap:round;stroke-linejoin:round;stroke-miterlimit:4;stroke-dasharray:none;stroke-opacity:1"
         id="circle3628"
         cx="102.23526"
         cy="76.127159"
         r="12.085876" />
    </clipPath>
  </defs>
  <sodipodi:namedview
     inkscape:window-maximized="1"
     inkscape:window-y="435"
     inkscape:window-x="1147"
     inkscape:window-height="1023"
     inkscape:window-width="1853"
     inkscape:snap-global="false"
     showgrid="false"
     inkscape:document-rotation="0"
     inkscape:current-layer="layer1"
     inkscape:document-units="mm"
     inkscape:cy="4.5277749"
     inkscape:cx="8.86406"
     inkscape:zoom="44.8"
     inkscape:pageshadow="2"
     inkscape:pageopacity="0.0"
     borderopacity="1.0"
     bordercolor="#666666"
     pagecolor="#ffffff"
     id="base" />
  <metadata
     id="metadata977">
    <rdf:RDF>
      <cc:Work
         rdf:about="">
        <dc:format>image/svg+xml</dc:format>
        <dc:type
           rdf:resource="http://purl.org/dc/dcmitype/StillImage" />
        <dc:title></dc:title>
      </cc:Work>
    </rdf:RDF>
  </metadata>
  <g
     transform="translate(-87.020453,-74.125892)"
     id="layer1"
     inkscape:groupmode="layer"
     inkscape:label="Layer 1">
    <g
       id="sleepingDriver">
      <circle
         style="fill:#c34b50;fill-opacity:1;stroke:none;stroke-width:0.0829067;stroke-linecap:round;stroke-linejoin:round;stroke-miterlimit:4;stroke-dasharray:none;stroke-opacity:1"
         id="sleepingDriver_bg"
         cx="97.258713"
         cy="84.364151"
         r="10.238259" />
      <g
         id="g4604"
         transform="matrix(0.08989935,0,0,0.08989935,89.54691,76.076349)">
        <path
           sodipodi:nodetypes="cscscc"
           inkscape:connector-curvature="0"
           id="driverShirt-8"
           d="m 24.30905,167.2847 c 0,0 -8.412244,-57.83504 -1.889881,-69.547611 9.742546,-17.495231 62.691334,-6.41882 63.621369,-7.18155 0.930034,0.76273 53.878832,-10.313681 63.621372,7.18155 6.52237,11.712571 -1.88988,69.547611 -1.88988,69.547611 -41.15526,0.55012 -82.3076,0.25563 -123.46298,0 z"
           style="fill:#d9bb8d;fill-opacity:1;stroke:none;stroke-width:0.264583px;stroke-linecap:butt;stroke-linejoin:miter;stroke-opacity:1" />
        <g
           transform="translate(0.42413385)"
           id="driverHead-8">
          <ellipse
             style="opacity:1;vector-effect:none;fill:#fbe6b4;fill-opacity:1;stroke:none;stroke-width:1.74749;stroke-linecap:butt;stroke-linejoin:round;stroke-miterlimit:4;stroke-dasharray:none;stroke-dashoffset:0;stroke-opacity:1;paint-order:fill markers stroke"
             id="path1424-9"
             cx="85.404694"
             cy="56.04837"
             rx="36.900558"
             ry="45.362144" />
          <path
             style="fill:#733818;fill-opacity:1;stroke:none;stroke-width:0.404811px;stroke-linecap:butt;stroke-linejoin:miter;stroke-opacity:1"
             d="M 69.568069,41.172827 C 59.964096,45.625131 54.001581,35.489282 54.001581,35.489282 l 1.53713,31.497347 -3.263247,-0.447888 -2.9136,-15.601794 -2.211199,-6.355482 c 0,0 -7.208567,-37.6133126 37.917506,-39.2725771 46.229799,1.6617049 38.842299,39.2718701 38.842299,39.2718701 l -2.26608,6.354951 -2.98593,15.600488 -3.34425,0.447851 1.52962,-31.96909 c 0,0 -15.156,-8.732523 -47.275761,6.157869 z"
             id="path1428-2"
             inkscape:connector-curvature="0"
             sodipodi:nodetypes="scccccccccccs" />
          <ellipse
             style="opacity:1;vector-effect:none;fill:#fbe6b4;fill-opacity:1;stroke:none;stroke-width:2.117;stroke-linecap:butt;stroke-linejoin:round;stroke-miterlimit:4;stroke-dasharray:none;stroke-dashoffset:0;stroke-opacity:1;paint-order:fill markers stroke"
             id="path1430-8"
             cx="39.51033"
             cy="62.383984"
             rx="4.4412203"
             ry="11.055803"
             transform="rotate(-7.7180788)" />
          <ellipse
             transform="matrix(-0.99094087,-0.13429887,-0.13429887,0.99094087,0,0)"
             ry="11.055803"
             rx="4.4412203"
             cy="39.387608"
             cx="-130.17126"
             id="ellipse1437-8"
             style="opacity:1;vector-effect:none;fill:#fbe6b4;fill-opacity:1;stroke:none;stroke-width:2.117;stroke-linecap:butt;stroke-linejoin:round;stroke-miterlimit:4;stroke-dasharray:none;stroke-dashoffset:0;stroke-opacity:1;paint-order:fill markers stroke" />
        </g>
        <path
           inkscape:connector-curvature="0"
           id="seatBelt-8"
           d="M 150.43452,69.080355 53.294642,168.02233 69.169642,167.778 150.43452,76.639879 Z"
           style="fill:#606060;fill-opacity:1;stroke:none;stroke-width:0.264583px;stroke-linecap:butt;stroke-linejoin:miter;stroke-opacity:1"
           sodipodi:nodetypes="ccccc" />
      </g>
      <ellipse
         style="fill:#a6966f;fill-opacity:1;stroke:none;stroke-width:0.0675018;stroke-linecap:round;stroke-linejoin:bevel;stroke-miterlimit:4;stroke-dasharray:none;stroke-opacity:1"
         id="mouth"
         cx="97.151253"
         cy="83.510643"
         rx="0.25699449"
         ry="0.34970894" />
      <g
         style="stroke:#ffffff;stroke-opacity:1"
         id="zzz">
        <path
           inkscape:connector-curvature="0"
           id="path1569"
           d="m 101.24311,79.658089 h 0.77473 l -0.79068,0.790688 h 0.79181"
           style="fill:none;stroke:#ffffff;stroke-width:0.111255px;stroke-linecap:butt;stroke-linejoin:round;stroke-opacity:1" />
        <path
           style="fill:none;stroke:#ffffff;stroke-width:0.244576px;stroke-linecap:butt;stroke-linejoin:round;stroke-opacity:1"
           d="m 102.46347,78.080378 h 1.70311 l -1.73818,1.738194 h 1.74067"
           id="path1571"
           inkscape:connector-curvature="0" />
        <path
           inkscape:connector-curvature="0"
           id="path1573"
           d="m 104.06979,74.873276 h 2.65751 l -2.71222,2.71225 h 2.71609"
           style="fill:none;stroke:#ffffff;stroke-width:0.381631px;stroke-linecap:butt;stroke-linejoin:round;stroke-opacity:1" />
      </g>
      <g
         id="steering_wheel"
         transform="matrix(0.84712594,0,0,0.84712594,10.65257,19.874856)"
         clip-path="url(#clipPath3626)">
        <rect
           ry="0.46035445"
           y="83.925888"
           x="102.25909"
           height="0.92070889"
           width="1.2206995"
           id="brake_bg"
           style="opacity:1;fill:#259e5e;fill-opacity:1;stroke:none;stroke-width:0.00404203;stroke-linecap:round;stroke-linejoin:round;stroke-miterlimit:4;stroke-dasharray:none;stroke-dashoffset:0;stroke-opacity:1" />
        <path
           style="opacity:1;fill:#cccccc;fill-opacity:1;stroke:none;stroke-width:0.0154834px;stroke-linecap:butt;stroke-linejoin:miter;stroke-opacity:1"
           d="m 96.845133,82.435955 c -0.137019,0.184166 -0.386766,1.377128 -0.383033,2.074986 0.118228,-0.362022 0.455522,-0.538607 0.743778,-0.436226 0,0 3.137502,0.80614 3.329292,0.905957 0.1918,0.09982 0.23271,0.354246 0.37602,0.517164 0.1433,0.162918 0.36776,0.313712 0.44018,0.449689 0.0724,0.135977 0.33498,3.508485 0.33498,3.508485 l -0.003,0.0037 3e-5,9.68e-4 c -2.8e-4,0.275436 -0.19465,0.51251 -0.46468,0.566777 l -0.004,0.0055 c 0.30515,0.0506 0.61857,0.07693 0.93826,0.07693 0.0139,0 0.0277,-3.09e-4 0.0415,-4.84e-4 0.0138,1.24e-4 0.0276,4.84e-4 0.0415,4.84e-4 0.31969,0 0.63311,-0.02633 0.93826,-0.07693 l -0.004,-0.0055 c -0.27004,-0.05427 -0.46441,-0.291342 -0.46468,-0.566777 l 3e-5,-9.68e-4 -0.003,-0.0037 c 0,0 0.21243,-3.284354 0.34565,-3.544625 0.0666,-0.130136 0.28753,-0.242356 0.4356,-0.417773 0.14807,-0.175417 0.22328,-0.414032 0.35821,-0.499787 0.26984,-0.17151 3.34102,-0.91911 3.34102,-0.91911 0.28826,-0.102381 0.62555,0.0742 0.74378,0.436226 0.004,-0.697859 -0.25708,-1.91294 -0.39409,-2.097105 0,0.446076 -0.27756,0.605747 -0.60362,0.688147 0,-0.01546 -3.21403,0.326839 -3.37907,0.259252 -0.16504,-0.06759 -0.7998,-0.634696 -1.35504,-0.588576 -0.74319,-0.0078 -1.19248,0.558191 -1.33158,0.602204 -0.13909,0.04401 -3.402529,-0.27288 -3.402529,-0.27288 -0.326059,-0.0824 -0.614678,-0.219952 -0.614678,-0.666028 z m 9.912427,1.020029 c 0.10229,4e-6 0.18522,0.08293 0.18522,0.185226 2e-5,0.102308 -0.0829,0.185252 -0.18522,0.185257 -0.10232,1.2e-5 -0.18527,-0.08294 -0.18526,-0.185257 0,-0.102307 0.0829,-0.185238 0.18526,-0.185226 z m -9.126917,0.0055 c 0.102295,5e-6 0.185222,0.08293 0.185226,0.185226 -4e-6,0.102296 -0.08293,0.185222 -0.185226,0.185227 -0.102296,-5e-6 -0.185222,-0.08293 -0.185226,-0.185227 4e-6,-0.102295 0.08293,-0.185221 0.185226,-0.185226 z m 8.087987,0.0688 c 0.15116,-10e-7 0.27371,0.122544 0.27371,0.273711 0,0.151167 -0.12255,0.273712 -0.27371,0.273711 -0.15116,-1.5e-5 -0.27368,-0.122556 -0.27368,-0.273711 0,-0.151155 0.12252,-0.273695 0.27368,-0.273711 z m -7.053896,0.02489 c 0.151166,-10e-7 0.273711,0.122544 0.273711,0.273711 0,0.151167 -0.122545,0.273712 -0.273711,0.273711 -0.151167,10e-7 -0.273712,-0.122544 -0.273712,-0.273711 0,-0.151167 0.122545,-0.273712 0.273712,-0.273711 z m 1.192614,0.113373 c 0.198672,1e-5 0.359722,0.161073 0.359712,0.359747 1e-5,0.198674 -0.16104,0.359738 -0.359712,0.359747 -0.198686,8e-6 -0.359755,-0.161061 -0.359747,-0.359747 -8e-6,-0.198686 0.161061,-0.359754 0.359747,-0.359747 z m 4.685992,6.96e-4 c 0.19868,-7e-6 0.35974,0.161043 0.35975,0.359717 10e-6,0.198685 -0.16106,0.359754 -0.35975,0.359747 -0.19867,-1e-5 -0.35972,-0.161073 -0.35972,-0.359747 10e-6,-0.198663 0.16106,-0.359708 0.35972,-0.359717 z m -2.34607,2.799651 c 0.19868,9e-6 0.35973,0.161073 0.35972,0.359747 -1e-5,0.198662 -0.16105,0.359707 -0.35972,0.359716 -0.19867,8e-6 -0.35973,-0.161042 -0.35974,-0.359716 -1e-5,-0.198686 0.16106,-0.359754 0.35974,-0.359747 z m 0,1.296371 c 0.14684,6e-6 0.26588,0.11904 0.26588,0.265879 0,0.146838 -0.11904,0.265873 -0.26588,0.265879 -0.14685,1e-5 -0.2659,-0.119029 -0.2659,-0.265879 0,-0.14685 0.11905,-0.26589 0.2659,-0.265879 z m 0,1.125298 c 0.10256,1.5e-5 0.18569,0.08316 0.18568,0.18571 1e-5,0.102553 -0.0831,0.185694 -0.18568,0.18571 -0.10256,10e-7 -0.18571,-0.08314 -0.1857,-0.18571 -1e-5,-0.102566 0.0831,-0.185711 0.1857,-0.18571 z"
           id="path2557"
           inkscape:connector-curvature="0"
           sodipodi:nodetypes="ccczszcccccscsccccccsccccczczccccccccccccccccccccccccccccccccccccccccccccccc" />
        <g
           id="g2640"
           transform="matrix(0.05851991,0,0,0.05851991,97.605089,79.481017)" />
        <g
           id="g2646"
           transform="matrix(0.05851991,0,0,0.05851991,98.749754,80.144591)" />
        <g
           transform="matrix(0.05851991,0,0,0.05851991,98.744224,81.471739)"
           id="g2652" />
        <g
           id="g2658"
           transform="matrix(0.05851991,0,0,0.05851991,97.599559,82.140843)" />
        <g
           transform="matrix(0.05851991,0,0,0.05851991,96.443835,81.477269)"
           id="g2664" />
        <g
           id="g2670"
           transform="matrix(0.05851991,0,0,0.05851991,96.449364,80.150121)" />
        <path
           sodipodi:nodetypes="cccc"
           inkscape:connector-curvature="0"
           id="path2864"
           d="m 107.51986,81.104945 c -0.25557,0.378771 -1.32768,0.525846 0.14797,1.509975 0.66425,0.803462 -0.17444,0.557424 0.50002,0.105537 1.57355,-1.471836 -0.64799,-1.615512 -0.64799,-1.615512 z"
           style="opacity:1;fill:#d1b273;fill-opacity:1;stroke:none;stroke-width:14.2941;stroke-linecap:round;stroke-linejoin:round;stroke-miterlimit:4;stroke-dasharray:none;stroke-dashoffset:0;stroke-opacity:0" />
        <path
           style="opacity:1;fill:#d1b273;fill-opacity:1;stroke:none;stroke-width:14.2941;stroke-linecap:round;stroke-linejoin:round;stroke-miterlimit:4;stroke-dasharray:none;stroke-dashoffset:0;stroke-opacity:0"
           d="m 96.835325,81.104945 c 0.25557,0.378771 1.32768,0.525846 -0.14797,1.509975 -0.66425,0.803462 0.17444,0.557424 -0.50002,0.105537 -1.57355,-1.471836 0.64799,-1.615512 0.64799,-1.615512 z"
           id="path3636"
           inkscape:connector-curvature="0"
           sodipodi:nodetypes="cccc" />
        <ellipse
           style="opacity:1;fill:none;fill-opacity:1;stroke:#4f4942;stroke-width:0.921045;stroke-linecap:round;stroke-linejoin:round;stroke-miterlimit:4;stroke-dasharray:none;stroke-dashoffset:0;stroke-opacity:1"
           id="path2555"
           cx="102.18375"
           cy="84.419418"
           rx="6.1399493"
           ry="6.1510091" />
        <path
           style="opacity:1;fill:#d1b273;fill-opacity:1;stroke:none;stroke-width:14.2941;stroke-linecap:round;stroke-linejoin:round;stroke-miterlimit:4;stroke-dasharray:none;stroke-dashoffset:0;stroke-opacity:0"
           d="m 107.00962,80.853592 c -0.15768,0.249018 0.8821,2.078852 1.39742,1.974768 0.35538,-0.127864 1.14748,-0.917424 0.56476,-1.91354 -0.90079,-1.539812 -1.52337,-0.754221 -1.96218,-0.06123 z"
           id="path3630"
           inkscape:connector-curvature="0"
           sodipodi:nodetypes="scss" />
        <path
           sodipodi:nodetypes="scss"
           inkscape:connector-curvature="0"
           id="path3638"
           d="m 97.345565,80.853592 c 0.15768,0.249018 -0.8821,2.078852 -1.39742,1.974768 -0.35538,-0.127864 -1.14748,-0.917424 -0.56476,-1.91354 0.90079,-1.539812 1.52337,-0.754221 1.96218,-0.06123 z"
           style="opacity:1;fill:#d1b273;fill-opacity:1;stroke:none;stroke-width:14.2941;stroke-linecap:round;stroke-linejoin:round;stroke-miterlimit:4;stroke-dasharray:none;stroke-dashoffset:0;stroke-opacity:0" />
      </g>
      <g
         id="eyes">
        <path
           sodipodi:nodetypes="cc"
           inkscape:connector-curvature="0"
           id="path1565"
           d="m 97.996744,81.208199 c 0.282783,-0.07893 0.584978,0.05875 0.932141,0"
           style="fill:none;stroke:#000000;stroke-width:0.132065px;stroke-linecap:butt;stroke-linejoin:miter;stroke-opacity:1" />
        <path
           style="fill:none;stroke:#000000;stroke-width:0.132065px;stroke-linecap:butt;stroke-linejoin:miter;stroke-opacity:1"
           d="m 95.535979,81.208199 c 0.286805,-0.07239 0.594005,0.08021 0.932141,0"
           id="path1563"
           inkscape:connector-curvature="0"
           sodipodi:nodetypes="cc" />
        <g
           class="eye"
           id="g4555">
          <ellipse
             ry="0.90924913"
             rx="0.547234"
             cy="81.177284"
             cx="98.418938"
             id="path4541"
             style="fill:#ffffff;fill-opacity:1;stroke:none;stroke-width:0.07559055;stroke-linecap:round;stroke-linejoin:round;stroke-miterlimit:4;stroke-dasharray:none;stroke-opacity:1" />
          <ellipse
             ry="0.20024334"
             rx="0.13992514"
             cy="81.164497"
             cx="98.415604"
             id="path4551"
             style="fill:#000000;fill-opacity:1;stroke:none;stroke-width:0.0755906;stroke-linecap:round;stroke-linejoin:round;stroke-miterlimit:4;stroke-dasharray:none;stroke-opacity:1" />
        </g>
        <g
           class="eye"
           id="g4561"
           transform="translate(-2.4329588)">
          <ellipse
             style="fill:#ffffff;fill-opacity:1;stroke:none;stroke-width:0.0755906;stroke-linecap:round;stroke-linejoin:round;stroke-miterlimit:4;stroke-dasharray:none;stroke-opacity:1"
             id="ellipse4557"
             cx="98.418938"
             cy="81.177284"
             rx="0.547234"
             ry="0.90924913" />
          <ellipse
             style="fill:#000000;fill-opacity:1;stroke:none;stroke-width:0.0755906;stroke-linecap:round;stroke-linejoin:round;stroke-miterlimit:4;stroke-dasharray:none;stroke-opacity:1"
             id="ellipse4559"
             cx="98.415604"
             cy="81.164497"
             rx="0.13992514"
             ry="0.20024334" />
        </g>
      </g>
    </g>
  </g>
</svg>
