<?xml version="1.0" encoding="UTF-8" standalone="no"?>
<!-- Created with Inkscape (http://www.inkscape.org/) -->

<svg
   xmlns:dc="http://purl.org/dc/elements/1.1/"
   xmlns:cc="http://creativecommons.org/ns#"
   xmlns:rdf="http://www.w3.org/1999/02/22-rdf-syntax-ns#"
   xmlns:svg="http://www.w3.org/2000/svg"
   xmlns="http://www.w3.org/2000/svg"
   xmlns:xlink="http://www.w3.org/1999/xlink"
   xmlns:sodipodi="http://sodipodi.sourceforge.net/DTD/sodipodi-0.dtd"
   xmlns:inkscape="http://www.inkscape.org/namespaces/inkscape"
   width="100%"
   height="100%"
   viewBox="0 0 19.445437 19.445437"
   version="1.1"
   id="steer"
   sodipodi:docname="steer.svg"
   inkscape:version="0.92.3 (2405546, 2018-03-11)">
  <defs
     id="defs1987">
    <linearGradient
       inkscape:collect="always"
       id="linearGradient2736">
      <stop
         style="stop-color:#747474;stop-opacity:1;"
         offset="0"
         id="stop2732" />
      <stop
         style="stop-color:#eae3e3;stop-opacity:1"
         offset="1"
         id="stop2734" />
    </linearGradient>
    <linearGradient
       inkscape:collect="always"
       id="linearGradient2709">
      <stop
         style="stop-color:#ffffff;stop-opacity:1"
         offset="0"
         id="stop2705" />
      <stop
         style="stop-color:#343434;stop-opacity:1"
         offset="1"
         id="stop2707" />
    </linearGradient>
    <linearGradient
       inkscape:collect="always"
       xlink:href="#linearGradient2709"
       id="linearGradient2711"
       x1="71.358665"
       y1="71.55883"
       x2="86.017242"
       y2="100.28502"
       gradientUnits="userSpaceOnUse"
       gradientTransform="matrix(0.05851991,0,0,0.05851991,97.605089,79.481017)" />
    <linearGradient
       inkscape:collect="always"
       xlink:href="#linearGradient2736"
       id="linearGradient2738"
       x1="62.40744"
       y1="70.355438"
       x2="94.479782"
       y2="96.815125"
       gradientUnits="userSpaceOnUse"
       gradientTransform="matrix(0.05851991,0,0,0.05851991,97.605089,79.481017)" />
  </defs>
  <sodipodi:namedview
     id="base"
     pagecolor="#ffffff"
     bordercolor="#666666"
     borderopacity="1.0"
     inkscape:pageopacity="0.0"
     inkscape:pageshadow="2"
     inkscape:zoom="31.678384"
     inkscape:cx="5.0729493"
     inkscape:cy="6.9250121"
     inkscape:document-units="mm"
     inkscape:current-layer="layer1"
     showgrid="false"
     inkscape:snap-global="true"
     inkscape:window-width="1853"
     inkscape:window-height="1023"
     inkscape:window-x="67"
     inkscape:window-y="27"
     inkscape:window-maximized="1" />
  <metadata
     id="metadata1990">
    <rdf:RDF>
      <cc:Work
         rdf:about="">
        <dc:format>image/svg+xml</dc:format>
        <dc:type
           rdf:resource="http://purl.org/dc/dcmitype/StillImage" />
      </cc:Work>
    </rdf:RDF>
  </metadata>
  <g
     inkscape:label="Layer 1"
     inkscape:groupmode="layer"
     id="layer1"
     transform="translate(-92.531821,-74.440345)">
    <circle
       style="opacity:1;fill:#619a66;fill-opacity:1;stroke:none;stroke-width:59.4859848;stroke-linecap:round;stroke-linejoin:round;stroke-miterlimit:4;stroke-dasharray:none;stroke-dashoffset:0;stroke-opacity:0"
       id="path856"
       cx="102.25454"
       cy="84.163063"
       r="9.7227182"
       class="bg" />
    <g
       id="steering_wheel">
      <rect
         style="opacity:1;fill:#259e5e;fill-opacity:1;stroke:none;stroke-width:0.00404203;stroke-linecap:round;stroke-linejoin:round;stroke-miterlimit:4;stroke-dasharray:none;stroke-dashoffset:0;stroke-opacity:1"
         id="brake_bg"
         width="1.2206995"
         height="0.92070889"
         x="102.25909"
         y="83.925888"
         ry="0.46035445" />
      <path
         sodipodi:nodetypes="ccczszcccccscsccccccsccccczczccccccccccccccccccccccccccccccccccccccccccccccc"
         inkscape:connector-curvature="0"
         id="path2557"
         d="m 96.845133,82.435955 c -0.137019,0.184166 -0.386766,1.377128 -0.383033,2.074986 0.118228,-0.362022 0.455522,-0.538607 0.743778,-0.436226 0,0 3.137502,0.80614 3.329292,0.905957 0.1918,0.09982 0.23271,0.354246 0.37602,0.517164 0.1433,0.162918 0.36776,0.313712 0.44018,0.449689 0.0724,0.135977 0.33498,3.508485 0.33498,3.508485 l -0.003,0.0037 3e-5,9.68e-4 c -2.8e-4,0.275436 -0.19465,0.51251 -0.46468,0.566777 l -0.004,0.0055 c 0.30515,0.0506 0.61857,0.07693 0.93826,0.07693 0.0139,0 0.0277,-3.09e-4 0.0415,-4.84e-4 0.0138,1.24e-4 0.0276,4.84e-4 0.0415,4.84e-4 0.31969,0 0.63311,-0.02633 0.93826,-0.07693 l -0.004,-0.0055 c -0.27004,-0.05427 -0.46441,-0.291342 -0.46468,-0.566777 l 3e-5,-9.68e-4 -0.003,-0.0037 c 0,0 0.21243,-3.284354 0.34565,-3.544625 0.0666,-0.130136 0.28753,-0.242356 0.4356,-0.417773 0.14807,-0.175417 0.22328,-0.414032 0.35821,-0.499787 0.26984,-0.17151 3.34102,-0.91911 3.34102,-0.91911 0.28826,-0.102381 0.62555,0.0742 0.74378,0.436226 0.004,-0.697859 -0.25708,-1.91294 -0.39409,-2.097105 0,0.446076 -0.27756,0.605747 -0.60362,0.688147 0,-0.01546 -3.21403,0.326839 -3.37907,0.259252 -0.16504,-0.06759 -0.7998,-0.634696 -1.35504,-0.588576 -0.74319,-0.0078 -1.19248,0.558191 -1.33158,0.602204 -0.13909,0.04401 -3.402529,-0.27288 -3.402529,-0.27288 -0.326059,-0.0824 -0.614678,-0.219952 -0.614678,-0.666028 z m 9.912427,1.020029 c 0.10229,4e-6 0.18522,0.08293 0.18522,0.185226 2e-5,0.102308 -0.0829,0.185252 -0.18522,0.185257 -0.10232,1.2e-5 -0.18527,-0.08294 -0.18526,-0.185257 0,-0.102307 0.0829,-0.185238 0.18526,-0.185226 z m -9.126917,0.0055 c 0.102295,5e-6 0.185222,0.08293 0.185226,0.185226 -4e-6,0.102296 -0.08293,0.185222 -0.185226,0.185227 -0.102296,-5e-6 -0.185222,-0.08293 -0.185226,-0.185227 4e-6,-0.102295 0.08293,-0.185221 0.185226,-0.185226 z m 8.087987,0.0688 c 0.15116,-10e-7 0.27371,0.122544 0.27371,0.273711 0,0.151167 -0.12255,0.273712 -0.27371,0.273711 -0.15116,-1.5e-5 -0.27368,-0.122556 -0.27368,-0.273711 0,-0.151155 0.12252,-0.273695 0.27368,-0.273711 z m -7.053896,0.02489 c 0.151166,-10e-7 0.273711,0.122544 0.273711,0.273711 0,0.151167 -0.122545,0.273712 -0.273711,0.273711 -0.151167,10e-7 -0.273712,-0.122544 -0.273712,-0.273711 0,-0.151167 0.122545,-0.273712 0.273712,-0.273711 z m 1.192614,0.113373 c 0.198672,1e-5 0.359722,0.161073 0.359712,0.359747 1e-5,0.198674 -0.16104,0.359738 -0.359712,0.359747 -0.198686,8e-6 -0.359755,-0.161061 -0.359747,-0.359747 -8e-6,-0.198686 0.161061,-0.359754 0.359747,-0.359747 z m 4.685992,6.96e-4 c 0.19868,-7e-6 0.35974,0.161043 0.35975,0.359717 10e-6,0.198685 -0.16106,0.359754 -0.35975,0.359747 -0.19867,-1e-5 -0.35972,-0.161073 -0.35972,-0.359747 10e-6,-0.198663 0.16106,-0.359708 0.35972,-0.359717 z m -2.34607,2.799651 c 0.19868,9e-6 0.35973,0.161073 0.35972,0.359747 -1e-5,0.198662 -0.16105,0.359707 -0.35972,0.359716 -0.19867,8e-6 -0.35973,-0.161042 -0.35974,-0.359716 -1e-5,-0.198686 0.16106,-0.359754 0.35974,-0.359747 z m 0,1.296371 c 0.14684,6e-6 0.26588,0.11904 0.26588,0.265879 0,0.146838 -0.11904,0.265873 -0.26588,0.265879 -0.14685,1e-5 -0.2659,-0.119029 -0.2659,-0.265879 0,-0.14685 0.11905,-0.26589 0.2659,-0.265879 z m 0,1.125298 c 0.10256,1.5e-5 0.18569,0.08316 0.18568,0.18571 1e-5,0.102553 -0.0831,0.185694 -0.18568,0.18571 -0.10256,10e-7 -0.18571,-0.08314 -0.1857,-0.18571 -1e-5,-0.102566 0.0831,-0.185711 0.1857,-0.18571 z"
         style="opacity:1;fill:#cccccc;fill-opacity:1;stroke:none;stroke-width:0.01548339px;stroke-linecap:butt;stroke-linejoin:miter;stroke-opacity:1" />
      <circle
         r="1.118302"
         cy="84.442802"
         cx="102.18778"
         id="path2597"
         style="opacity:1;fill:url(#linearGradient2738);fill-opacity:1;stroke:none;stroke-width:0.7839846;stroke-linecap:round;stroke-linejoin:round;stroke-miterlimit:4;stroke-dasharray:none;stroke-dashoffset:0;stroke-opacity:1" />
      <g
         transform="matrix(0.05851991,0,0,0.05851991,97.605089,79.481017)"
         id="g2640">
        <circle
           style="opacity:1;fill:#555555;fill-opacity:1;stroke:none;stroke-width:15.73900032;stroke-linecap:round;stroke-linejoin:round;stroke-miterlimit:4;stroke-dasharray:none;stroke-dashoffset:0;stroke-opacity:1"
           id="path2628"
           cx="78.619049"
           cy="62.087795"
           r="3.1183035" />
        <circle
           r="1.3229166"
           cy="62.087795"
           cx="78.619049"
           id="circle2630"
           style="opacity:1;fill:#494949;fill-opacity:1;stroke:none;stroke-width:6.67715168;stroke-linecap:round;stroke-linejoin:round;stroke-miterlimit:4;stroke-dasharray:none;stroke-dashoffset:0;stroke-opacity:1" />
      </g>
      <g
         transform="matrix(0.05851991,0,0,0.05851991,98.749754,80.144591)"
         id="g2646">
        <circle
           r="3.1183035"
           cy="62.087795"
           cx="78.619049"
           id="circle2642"
           style="opacity:1;fill:#555555;fill-opacity:1;stroke:none;stroke-width:15.73900032;stroke-linecap:round;stroke-linejoin:round;stroke-miterlimit:4;stroke-dasharray:none;stroke-dashoffset:0;stroke-opacity:1" />
        <circle
           style="opacity:1;fill:#494949;fill-opacity:1;stroke:none;stroke-width:6.67715168;stroke-linecap:round;stroke-linejoin:round;stroke-miterlimit:4;stroke-dasharray:none;stroke-dashoffset:0;stroke-opacity:1"
           id="circle2644"
           cx="78.619049"
           cy="62.087795"
           r="1.3229166" />
      </g>
      <g
         id="g2652"
         transform="matrix(0.05851991,0,0,0.05851991,98.744224,81.471739)">
        <circle
           style="opacity:1;fill:#555555;fill-opacity:1;stroke:none;stroke-width:15.73900032;stroke-linecap:round;stroke-linejoin:round;stroke-miterlimit:4;stroke-dasharray:none;stroke-dashoffset:0;stroke-opacity:1"
           id="circle2648"
           cx="78.619049"
           cy="62.087795"
           r="3.1183035" />
        <circle
           r="1.3229166"
           cy="62.087795"
           cx="78.619049"
           id="circle2650"
           style="opacity:1;fill:#494949;fill-opacity:1;stroke:none;stroke-width:6.67715168;stroke-linecap:round;stroke-linejoin:round;stroke-miterlimit:4;stroke-dasharray:none;stroke-dashoffset:0;stroke-opacity:1" />
      </g>
      <g
         transform="matrix(0.05851991,0,0,0.05851991,97.599559,82.140843)"
         id="g2658">
        <circle
           r="3.1183035"
           cy="62.087795"
           cx="78.619049"
           id="circle2654"
           style="opacity:1;fill:#555555;fill-opacity:1;stroke:none;stroke-width:15.73900032;stroke-linecap:round;stroke-linejoin:round;stroke-miterlimit:4;stroke-dasharray:none;stroke-dashoffset:0;stroke-opacity:1" />
        <circle
           style="opacity:1;fill:#494949;fill-opacity:1;stroke:none;stroke-width:6.67715168;stroke-linecap:round;stroke-linejoin:round;stroke-miterlimit:4;stroke-dasharray:none;stroke-dashoffset:0;stroke-opacity:1"
           id="circle2656"
           cx="78.619049"
           cy="62.087795"
           r="1.3229166" />
      </g>
      <g
         id="g2664"
         transform="matrix(0.05851991,0,0,0.05851991,96.443835,81.477269)">
        <circle
           style="opacity:1;fill:#555555;fill-opacity:1;stroke:none;stroke-width:15.73900032;stroke-linecap:round;stroke-linejoin:round;stroke-miterlimit:4;stroke-dasharray:none;stroke-dashoffset:0;stroke-opacity:1"
           id="circle2660"
           cx="78.619049"
           cy="62.087795"
           r="3.1183035" />
        <circle
           r="1.3229166"
           cy="62.087795"
           cx="78.619049"
           id="circle2662"
           style="opacity:1;fill:#494949;fill-opacity:1;stroke:none;stroke-width:6.67715168;stroke-linecap:round;stroke-linejoin:round;stroke-miterlimit:4;stroke-dasharray:none;stroke-dashoffset:0;stroke-opacity:1" />
      </g>
      <g
         transform="matrix(0.05851991,0,0,0.05851991,96.449364,80.150121)"
         id="g2670">
        <circle
           r="3.1183035"
           cy="62.087795"
           cx="78.619049"
           id="circle2666"
           style="opacity:1;fill:#555555;fill-opacity:1;stroke:none;stroke-width:15.73900032;stroke-linecap:round;stroke-linejoin:round;stroke-miterlimit:4;stroke-dasharray:none;stroke-dashoffset:0;stroke-opacity:1" />
        <circle
           style="opacity:1;fill:#494949;fill-opacity:1;stroke:none;stroke-width:6.67715168;stroke-linecap:round;stroke-linejoin:round;stroke-miterlimit:4;stroke-dasharray:none;stroke-dashoffset:0;stroke-opacity:1"
           id="circle2668"
           cx="78.619049"
           cy="62.087795"
           r="1.3229166" />
      </g>
      <ellipse
         ry="6.1510091"
         rx="6.1399493"
         cy="84.419418"
         cx="102.18375"
         id="path2555"
         style="opacity:1;fill:none;fill-opacity:1;stroke:#4f4942;stroke-width:0.92104489;stroke-linecap:round;stroke-linejoin:round;stroke-miterlimit:4;stroke-dasharray:none;stroke-dashoffset:0;stroke-opacity:1" />
      <circle
         style="opacity:1;fill:url(#linearGradient2711);fill-opacity:1;stroke:none;stroke-width:0.60306507;stroke-linecap:round;stroke-linejoin:round;stroke-miterlimit:4;stroke-dasharray:none;stroke-dashoffset:0;stroke-opacity:1"
         id="circle2599"
         cx="102.18778"
         cy="84.442802"
         r="0.86023229" />
      <path
         sodipodi:nodetypes="cccsc"
         inkscape:connector-curvature="0"
         id="path2861"
         d="m 96.529112,80.228552 c -0.571456,1.240783 2.697858,1.682275 0.170553,2.386368 -0.66425,0.803462 -1.597417,1.201827 -2.271878,0.74994 -0.674464,-0.451884 -0.750829,-1.520302 -0.170561,-2.386373 0.580267,-0.866071 1.597429,-1.201828 2.271886,-0.749935 z"
         style="opacity:1;fill:#d1b273;fill-opacity:1;stroke:none;stroke-width:14.29407597;stroke-linecap:round;stroke-linejoin:round;stroke-miterlimit:4;stroke-dasharray:none;stroke-dashoffset:0;stroke-opacity:0" />
      <path
         style="opacity:1;fill:#d1b273;fill-opacity:1;stroke:none;stroke-width:14.29407597;stroke-linecap:round;stroke-linejoin:round;stroke-miterlimit:4;stroke-dasharray:none;stroke-dashoffset:0;stroke-opacity:0"
         d="m 107.83838,80.228552 c 0.57146,1.240783 -2.69785,1.682275 -0.17055,2.386368 0.66425,0.803462 1.59742,1.201827 2.27188,0.74994 0.67446,-0.451884 0.75083,-1.520302 0.17056,-2.386373 -0.58027,-0.866071 -1.59743,-1.201828 -2.27189,-0.749935 z"
         id="path2864"
         inkscape:connector-curvature="0"
         sodipodi:nodetypes="cccsc" />
    </g>
  </g>
</svg>
