<?xml version="1.0" encoding="UTF-8" standalone="no"?>
<!-- Generator: Adobe Illustrator 10.0, SVG Export Plug-In . SVG Version: 3.0.0 Build 76)  -->

<svg
   xmlns:dc="http://purl.org/dc/elements/1.1/"
   xmlns:cc="http://creativecommons.org/ns#"
   xmlns:rdf="http://www.w3.org/1999/02/22-rdf-syntax-ns#"
   xmlns:svg="http://www.w3.org/2000/svg"
   xmlns="http://www.w3.org/2000/svg"
   xmlns:sodipodi="http://sodipodi.sourceforge.net/DTD/sodipodi-0.dtd"
   xmlns:inkscape="http://www.inkscape.org/namespaces/inkscape"
   version="1.1"
   width="191.9097"
   height="31.571163"
   viewBox="-1 -1 189.921 30.6426"
   id="svg1003"
   sodipodi:docname="toyota_logo.svg"
   inkscape:version="0.92.3 (2405546, 2018-03-11)">
  <metadata
     id="metadata1009">
    <rdf:RDF>
      <cc:Work
         rdf:about="">
        <dc:format>image/svg+xml</dc:format>
        <dc:type
           rdf:resource="http://purl.org/dc/dcmitype/StillImage" />
      </cc:Work>
    </rdf:RDF>
  </metadata>
  <defs
     id="defs1007" />
  <sodipodi:namedview
     pagecolor="#ffffff"
     bordercolor="#666666"
     borderopacity="1"
     objecttolerance="10"
     gridtolerance="10"
     guidetolerance="10"
     inkscape:pageopacity="0"
     inkscape:pageshadow="2"
     inkscape:window-width="1853"
     inkscape:window-height="1023"
     id="namedview1005"
     showgrid="false"
     inkscape:zoom="6.5854922"
     inkscape:cx="95.489529"
     inkscape:cy="15.908859"
     inkscape:window-x="67"
     inkscape:window-y="27"
     inkscape:window-maximized="1"
     inkscape:current-layer="svg1003" />
  <path
     d="m 21.477,28.330166 c -2.515,-1.575 -4.367,-7.011 -4.367,-13.469 0,-0.237 0.001,-0.471 0.007,-0.704 l 0.003,0.003 c -6.994,-1.099 -12.048,-4.111 -12.177,-7.6720002 l -0.021,0.041 c -1.712,2.127 -2.689,4.5860002 -2.689,7.2060002 0,7.71 8.463,14.027 19.198,14.586 z M -1,14.298166 C -1,5.6711658 9.736,-1.3238342 22.98,-1.3238342 c 13.244,0 23.98,6.995 23.98,15.6220002 0,8.627 -10.736,15.622 -23.98,15.622 -13.244,0 -23.98,-6.995 -23.98,-15.622 z M 22.98,0.9301658 c 2.557,0 4.731,3.878 5.537,9.2900002 l 0.003,-0.008 c 4.974,-0.7740002 8.457,-2.5610002 8.457,-4.6390002 0,-2.79 -6.267,-5.048 -13.997,-5.048 -7.73,0 -13.997,2.259 -13.997,5.048 0,2.078 3.482,3.864 8.457,4.6390002 l 0.003,0.008 C 18.249,4.8091658 20.424,0.9301658 22.98,0.9301658 Z m 1.548,27.3910002 c 10.735,-0.559 19.199,-6.876 19.199,-14.586 0,-2.62 -0.978,-5.0790002 -2.689,-7.2060002 l -0.021,-0.041 C 40.888,10.049166 35.835,13.061166 28.84,14.160166 l 0.003,-0.003 c 0.005,0.233 0.007,0.467 0.007,0.704 0,6.458 -1.854,11.894 -4.367,13.469 z m -1.548,-17.699 c 1.146,0 2.259,-0.049 3.324,-0.143 l -10e-4,0.001 C 25.773,7.0111658 24.485,4.5631658 22.98,4.5631658 c -1.505,0 -2.792,2.448 -3.323,5.9170002 l -0.001,-0.001 c 1.065,0.094 2.178,0.143 3.324,0.143 z m 0,12.846 c 1.925,0 3.495,-4.006 3.579,-9.03 l 0.01,0.003 c -1.16,0.107 -2.36,0.164 -3.589,0.164 -1.229,0 -2.429,-0.056 -3.589,-0.164 l 0.011,-0.003 c 0.083,5.025 1.653,9.03 3.578,9.03 z"
     id="path989"
     inkscape:connector-curvature="0"
     style="fill:#ff0000" />
  <path
     d="m 121.362,14.298166 c 0,-6.5940002 5.346,-11.9390002 11.939,-11.9390002 6.596,0 11.941,5.346 11.941,11.9390002 0,6.595 -5.346,11.939 -11.941,11.939 -6.593,0 -11.939,-5.345 -11.939,-11.939 z m 11.939,7.561 c 3.683,0 6.668,-3.386 6.668,-7.562 0,-4.175 -2.985,-7.5620002 -6.668,-7.5620002 -3.681,0 -6.665,3.3860002 -6.665,7.5620002 0,4.176 2.985,7.562 6.665,7.562 z"
     id="path991"
     inkscape:connector-curvature="0"
     style="fill:#ff0000" />
  <path
     d="M 158.79,7.3331658 V 25.695166 h -5.03 V 7.3331658 h 0.017 -7.035 v -4.152 h 19.066 v 4.151 h -7 -0.018 z"
     id="path993"
     inkscape:connector-curvature="0"
     style="fill:#ff0000" />
  <path
     d="m 171.893,20.630166 -0.005,0.005 -1.93,5.061 h -5.875 l 9.288,-22.5140002 h 3.132 3.129 l 9.289,22.5140002 h -5.876 l -1.93,-5.061 -0.005,-0.005 h -4.607 z m 4.61,-3.8 h 3.165 l -0.002,0.001 -3.142,-8.2400002 h -0.044 l -3.144,8.2400002 -0.001,-0.001 z"
     id="path995"
     inkscape:connector-curvature="0"
     style="fill:#ff0000" />
  <path
     d="M 66.057,7.3331658 V 25.695166 H 61.026 V 7.3331658 h 0.017 -7.036 v -4.152 h 19.067 v 4.151 h -7 -0.017 z"
     id="path997"
     inkscape:connector-curvature="0"
     style="fill:#ff0000" />
  <path
     d="m 74.362,14.298166 c 0,-6.5940002 5.346,-11.9390002 11.941,-11.9390002 6.594,0 11.94,5.346 11.94,11.9390002 0,6.595 -5.346,11.939 -11.94,11.939 -6.595,0 -11.941,-5.345 -11.941,-11.939 z m 11.941,7.561 c 3.681,0 6.667,-3.386 6.667,-7.562 0,-4.175 -2.985,-7.5620002 -6.667,-7.5620002 -3.682,0 -6.667,3.3860002 -6.667,7.5620002 0,4.176 2.985,7.562 6.667,7.562 z"
     id="path999"
     inkscape:connector-curvature="0"
     style="fill:#ff0000" />
  <path
     d="m 109.802,25.695166 h 2.551 v -8.443 -0.106 l 8.776,-13.9650002 h -5.874 l -5.453,9.4630002 -5.452,-9.4630002 h -5.876 l 8.777,13.9650002 v 0.105 8.443 h 2.551 z"
     id="path1001"
     inkscape:connector-curvature="0"
     style="fill:#ff0000" />
</svg>
