<?xml version="1.0" encoding="UTF-8"?>
<svg width="1005.7pt" height="141.25pt" version="1.2" viewBox="0 0 1005.7 141.25" xmlns="http://www.w3.org/2000/svg">
 <defs>
  <clipPath id="clip1">
   <path d="m765 0h144v141.25h-144z"/>
  </clipPath>
  <clipPath id="clip2">
   <path d="m607 0h145v141.25h-145z"/>
  </clipPath>
  <clipPath id="clip3">
   <path d="m294 0h147v141.25h-147z"/>
  </clipPath>
  <clipPath id="clip4">
   <path d="m136 0h145v141.25h-145z"/>
  </clipPath>
  <clipPath id="clip5">
   <path d="m923 0h82.691v138h-82.691z"/>
  </clipPath>
 </defs>
 <g>
  <g clip-path="url(#clip1)">
   <path d="m869.11 57.281h-64.102l0.3125-1.2148c4.0703-15.867 15.707-24.602 32.766-24.602 16.434 0 27.656 8.9844 30.789 24.652zm-31.023-57.277c-41.395 0-72.613 30.359-72.613 70.621 0 20.008 7.3633 37.98 20.727 50.605 13.867 13.098 33.184 20.02 55.867 20.02 24.359 0 43.043-7.0938 57.109-21.684l-22.562-22.559c-7.707 6.3672-17.961 12.777-35.344 12.777-19.406 0-31.973-8.7812-36.344-25.391l-0.32031-1.2188h104.16c1.4844-25.051-5.5312-47.215-19.777-62.453-12.676-13.555-30.277-20.719-50.906-20.719" fill="#fff"/>
  </g>
  <g clip-path="url(#clip2)">
   <path d="m711.63 57.281h-64.098l0.3125-1.2148c4.0664-15.867 15.703-24.602 32.766-24.602 16.43 0 27.652 8.9844 30.785 24.652zm-31.02-57.277c-41.398 0-72.617 30.359-72.617 70.621 0 20.008 7.3633 37.98 20.73 50.605 13.863 13.098 33.18 20.02 55.863 20.02 24.359 0 43.047-7.0938 57.109-21.684l-22.566-22.559c-7.707 6.3672-17.957 12.777-35.34 12.777-19.406 0-31.973-8.7812-36.344-25.391l-0.32031-1.2188h104.16c1.4844-25.051-5.5312-47.215-19.777-62.449-12.676-13.555-30.277-20.723-50.902-20.723" fill="#fff"/>
  </g>
  <g clip-path="url(#clip3)">
   <path d="m367.54 109.39c-20.566 0-34.383-15.578-34.383-38.766 0-23.184 13.816-38.762 34.383-38.762 20.57 0 34.391 15.578 34.391 38.762 0 23.188-13.82 38.766-34.391 38.766zm0-109.39c-41.848 0-73.406 30.359-73.406 70.621s31.559 70.625 73.406 70.625c41.852 0 73.41-30.363 73.41-70.625s-31.559-70.621-73.41-70.621" fill="#fff"/>
  </g>
  <g clip-path="url(#clip4)">
   <path d="m240.29 57.281h-64.094l0.3125-1.2148c4.0664-15.867 15.703-24.602 32.762-24.602 16.43 0 27.652 8.9844 30.789 24.648zm-31.02-57.277c-41.395 0-72.613 30.359-72.613 70.621 0 20.008 7.3633 37.98 20.727 50.605 13.863 13.098 33.184 20.02 55.863 20.02 24.359 0 43.047-7.0938 57.113-21.684l-22.566-22.559c-7.707 6.3672-17.961 12.777-35.34 12.777-19.406 0-31.973-8.7812-36.344-25.391l-0.32031-1.2188h104.16c1.4844-25.051-5.5352-47.215-19.781-62.453-12.672-13.555-30.273-20.719-50.902-20.719" fill="#fff"/>
  </g>
 </g>
 <path d="m0 3.582 72.715 134.33 70.039-134.33h-36.922l-31.52 66.227-32.715-66.227h-41.598" fill="#fff"/>
 <path d="m556.56 137.04h35.461l0.03125-71.316c0-35.578-30.945-65.633-67.578-65.633-36.633 0-67.578 30.059-67.578 65.633v71.316h35.328l0.007813-71.805c0.34766-17.684 15.074-32.617 32.16-32.617 0.28516-0.027343 1.3203 0.035157 1.6289 0.050781 16.535 1.0391 30.227 15.637 30.52 32.547l0.019532 71.824" fill="#fff"/>
 <g clip-path="url(#clip5)">
  <path d="m923.93 137.03h35.328v-71.312c0.22656-18.664 15.602-33.941 34.27-34.062l0.18359-0.007812c0.10156-0.003907 0.20703-0.007813 0.3125-0.007813h11.668v-31.605l-16.078 0.050781c-36.238 0-65.68 29.441-65.68 65.633l-0.003906 71.312" fill="#fff"/>
 </g>
</svg>
